<svg id="Layer_1" enable-background="new 0 0 512 512" height="512" viewBox="0 0 512 512" width="512" xmlns="http://www.w3.org/2000/svg"><g><path d="m286 388.275c-8.784 2.364-18.732 3.725-30 3.725-44.738 0-68.699-21.421-81.406-42.094-10.188-16.574 1.958-37.906 21.414-37.906h60c-19.455 0-31.602 21.332-21.414 37.906 9.507 15.466 25.315 31.348 51.406 38.369zm166-296.511c0-11.415 9.366-28.422 20-44.047-5.008-7.359-10.296-14.412-15.022-20.428-7.634-9.718-22.323-9.718-29.957 0-14.758 18.789-35.021 47.685-35.021 64.475 0 27.745 22.335 50.236 50 50.236 11.267 0 21.65-3.732 30-10.029-12.152-9.165-20-23.762-20-40.207zm-372 164.236c0-120.176 89.826-219.372 206-234.11-9.824-1.247-19.837-1.89-30-1.89-130.339 0-236 105.661-236 236s105.661 236 236 236c10.163 0 20.176-.643 30-1.89-116.174-14.738-206-113.934-206-234.11z" fill="#cee1f2"/><path d="m256 512c-68.38 0-132.667-26.629-181.02-74.98-48.351-48.353-74.98-112.64-74.98-181.02s26.629-132.667 74.98-181.02c48.353-48.351 112.64-74.98 181.02-74.98 29.003 0 57.469 4.817 84.608 14.317 10.425 3.65 15.918 15.06 12.269 25.485-3.65 10.425-15.059 15.917-25.485 12.269-22.881-8.009-46.901-12.071-71.392-12.071-119.103 0-216 96.897-216 216s96.897 216 216 216 216-96.897 216-216c0-14.177-1.38-28.349-4.101-42.124-2.141-10.836 4.908-21.356 15.744-23.497 10.833-2.146 21.356 4.908 23.497 15.744 3.225 16.323 4.86 33.104 4.86 49.877 0 68.38-26.629 132.667-74.98 181.02-48.353 48.351-112.64 74.98-181.02 74.98zm98.444-151.62c8.596-13.984 8.931-30.91.898-45.278-7.968-14.25-23.046-23.102-39.35-23.102h-119.984c-16.304 0-31.382 8.852-39.35 23.102-8.033 14.368-7.698 31.294.898 45.278 14.474 23.549 43.303 51.62 98.444 51.62s83.97-28.071 98.444-51.62zm-38.452-28.38c2.584 0 3.889 1.644 4.437 2.624.629 1.125 1.129 2.873-.062 4.81-13.283 21.609-34.939 32.566-64.367 32.566s-51.084-10.957-64.367-32.566c-1.191-1.938-.691-3.685-.062-4.81.548-.98 1.853-2.624 4.437-2.624zm196.008-240.236c0-6.63 0-26.805-39.293-76.83-7.456-9.491-18.648-14.934-30.707-14.934s-23.251 5.443-30.707 14.935c-39.293 50.024-39.293 70.199-39.293 76.829 0 38.728 31.402 70.236 70 70.236s70-31.508 70-70.236zm-40 0c0 16.673-13.458 30.236-30 30.236s-30-13.563-30-30.236c0-4.441 6.296-20.813 30-51.165 23.704 30.352 30 46.724 30 51.165z" fill="#0023c4"/><path d="m355.019 256.004c-1.424 0-2.869-.153-4.317-.472-15.404-3.389-30.791-10.002-45.73-19.656-12.65-8.174-20.116-22.088-19.97-37.22.146-15.122 7.872-28.878 20.666-36.8 13.316-8.244 28.098-14.675 43.934-19.114 10.637-2.982 21.674 3.224 24.656 13.86 2.981 10.636-3.224 21.674-13.86 24.656-12.221 3.426-23.55 8.34-33.674 14.608-1.408.872-1.714 2.208-1.724 3.177-.009.976.274 2.329 1.68 3.237 10.917 7.054 21.891 11.827 32.618 14.188 10.788 2.374 17.608 13.043 15.235 23.831-2.055 9.339-10.329 15.705-19.514 15.705zm-198.038 0c-9.186 0-17.458-6.366-19.514-15.707-2.374-10.788 4.447-21.457 15.235-23.831 10.727-2.36 21.701-7.133 32.618-14.188 1.405-.908 1.689-2.262 1.68-3.237-.01-.968-.316-2.305-1.725-3.177-10.123-6.267-21.453-11.182-33.673-14.607-10.636-2.981-16.841-14.02-13.86-24.656s14.02-16.841 24.656-13.86c15.836 4.439 30.618 10.87 43.934 19.114 12.795 7.922 20.521 21.679 20.667 36.8.146 15.132-7.319 29.046-19.969 37.22-14.94 9.654-30.327 16.267-45.731 19.656-1.448.32-2.895.473-4.318.473z" fill="#ff5cf3"/></g></svg>