<svg id="Layer_1" enable-background="new 0 0 512 512" height="512" viewBox="0 0 512 512" width="512" xmlns="http://www.w3.org/2000/svg"><g><path d="m80 256c0-120.176 89.826-219.372 206-234.11-9.824-1.247-19.837-1.89-30-1.89-130.339 0-236 105.661-236 236s105.661 236 236 236c10.163 0 20.176-.643 30-1.89-116.174-14.738-206-113.934-206-234.11z" fill="#cee1f2"/><path d="m256 512c-68.38 0-132.667-26.629-181.02-74.98-48.351-48.353-74.98-112.64-74.98-181.02s26.629-132.667 74.98-181.02c48.353-48.351 112.64-74.98 181.02-74.98 129.721 0 239.011 97.009 254.218 225.652 1.297 10.969-6.544 20.913-17.514 22.209-10.956 1.296-20.913-6.544-22.209-17.514-12.828-108.515-105.041-190.347-214.495-190.347-119.103 0-216 96.897-216 216s96.897 216 216 216c36.877 0 73.268-9.448 105.24-27.323 9.643-5.39 21.827-1.943 27.217 7.697 5.391 9.641 1.944 21.827-7.697 27.217-37.924 21.202-81.065 32.409-124.76 32.409zm56-129.308c.027-8.154-1.69-16.034-5.106-23.421-1.446-3.128-1.309-7.113.378-10.935 3.192-7.238 4.783-15.063 4.727-23.258-.184-26.51-22.038-48.078-48.718-48.078h-33.281c-11.046 0-20 8.954-20 20s8.954 20 20 20h33.281c4.775 0 8.687 3.748 8.718 8.354.018 2.54-.416 4.777-1.324 6.836-6.321 14.326-6.354 30.315-.088 43.868.958 2.074 1.421 4.201 1.413 6.5-.016 4.655-3.95 8.443-8.77 8.443h-33.23c-11.046 0-20 8.954-20 20s8.954 20 20 20h33.23c26.801-.001 48.679-21.671 48.77-48.309z" fill="#0023c4"/><g fill="#ff5cf3"><path d="m377.985 233.001c5.993 0 11.921-2.683 15.86-7.798 6.739-8.751 5.108-21.309-3.643-28.048-20.458-15.756-41.464-23.556-62.403-23.141l-24.788-.014c-.004 0-.007 0-.011 0-11.04 0-19.994 8.947-20 19.989-.006 11.045 8.943 20.005 19.989 20.011h25.451c11.694-.264 24.238 4.743 37.356 14.845 3.637 2.801 7.93 4.156 12.189 4.156z"/><circle cx="169" cy="201" r="25"/><g><path d="m350 330c-.003-.133 0 .133 0 0z"/><path d="m461.5 279c-11.551 0-22.08 3.654-30.5 9.884-8.42-6.23-18.949-9.884-30.5-9.884-27.846 0-50.5 22.959-50.5 51 .64 31.92 18.381 62.187 51.3 87.046 8.744 6.603 19.222 9.904 29.7 9.904s20.957-3.301 29.7-9.904c32.919-24.859 50.66-55.126 51.3-87.046 0-28.041-22.654-51-50.5-51zm-24.905 106.125c-3.295 2.487-7.896 2.487-11.189 0-15.835-11.958-34.802-31.267-35.404-55.439.086-5.908 4.763-10.686 10.498-10.686 6.084 0 10.5 4.206 10.5 10 0 11.046 8.954 20 20 20s20-8.954 20-20c0-5.794 4.416-10 10.5-10 5.735 0 10.412 4.778 10.499 10.686-.603 24.172-19.569 43.481-35.404 55.439z"/></g><path d="m512 330c0 .133.003-.133 0 0z"/></g></g></svg>