<svg id="Layer_1" enable-background="new 0 0 512 512" height="512" viewBox="0 0 512 512" width="512" xmlns="http://www.w3.org/2000/svg"><g><path d="m234.555 349.906c-10.188-16.574 1.958-37.906 21.414-37.906h-60c-19.456 0-31.602 21.332-21.414 37.906 12.707 20.673 36.668 42.094 81.406 42.094l9.157-12.211c-14.175-8.05-23.914-19.066-30.563-29.883z" fill="#cee1f2"/><path d="m255.961 412c-55.141 0-83.97-28.071-98.445-51.62-8.595-13.984-8.931-30.911-.896-45.278 7.968-14.25 23.046-23.102 39.35-23.102h119.984c16.304 0 31.382 8.852 39.35 23.102 8.034 14.367 7.698 31.293-.896 45.277-14.477 23.55-43.306 51.621-98.447 51.621zm-59.992-80c-2.584 0-3.889 1.644-4.437 2.624-.63 1.125-1.13 2.873.062 4.811 13.282 21.608 34.938 32.565 64.367 32.565s51.085-10.957 64.367-32.566c1.191-1.937.691-3.685.062-4.81-.548-.98-1.853-2.624-4.437-2.624zm255.879 35.96c-15.543 0-31.115-5.938-42.982-17.806-6.977-6.976-16.914-21.672-22.64-68.548-1.328-10.869 2.343-21.538 10.072-29.268s18.394-11.404 29.27-10.075c46.875 5.726 61.571 15.663 68.548 22.639 23.644 23.643 23.756 62 .253 85.503-11.707 11.707-27.099 17.555-42.521 17.555zm-14.643-46.033c8.051 7.992 20.99 8.084 28.878.195 7.89-7.889 7.796-20.827-.195-28.878-.447-.361-8.041-6.129-39.172-10.49 4.361 31.139 10.13 38.728 10.489 39.173zm-78.022 168.405c31.477-13.883 59.445-33.669 83.131-58.807 7.574-8.039 7.198-20.697-.841-28.272-8.04-7.574-20.696-7.197-28.272.841-41.259 43.79-97.102 67.906-157.24 67.906s-115.98-24.116-157.239-67.905c-7.575-8.039-20.231-8.416-28.272-.841-8.039 7.575-8.415 20.233-.841 28.272 23.686 25.138 51.654 44.923 83.131 58.807 32.595 14.377 67.325 21.667 103.221 21.667s70.626-7.29 103.222-21.668zm130.564-272.538c10.714-2.688 17.221-13.551 14.533-24.265-13.634-54.348-45.479-103.52-89.672-138.457-45.573-36.028-100.432-55.072-158.647-55.072s-113.074 19.044-158.647 55.072c-44.193 34.937-76.038 84.109-89.672 138.457-2.688 10.714 3.819 21.578 14.533 24.265 10.721 2.688 21.578-3.819 24.265-14.533 24.113-96.126 110.271-163.261 209.521-163.261s185.408 67.135 209.521 163.261c2.277 9.081 10.428 15.139 19.384 15.139 1.611-.001 3.248-.196 4.881-.606zm-429.673 150.166c-15.424 0-30.813-5.847-42.521-17.554-23.503-23.503-23.391-61.86.252-85.502 6.978-6.977 21.674-16.914 68.549-22.64 10.872-1.33 21.54 2.345 29.27 10.075 7.729 7.73 11.4 18.398 10.072 29.269-5.726 46.875-15.663 61.57-22.639 68.546-11.866 11.867-27.442 17.806-42.983 17.806zm-14.04-74.716c-7.991 8.051-8.085 20.989-.195 28.878 7.888 7.889 20.826 7.795 28.878-.196.361-.448 6.129-8.041 10.489-39.172-31.131 4.361-38.724 10.129-39.172 10.49z" fill="#0023c4"/><path d="m133.971 219c-5.697 0-11.355-2.421-15.312-7.122-7.112-8.451-6.027-21.068 2.423-28.181 19.659-16.546 40.143-24.876 60.955-24.698h26.924c11.046 0 20 8.954 20 20s-8.954 20-20 20c0 0-27.336-.003-27.501-.002-11.061 0-22.388 5.008-34.62 15.304-3.751 3.157-8.322 4.699-12.869 4.699zm258.836-8.797c6.739-8.751 5.108-21.309-3.643-28.048-20.458-15.756-41.468-23.541-62.403-23.141l-24.789-.014c-.004 0-.007 0-.011 0-11.04 0-19.994 8.947-20 19.989-.006 11.045 8.943 20.005 19.989 20.011 0 0 25.301.012 25.451.009 11.673-.255 24.237 4.734 37.356 14.836 3.636 2.801 7.929 4.156 12.188 4.156 5.995-.001 11.922-2.683 15.862-7.798z" fill="#ff5cf4"/></g></svg>