<svg id="Layer_1" enable-background="new 0 0 512 512" height="512" viewBox="0 0 512 512" width="512" xmlns="http://www.w3.org/2000/svg"><g><path d="m80.006 255.698c.038-29.638 5.548-57.991 15.564-84.114 5.606-14.623 6.789-30.57 3.046-45.776l-4.668-18.962c-1.772-7.197 4.742-13.73 11.932-11.927 17.332 4.346 45.094 8.69 64.806-1.009 25.468-12.531 75.32-46.905 145.32-46.905 1.125 0-58.148-27-60-27-30.089 0-58.859 5.637-85.32 15.905-14.787 5.738-30.954 6.904-46.323 2.983l-37.672-9.61-32.986-8.415c-19.764-5.042-37.767 12.81-32.892 32.616l17.803 72.323c3.743 15.207 2.56 31.154-3.046 45.776-10.015 26.123-15.526 54.475-15.564 84.114-.166 130.177 105.825 236.31 236.001 236.309 10.18 0 20.209-.645 30.049-1.895-116.098-14.791-206.204-114.381-206.05-234.413z" fill="#cee1f2"/><path d="m256.007 512.006c-68.304 0-132.594-26.707-181.026-75.202-48.436-48.496-75.062-112.823-74.975-181.131.04-31.591 5.782-62.445 17.065-91.704 4.128-10.708 4.857-22.274 2.107-33.445l-17.786-72.259c-3.985-16.191.704-32.867 12.544-44.607s28.555-16.29 44.712-12.168l70.657 18.025c11.19 2.854 22.998 2.077 34.145-2.25 29.514-11.452 60.653-17.259 92.556-17.259s63.042 5.807 92.556 17.259c11.148 4.327 22.956 5.105 34.145 2.25l70.657-18.025c16.155-4.12 32.871.427 44.711 12.167s16.529 28.416 12.544 44.607l-17.784 72.248c-2.74 11.135-1.943 22.884 2.306 33.976.001 0 .001 0 .001.001 11.19 29.212 16.864 60.003 16.864 91.517 0 68.38-26.629 132.667-74.98 181.019s-112.64 74.981-181.019 74.981zm-209.088-471.996c-2.344 0-3.973 1.213-4.817 2.051-1.052 1.043-2.693 3.293-1.869 6.644l17.787 72.259c4.717 19.162 3.462 39.009-3.627 57.396-9.513 24.667-14.353 50.696-14.387 77.364-.073 57.614 22.398 111.885 63.276 152.815 40.876 40.928 95.115 63.468 152.725 63.468 119.103 0 215.999-96.897 215.999-216 0-26.604-4.783-52.581-14.218-77.208v.001c-7.182-18.748-8.494-38.75-3.793-57.847l17.784-72.248c.824-3.351-.817-5.601-1.869-6.644-1.051-1.043-3.315-2.666-6.658-1.812l-70.659 18.025c-19.309 4.926-39.54 3.641-58.502-3.717-24.881-9.655-51.152-14.55-78.085-14.55s-53.204 4.896-78.085 14.55c-18.961 7.358-39.19 8.644-58.502 3.717l-70.659-18.025c-.655-.167-1.269-.239-1.841-.239zm302.824 272.123c-9.319-5.931-21.681-3.184-27.61 6.136-.247.387-25.137 38.737-67.127 38.737s-66.88-38.35-67.127-38.737c-5.93-9.319-18.291-12.066-27.61-6.136s-12.066 18.292-6.136 27.61c1.488 2.338 37.172 57.263 100.873 57.263s99.385-54.924 100.873-57.263c5.93-9.318 3.183-21.68-6.136-27.61z" fill="#0023c4"/><g fill="#ff5cf4"><path d="m142.581 155.173c-10.944-1.424-20.985 6.303-22.409 17.258-1.422 10.954 6.305 20.986 17.259 22.409 15.028 1.951 25.442 5.795 33.087 12.294-6.694 4.486-11.103 12.118-11.103 20.782 0 13.807 11.193 25 25 25 25.591 0 31.683-23.91 31.683-39.146 0-11.487-4.48-22.285-12.607-30.402-14.398-14.958-34.622-24.782-60.91-28.195z"/><path d="m391.84 172.431c-1.424-10.954-11.451-18.68-22.409-17.258-26.288 3.414-46.512 13.236-60.908 28.194-8.128 8.118-12.608 18.916-12.608 30.403 0 19.236 11.707 39.146 31.683 39.146 13.807 0 25-11.193 25-25 0-8.664-4.408-16.296-11.103-20.782 7.645-6.499 18.059-10.343 33.087-12.294 10.953-1.423 18.679-11.455 17.258-22.409z"/></g></g></svg>