<svg id="Layer_1" enable-background="new 0 0 512 512" height="512" viewBox="0 0 512 512" width="512" xmlns="http://www.w3.org/2000/svg"><g><path d="m286 490.11c-9.824 1.247-19.837 1.89-30 1.89-130.339 0-236-105.661-236-236s105.661-236 236-236c10.163 0 20.176.643 30 1.89-116.174 14.738-206 113.934-206 234.11s89.826 219.372 206 234.11zm-51.406-140.204c-10.188-16.574 1.958-37.906 21.414-37.906h-60c-19.456 0-31.602 21.332-21.414 37.906 12.707 20.673 36.668 42.094 81.406 42.094l9.157-12.211c-14.176-8.05-23.914-19.066-30.563-29.883z" fill="#cee1f2"/><path d="m256 512c-68.38 0-132.667-26.629-181.02-74.98-48.351-48.353-74.98-112.64-74.98-181.02s26.629-132.667 74.98-181.02c48.353-48.351 112.64-74.98 181.02-74.98s132.667 26.629 181.02 74.98c48.351 48.353 74.98 112.64 74.98 181.02s-26.629 132.667-74.98 181.02c-48.353 48.351-112.64 74.98-181.02 74.98zm0-472c-119.103 0-216 96.897-216 216s96.897 216 216 216 216-96.897 216-216-96.897-216-216-216zm0 372c-55.141 0-83.97-28.071-98.445-51.62-8.595-13.984-8.931-30.911-.896-45.278 7.968-14.25 23.046-23.102 39.35-23.102h119.984c16.304 0 31.382 8.852 39.35 23.102 8.034 14.367 7.698 31.293-.896 45.277-14.477 23.55-43.306 51.621-98.447 51.621zm-59.992-80c-2.584 0-3.889 1.644-4.437 2.624-.63 1.125-1.13 2.873.062 4.811 13.282 21.608 34.938 32.565 64.367 32.565s51.085-10.957 64.367-32.566c1.191-1.937.691-3.685.062-4.81-.548-.98-1.853-2.624-4.437-2.624z" fill="#0023c4"/><path d="m343 240c-11.046 0-20-8.954-20-20v-55c0-11.046 8.954-20 20-20s20 8.954 20 20v55c0 11.046-8.954 20-20 20zm-155-20v-55c0-11.046-8.954-20-20-20s-20 8.954-20 20v55c0 11.046 8.954 20 20 20s20-8.954 20-20z" fill="#ff5cf3"/></g></svg>