<svg id="Layer_1" enable-background="new 0 0 512 512" height="512" viewBox="0 0 512 512" width="512" xmlns="http://www.w3.org/2000/svg"><g><path d="m80 256c0-120.176 89.826-219.372 206-234.11-9.824-1.247-19.837-1.89-30-1.89-130.339 0-236 105.661-236 236s105.661 236 236 236c10.163 0 20.176-.643 30-1.89-116.174-14.738-206-113.934-206-234.11z" fill="#cee1f2"/><path d="m256 512c-68.38 0-132.667-26.629-181.02-74.98-48.351-48.353-74.98-112.64-74.98-181.02s26.629-132.667 74.98-181.02c48.353-48.351 112.64-74.98 181.02-74.98s132.667 26.629 181.02 74.98c48.351 48.353 74.98 112.64 74.98 181.02s-26.629 132.667-74.98 181.02c-48.353 48.351-112.64 74.98-181.02 74.98zm0-472c-119.103 0-216 96.897-216 216s96.897 216 216 216 216-96.897 216-216-96.897-216-216-216zm69 344.691c.027-8.152-1.691-16.032-5.106-23.419-1.447-3.13-1.31-7.115.376-10.935 3.194-7.239 4.786-15.065 4.729-23.26-.184-26.509-22.039-48.077-48.718-48.077h-33.281c-11.046 0-20 8.954-20 20s8.954 20 20 20h33.281c4.775 0 8.687 3.748 8.718 8.355.018 2.538-.416 4.773-1.325 6.834-6.321 14.326-6.354 30.315-.088 43.869.959 2.073 1.421 4.199 1.414 6.497-.016 4.656-3.95 8.444-8.77 8.444h-33.23c-11.046 0-20 8.954-20 20s8.954 20 20 20h33.23c26.8.001 48.678-21.669 48.77-48.308z" fill="#0023c4"/><path d="m135.01 233c-5.698 0-11.355-2.421-15.312-7.122-7.113-8.451-6.028-21.067 2.422-28.18 19.658-16.547 40.156-24.861 60.955-24.699h26.925c11.046 0 20 8.954 20 20s-8.954 20-20 20c0 0-27.323-.002-27.484-.002-10.919 0-22.571 5.147-34.637 15.303-3.75 3.158-8.323 4.7-12.869 4.7zm258.836-8.796c6.74-8.751 5.109-21.309-3.643-28.049-20.458-15.755-41.434-23.549-62.403-23.141l-24.789-.014c-.004 0-.007 0-.011 0-11.041 0-19.994 8.947-20 19.989-.006 11.045 8.943 20.005 19.989 20.011l25 .014c.155.005.301-.001.452-.005 11.661-.262 24.238 4.734 37.356 14.837 3.637 2.8 7.928 4.156 12.189 4.155 5.992 0 11.921-2.682 15.86-7.797z" fill="#ff5cf4"/></g></svg>