<svg id="Layer_1" enable-background="new 0 0 512 512" height="512" viewBox="0 0 512 512" width="512" xmlns="http://www.w3.org/2000/svg"><g><path d="m367.521 49.911c-110.69-60.479-250.319-23.12-315.59 86.095-46.223 77.342-43.042 170.459.281 242.672 4.276-1.981 16.243-7.611 18.183-8.304-15.33-66.776-3.388-142.635 33.039-203.587 54.519-91.225 160.918-132.314 258.997-108.137 1.603-2.794 3.253-5.83 5.09-8.739z" fill="#cee1f2"/><path d="m286.239 403.075c-9.442 0-18.142-1.266-25.777-3.087-16.055-3.832-28.328-15.628-32.832-31.556-4.467-15.798-.04-32.813 11.553-44.406l85.689-85.689c11.593-11.593 28.608-16.02 44.406-11.553 15.927 4.503 27.724 16.776 31.555 32.831 6.469 27.106 5.927 67.671-33.388 106.985-28.238 28.239-57.127 36.474-81.206 36.475zm70.59-138.022c-1.102 0-2.442.339-3.671 1.567v.001l-85.689 85.689c-1.918 1.918-1.667 4.104-1.347 5.238.369 1.304 1.297 2.975 3.625 3.53 24.993 5.964 48.347-1.695 69.416-22.764s28.729-44.425 22.765-69.416c-.556-2.328-2.227-3.257-3.531-3.625-.408-.113-.95-.22-1.568-.22zm94.72-60.998c-9.818 0-27.147-3.345-64.115-32.265-8.6-6.728-13.532-16.837-13.532-27.735s4.932-21.007 13.531-27.735c36.968-28.92 54.296-32.265 64.115-32.265 33.279 0 60.354 26.916 60.354 60s-27.074 60-60.353 60zm-34.561-60c24.711 18.616 34.059 19.935 34.646 20 11.184-.046 20.268-9 20.268-20s-9.084-19.954-20.268-20c-.587.065-9.934 1.384-34.646 20zm-68.3 350.611c33.215-12.883 62.927-32.285 88.31-57.668 25.383-25.384 44.785-55.095 57.667-88.311 12.439-32.074 18.226-65.842 17.199-100.365-.329-11.042-9.564-19.698-20.586-19.396-11.041.329-19.725 9.545-19.396 20.586 1.789 60.138-20.645 116.677-63.168 159.202-42.524 42.524-99.07 64.962-159.202 63.169-11.024-.349-20.258 8.355-20.586 19.396-.329 11.041 8.355 20.258 19.396 20.586 2.604.077 5.204.116 7.799.116 31.811 0 62.913-5.814 92.567-17.315zm-285.036-100.392c9.476-5.676 12.557-17.958 6.882-27.435-50.921-85.021-37.47-193.416 32.71-263.596 70.181-70.18 178.575-83.633 263.597-32.71 9.476 5.675 21.759 2.593 27.435-6.882 5.675-9.476 2.594-21.759-6.882-27.435-48.07-28.789-105.358-41.038-161.312-34.496-57.701 6.749-109.958 32.075-151.122 73.239s-66.49 93.421-73.239 151.123c-6.544 55.953 5.707 113.241 34.497 161.311 3.748 6.258 10.377 9.727 17.177 9.727 3.497-.001 7.039-.919 10.257-2.846zm79.25 117.781c-33.084 0-60-27.074-60-60.354 0-9.817 3.345-27.145 32.264-64.114 0-.001.001-.002.001-.002 6.728-8.599 16.836-13.53 27.734-13.53s21.007 4.932 27.734 13.53c28.921 36.972 32.266 54.299 32.266 64.116.001 33.28-26.915 60.354-59.999 60.354zm-20-60.267c.046 11.184 9 20.268 20 20.268s19.954-9.084 20-20.268c-.065-.588-1.383-9.933-20-34.646-18.616 24.713-19.935 34.058-20 34.646z" fill="#0023c4"/><path d="m259.512 201.055c-11.576 0-22.752-4.627-31.104-13.148-10.531-10.745-14.769-25.855-11.336-40.422 3.564-15.129 9.435-30.015 17.446-44.242 5.419-9.624 17.615-13.033 27.24-7.613 9.625 5.419 13.033 17.615 7.613 27.24-6.167 10.951-10.664 22.319-13.366 33.79-.285 1.209.041 2.302.969 3.249.655.669 1.767 1.398 3.346 1.058 12.604-2.704 23.647-7.045 32.822-12.901 9.313-5.941 21.677-3.211 27.619 6.099 5.942 9.311 3.212 21.676-6.099 27.619-13.208 8.43-28.668 14.585-45.951 18.293-3.064.655-6.146.978-9.199.978zm-78.883 113.76c8.43-13.208 14.585-28.668 18.293-45.951 3.149-14.681-1.399-29.748-12.169-40.303-10.744-10.531-25.855-14.768-40.421-11.336-15.13 3.564-30.016 9.435-44.243 17.446-9.625 5.419-13.033 17.615-7.613 27.24 5.419 9.625 17.614 13.033 27.24 7.614 10.951-6.167 22.319-10.664 33.79-13.367 1.208-.282 2.302.041 3.249.969.669.656 1.396 1.769 1.058 3.345-2.705 12.604-7.045 23.647-12.901 32.823-5.942 9.311-3.212 21.676 6.099 27.618 3.334 2.129 7.059 3.145 10.741 3.145 6.6-.001 13.062-3.266 16.877-9.243z" fill="#ff5cf3"/></g></svg>