<svg id="Layer_1" enable-background="new 0 0 512 512" height="512" viewBox="0 0 512 512" width="512" xmlns="http://www.w3.org/2000/svg"><g><path d="m256.008 392h-60c-19.456 0-31.602-21.332-21.414-37.906 12.707-20.673 36.668-42.094 81.406-42.094 11.269 0 21.216 1.362 30 3.725-26.091 7.021-41.899 22.902-51.406 38.368-10.188 16.575 1.958 37.907 21.414 37.907zm-176.008-136c0-120.176 89.826-219.372 206-234.11-9.824-1.247-19.837-1.89-30-1.89-130.339 0-236 105.661-236 236s105.661 236 236 236c10.163 0 20.176-.643 30-1.89-116.174-14.738-206-113.934-206-234.11z" fill="#cee1f2"/><path d="m256 512c-68.38 0-132.667-26.629-181.02-74.98-48.351-48.353-74.98-112.64-74.98-181.02s26.629-132.667 74.98-181.02c48.353-48.351 112.64-74.98 181.02-74.98 65.545 0 127.897 24.75 175.571 69.69 47.466 44.746 75.849 105.14 79.921 170.058.691 11.024-7.685 20.521-18.709 21.213-11.008.683-20.521-7.685-21.213-18.709-7.114-113.412-101.803-202.252-215.57-202.252-119.103 0-216 96.897-216 216s96.897 216 216 216c45.402 0 88.839-13.922 125.615-40.26 8.979-6.432 21.474-4.367 27.905 4.614 6.432 8.98 4.365 21.475-4.614 27.905-43.609 31.233-95.1 47.741-148.906 47.741zm99.342-123.103c8.034-14.367 7.698-31.293-.896-45.277-14.476-23.549-43.305-51.62-98.446-51.62s-83.97 28.071-98.445 51.621c-8.595 13.983-8.931 30.909-.896 45.276 7.968 14.25 23.046 23.103 39.35 23.103h119.984c16.303 0 31.381-8.853 39.349-23.103zm-34.975-24.331c1.191 1.938.691 3.685.062 4.81-.548.98-1.853 2.624-4.437 2.624h-119.984c-2.584 0-3.889-1.644-4.437-2.624-.63-1.125-1.13-2.872.062-4.809 13.282-21.61 34.938-32.567 64.367-32.567s51.085 10.957 64.367 32.566z" fill="#0023c4"/><path d="m451.887 407.961c-15.542 0-31.115-5.938-42.983-17.806-6.976-6.977-16.913-21.673-22.639-68.549-1.328-10.869 2.343-21.538 10.073-29.269 7.731-7.729 18.397-11.401 29.271-10.073 46.874 5.726 61.57 15.663 68.547 22.639 23.643 23.644 23.755 62 .252 85.504-11.707 11.705-27.099 17.554-42.521 17.554zm-14.643-46.034c8.053 7.993 20.99 8.085 28.878.195 7.89-7.889 7.796-20.827-.195-28.878-.446-.359-8.036-6.128-39.172-10.489 4.363 31.148 10.134 38.731 10.489 39.172zm-105.39-120.885c-1.748 0-29.844-.042-29.844-.042-.003 0-.008 0-.011 0-11.041 0-19.994-8.947-20-19.989-.006-11.045 8.943-20.005 19.989-20.011 0 0 25.301-.012 25.451-.009 22.856.498 32.945-3.444 37.365-6.844 8.757-6.735 21.313-5.096 28.047 3.658 6.734 8.755 5.097 21.312-3.658 28.047-16.93 13.024-39.846 15.19-57.339 15.19zm-151.32-.042c-26.127 0-46.082-5.595-59.338-16.642-8.485-7.071-9.632-19.683-2.561-28.168s19.683-9.633 28.168-2.561c5.707 4.755 18.796 7.498 35.02 7.365.059-.001 27.177-.001 27.177-.001 11.046 0 20 8.954 20 20s-8.954 20-20 20c0 .001-27.953.007-28.466.007z" fill="#ff5cf3"/></g></svg>