<svg id="Layer_1" enable-background="new 0 0 512 512" height="512" viewBox="0 0 512 512" width="512" xmlns="http://www.w3.org/2000/svg"><g><path d="m80 256c0-120.176 89.826-219.372 206-234.11-9.824-1.247-19.837-1.89-30-1.89-130.339 0-236 105.661-236 236s105.661 236 236 236c10.163 0 20.176-.643 30-1.89-116.174-14.738-206-113.934-206-234.11z" fill="#cee1f2"/><path d="m256 512c-68.38 0-132.667-26.629-181.02-74.98-48.351-48.353-74.98-112.64-74.98-181.02s26.629-132.667 74.98-181.02c48.353-48.351 112.64-74.98 181.02-74.98s132.667 26.629 181.02 74.98c48.351 48.353 74.98 112.64 74.98 181.02s-26.629 132.667-74.98 181.02c-48.353 48.351-112.64 74.98-181.02 74.98zm0-472c-119.103 0-216 96.897-216 216s96.897 216 216 216 216-96.897 216-216-96.897-216-216-216zm121.27 289.182-5.349-10.532c-6.047-11.906-17.035-20.204-30.146-22.768-13.024-2.546-26.236.969-36.237 9.646-15.654 13.584-32.658 20.472-50.538 20.472-41.99 0-66.88-38.35-67.127-38.737-5.93-9.319-18.291-12.066-27.61-6.136s-12.066 18.292-6.136 27.61c1.488 2.339 37.172 57.263 100.873 57.263 27.399 0 53.94-10.463 76.753-30.259.662-.573 1.452-.774 2.346-.601.675.132 1.597.521 2.158 1.625l5.474 10.778c.092.182.187.361.285.54 3.11 5.687 3.819 12.245 1.998 18.465s-5.958 11.359-11.645 14.469c-6.037 3.301-13.225 3.882-19.722 1.592-10.418-3.668-21.839 1.799-25.51 12.216-3.671 10.418 1.798 21.839 12.216 25.51 6.928 2.441 14.151 3.648 21.356 3.648 10.676 0 21.308-2.653 30.852-7.873 15.061-8.237 26.013-21.845 30.839-38.319 4.794-16.367 2.972-33.616-5.13-48.609z" fill="#0023c4"/><path d="m355.019 245.004c-1.424 0-2.868-.153-4.316-.472-15.404-3.389-30.79-10.002-45.73-19.656-12.65-8.175-20.116-22.089-19.97-37.221.146-15.121 7.872-28.878 20.666-36.799 13.316-8.244 28.098-14.675 43.934-19.114 10.638-2.981 21.675 3.225 24.656 13.86 2.981 10.636-3.224 21.674-13.859 24.656-12.222 3.426-23.551 8.34-33.675 14.608-1.407.872-1.714 2.208-1.724 3.176-.009.976.274 2.33 1.681 3.238 10.917 7.054 21.891 11.827 32.617 14.188 10.787 2.374 17.608 13.042 15.235 23.83-2.056 9.339-10.33 15.706-19.515 15.706zm-193.721-.471c15.404-3.389 30.79-10.002 45.73-19.656 12.65-8.175 20.116-22.089 19.97-37.221-.146-15.121-7.872-28.878-20.667-36.799-13.315-8.244-28.097-14.675-43.933-19.114-10.636-2.98-21.674 3.224-24.656 13.86-2.981 10.636 3.224 21.674 13.859 24.656 12.222 3.426 23.551 8.34 33.674 14.608 1.408.872 1.715 2.208 1.725 3.176.009.976-.274 2.33-1.681 3.238-10.917 7.054-21.891 11.827-32.617 14.188-10.787 2.374-17.608 13.042-15.235 23.83 2.056 9.341 10.329 15.707 19.515 15.707 1.422-.002 2.869-.155 4.316-.473z" fill="#ff5cf3"/></g></svg>