<svg id="Layer_1" enable-background="new 0 0 512 512" height="512" viewBox="0 0 512 512" width="512" xmlns="http://www.w3.org/2000/svg"><g><path d="m298.063 23.575c-98.276-17.533-200.78 29.018-249.988 121.981-28.919 54.634-34.21 115.474-19.517 170.857 5.746-1.264 12.562-2.265 18.442-2.413 6.293-45.487 20.011-89.022 42.736-131.955 40.014-75.594 123.289-129.215 206.264-139.045.543-4.362 1.471-17.274 2.063-19.425z" fill="#cee1f2"/><path d="m256 512c-22.04 0-43.933-2.809-65.07-8.348-10.685-2.8-17.076-13.731-14.276-24.417 2.799-10.686 13.729-17.075 24.417-14.276 17.827 4.672 36.309 7.041 54.929 7.041 119.103 0 216-96.897 216-216 0-20.232-2.791-40.252-8.294-59.502-3.036-10.62 3.111-21.691 13.732-24.727 10.621-3.035 21.691 3.112 24.727 13.732 6.526 22.826 9.835 46.545 9.835 70.497 0 68.38-26.629 132.667-74.98 181.02-48.353 48.351-112.64 74.98-181.02 74.98zm-224.256-179.588c10.721-2.659 17.257-13.506 14.598-24.227-4.208-16.965-6.342-34.523-6.342-52.185 0-119.103 96.897-216 216-216 12.609 0 25.242 1.093 37.549 3.249 10.887 1.905 21.246-5.369 23.151-16.249s-5.369-21.245-16.249-23.151c-14.579-2.554-29.535-3.849-44.451-3.849-68.38 0-132.667 26.628-181.02 74.98-48.351 48.353-74.98 112.64-74.98 181.02 0 20.904 2.529 41.701 7.518 61.814 2.259 9.104 10.42 15.19 19.396 15.19 1.594.001 3.214-.191 4.83-.592zm324.131-3.675c-1.487 2.339-37.171 57.263-100.873 57.263s-99.385-54.924-100.873-57.263c-5.93-9.319-3.183-21.68 6.136-27.61 9.319-5.931 21.681-3.184 27.61 6.136.247.387 25.138 38.737 67.127 38.737s66.88-38.35 67.127-38.737c5.93-9.319 18.291-12.066 27.61-6.136 9.32 5.93 12.067 18.291 6.136 27.61z" fill="#0023c4"/><g fill="#ff5cf4"><path d="m461.5 0c-11.551 0-22.08 3.654-30.5 9.884-8.42-6.23-18.949-9.884-30.5-9.884-27.846 0-50.5 22.959-50.5 51 .64 31.92 18.381 62.187 51.3 87.046 8.744 6.603 19.222 9.904 29.7 9.904s20.957-3.301 29.7-9.904c32.919-24.859 50.66-55.126 51.3-87.046 0-28.041-22.654-51-50.5-51zm-24.905 106.125c-3.295 2.488-7.896 2.487-11.189 0-15.835-11.958-34.802-31.268-35.404-55.439.086-5.908 4.763-10.686 10.498-10.686 6.084 0 10.5 4.206 10.5 10 0 11.046 8.954 20 20 20s20-8.954 20-20c0-5.794 4.416-10 10.5-10 5.735 0 10.412 4.778 10.499 10.686-.603 24.171-19.569 43.481-35.404 55.439z"/><path d="m111.5 364c-11.448 0-22.021 3.85-30.5 10.328-8.479-6.478-19.052-10.328-30.5-10.328-27.846 0-50.5 22.813-50.5 50.854 0 .134.001.267.004.4.64 31.922 18.377 61.934 51.296 86.791 8.744 6.604 19.221 9.905 29.7 9.905 10.478-.001 20.958-3.303 29.7-9.904 32.919-24.858 50.656-54.87 51.296-86.792.003-.134.004-.267.004-.4 0-28.041-22.654-50.854-50.5-50.854zm-24.905 106.125c-3.295 2.486-7.896 2.487-11.189-.001-15.835-11.957-34.802-31.266-35.404-55.438.086-5.908 4.763-10.686 10.498-10.686 5.79 0 10.5 4.827 10.5 10.76 0 11.046 8.954 20 20 20s20-8.954 20-20c0-5.933 4.71-10.76 10.5-10.76 5.735 0 10.412 4.778 10.499 10.686-.603 24.172-19.569 43.481-35.404 55.439z"/><path d="m210 183.002s-27.307-.002-27.501-.002c-20.592 0-40.902 8.309-60.378 24.701-8.451 7.113-9.535 19.729-2.423 28.18 3.957 4.701 9.614 7.122 15.312 7.122 4.547 0 9.119-1.542 12.869-4.699 12.231-10.296 23.559-15.304 34.62-15.304.165 0 27.501.002 27.501.002 11.046 0 20-8.954 20-20s-8.954-20-20-20z"/><path d="m390.203 206.157c-20.455-15.754-41.432-23.527-62.399-23.141l-24.793-.013c-.004 0-.007 0-.011 0-11.04 0-19.994 8.948-20 19.989-.006 11.046 8.943 20.005 19.989 20.011 0 0 25.301.012 25.451.008 11.624-.261 24.238 4.735 37.356 14.837 3.636 2.801 7.929 4.156 12.188 4.156 5.993 0 11.921-2.683 15.86-7.797 6.741-8.752 5.11-21.31-3.641-28.05z"/></g></g></svg>