<svg id="Layer_1" enable-background="new 0 0 512 512" height="512" viewBox="0 0 512 512" width="512" xmlns="http://www.w3.org/2000/svg"><g><path d="m79.5 256c0-120.176 89.826-219.372 206-234.11-9.824-1.247-19.837-1.89-30-1.89-130.339 0-236 105.661-236 236s105.661 236 236 236c10.163 0 20.176-.643 30-1.89-116.174-14.738-206-113.934-206-234.11z" fill="#cee1f2"/><path d="m256 512c-68.38 0-132.667-26.629-181.02-74.98-48.351-48.353-74.98-112.64-74.98-181.02s26.629-132.667 74.98-181.02c48.353-48.351 112.64-74.98 181.02-74.98s132.667 26.629 181.02 74.98c48.351 48.353 74.98 112.64 74.98 181.02s-26.629 132.667-74.98 181.02c-48.353 48.351-112.64 74.98-181.02 74.98zm0-472c-119.103 0-216 96.897-216 216s96.897 216 216 216 216-96.897 216-216-96.897-216-216-216zm120.772 294.182-5.349-10.532c-6.047-11.906-17.035-20.204-30.146-22.768-13.024-2.546-26.236.969-36.237 9.646-15.654 13.584-32.657 20.472-50.538 20.472-41.99 0-66.88-38.35-67.127-38.737-5.93-9.319-18.291-12.066-27.61-6.136s-12.066 18.292-6.136 27.61c1.488 2.339 37.172 57.263 100.873 57.263 27.399 0 53.94-10.463 76.753-30.259.662-.573 1.452-.774 2.346-.601.675.132 1.597.521 2.158 1.625l5.474 10.778c.092.182.187.361.285.54 3.11 5.687 3.819 12.245 1.998 18.465s-5.958 11.359-11.645 14.469c-6.037 3.301-13.225 3.882-19.722 1.592-10.418-3.668-21.839 1.799-25.51 12.216-3.671 10.418 1.798 21.839 12.216 25.51 6.928 2.441 14.151 3.648 21.356 3.648 10.676 0 21.308-2.653 30.852-7.873 15.061-8.237 26.013-21.845 30.839-38.319 4.795-16.367 2.972-33.616-5.13-48.609z" fill="#0023c4"/><g fill="#ff5cf4"><g><path d="m237.5 175c0 .135.002-.135 0 0z"/><g><path d="m192.5 130c-8.577 0-17.368 2.06-24.876 6.059-10.284-5.465-20.98-6.059-25.124-6.059-24.813 0-45 20.11-45 45 .548 27.208 15.603 53.213 43.528 74.176 7.793 5.85 17.132 8.774 26.472 8.774s18.679-2.925 26.472-8.774c27.925-20.963 42.979-46.968 43.528-74.176 0-24.89-20.187-45-45-45zm-22.541 87.186c-1.448 1.086-3.47 1.086-4.917 0-12.306-9.237-27.04-24.038-27.54-42.193.076-2.767 2.289-4.992 4.998-4.992 1.871 0 3.853.419 5.207.887 1.399 9.676 9.728 17.112 19.793 17.112 10.006 0 18.296-7.349 19.768-16.943 1.478-.562 3.64-1.057 5.232-1.057 2.709 0 4.922 2.226 4.998 4.992-.499 18.155-15.234 32.956-27.539 42.194z"/><path d="m97.5 175c-.002-.135 0 .135 0 0z"/></g></g><g><path d="m274.5 174c-.002-.135 0 .135 0 0z"/><path d="m369.5 129c-8.625 0-17.464 2.082-25 6.125-7.536-4.043-16.375-6.125-25-6.125-24.813 0-45 20.11-45 45 .548 27.208 15.603 53.213 43.528 74.176 7.793 5.85 17.132 8.774 26.472 8.774s18.679-2.925 26.472-8.774c27.925-20.963 42.979-46.968 43.528-74.176 0-24.89-20.187-45-45-45zm-22.541 87.186c-1.448 1.086-3.47 1.086-4.917 0-12.306-9.237-27.04-24.038-27.54-42.193.076-2.767 2.289-4.992 4.998-4.992 1.592 0 3.754.495 5.232 1.057 1.472 9.593 9.762 16.942 19.768 16.942s18.296-7.349 19.768-16.943c1.478-.562 3.64-1.057 5.232-1.057 2.709 0 4.922 2.226 4.998 4.992-.499 18.155-15.234 32.956-27.539 42.194z"/></g><path d="m414.5 174c0 .135.002-.135 0 0z"/></g></g></svg>