<svg id="Layer_1" enable-background="new 0 0 512 512" height="512" viewBox="0 0 512 512" width="512" xmlns="http://www.w3.org/2000/svg"><g><path d="m80 256c0-120.176 89.826-219.372 206-234.11-9.824-1.247-19.837-1.89-30-1.89-130.339 0-236 105.661-236 236s105.661 236 236 236c10.163 0 20.176-.643 30-1.89-116.174-14.738-206-113.934-206-234.11z" fill="#cee1f2"/><path d="m256 512c-68.38 0-132.667-26.629-181.02-74.98-48.351-48.353-74.98-112.64-74.98-181.02s26.629-132.667 74.98-181.02c48.353-48.351 112.64-74.98 181.02-74.98s132.667 26.629 181.02 74.98c48.351 48.353 74.98 112.64 74.98 181.02s-26.629 132.667-74.98 181.02c-48.353 48.351-112.64 74.98-181.02 74.98zm0-472c-119.103 0-216 96.897-216 216s96.897 216 216 216 216-96.897 216-216-96.897-216-216-216zm162.953 294.64c7.913-12.305 8.084-27.689.449-40.152-5.771-9.418-18.086-12.376-27.502-6.605-8.081 4.95-11.405 14.718-8.543 23.34-8.867-2.351-15.928-8.618-25.943-17.993-12.145-11.368-27.26-25.517-50.158-27.038-18.977-1.255-37.614 5.504-51.235 18.574-13.626-13.098-32.279-19.878-51.277-18.613-23.143 1.538-37.737 15.838-49.464 27.327-9.388 9.198-16.034 15.359-24.609 17.691 2.854-8.62-.471-18.379-8.547-23.327-9.418-5.771-21.731-2.813-27.502 6.605-7.636 12.463-7.464 27.85.449 40.154 7.915 12.308 21.845 18.851 36.363 17.07 24.695-3.026 39.746-17.773 51.84-29.622 10.059-9.855 16.138-15.457 24.123-15.987 7.854-.522 15.538 2.286 21.078 7.707 7.816 7.647 20.133 12.217 27.526 12.217 7.44-.006 19.72-4.539 27.527-12.179 5.539-5.419 13.224-8.229 21.077-7.706 8.227.547 15.04 6.561 25.475 16.328 12.512 11.712 28.083 26.287 52.513 29.281 1.578.193 3.146.288 4.704.288 12.764-.001 24.601-6.39 31.656-17.36z" fill="#0023c4"/><path d="m168 166c13.807 0 25 11.193 25 25s-11.193 25-25 25-25-11.193-25-25 11.193-25 25-25zm151 25c0 13.807 11.193 25 25 25s25-11.193 25-25-11.193-25-25-25-25 11.193-25 25z" fill="#ff5cf3"/></g></svg>