<svg id="Layer_1" enable-background="new 0 0 512 512" height="512" viewBox="0 0 512 512" width="512" xmlns="http://www.w3.org/2000/svg"><g><path d="m426.174 93.986c-89.707-94.557-239.082-98.49-333.639-8.783-85.081 80.717-96.775 209.734-32.918 303.667.807-.649 9.525-7.525 13.249-10.076.233-.16.475-.334.719-.511-29.872-85.06-9.393-183.487 60.244-249.552 87.184-82.712 220.971-85.817 311.62-11.681-5.856-7.985-12.281-15.691-19.275-23.064z" fill="#cee1f2"/><path d="m455.981 400.003c-3.583 0-7.209-.962-10.481-2.981-9.401-5.799-12.32-18.121-6.521-27.522 21.603-35.02 33.021-74.267 33.021-113.5 0-119.103-96.897-216-216-216s-216 96.897-216 216c0 39.233 11.418 78.48 33.021 113.499 5.799 9.401 2.88 21.724-6.521 27.522-9.4 5.798-21.723 2.88-27.522-6.521-25.499-41.335-38.978-87.845-38.978-134.5 0-68.38 26.629-132.667 74.98-181.02 48.353-48.351 112.64-74.98 181.02-74.98s132.667 26.629 181.02 74.98c48.351 48.353 74.98 112.64 74.98 181.02 0 46.655-13.479 93.165-38.979 134.501-3.78 6.128-10.332 9.502-17.04 9.502zm-139.043 104.378c10.704-2.728 17.169-13.615 14.442-24.319-2.728-10.704-13.617-17.168-24.319-14.442-17.084 4.353-33.309 6.38-51.061 6.38s-33.977-2.027-51.062-6.381c-10.704-2.724-21.592 3.738-24.319 14.442s3.739 21.592 14.442 24.319c20.122 5.128 40.055 7.62 60.939 7.62s40.817-2.492 60.938-7.619zm10.935-167.118c-1.072-1.686-26.788-41.263-72.873-41.263s-71.801 39.577-72.873 41.263c-5.93 9.318-3.183 21.681 6.135 27.61 3.329 2.118 7.045 3.13 10.719 3.13 6.61-.001 13.081-3.275 16.892-9.266.145-.227 15.141-22.737 39.127-22.737s38.982 22.51 39.127 22.737c3.812 5.99 10.282 9.265 16.892 9.266 3.674 0 7.39-1.012 10.719-3.13 9.318-5.93 12.065-18.292 6.135-27.61z" fill="#0023c4"/><path d="m127 512c-11.046 0-20-8.954-20-20v-209c0-11.046 8.954-20 20-20s20 8.954 20 20v209c0 11.046-8.954 20-20 20zm278-20v-209c0-11.046-8.954-20-20-20s-20 8.954-20 20v209c0 11.046 8.954 20 20 20s20-8.954 20-20zm-257.121-263.699c12.066-10.156 23.716-15.303 34.635-15.303.162 0 27.486.002 27.486.002 11.046 0 20-8.954 20-20s-8.954-20-20-20h-26.923c-20.782-.206-41.298 8.152-60.957 24.699-8.45 7.112-9.535 19.729-2.422 28.18 3.956 4.7 9.614 7.121 15.312 7.121 4.547 0 9.118-1.542 12.869-4.699zm245.967-4.097c6.739-8.751 5.109-21.309-3.643-28.049-20.457-15.754-41.458-23.534-62.402-23.141l-24.79-.014c-.004 0-.007 0-.011 0-11.04 0-19.994 8.947-20 19.989-.006 11.046 8.943 20.005 19.989 20.011 0 0 25.301.012 25.451.009 11.67-.244 24.24 4.734 37.357 14.837 3.636 2.8 7.928 4.155 12.189 4.155 5.992.001 11.92-2.682 15.86-7.797z" fill="#ff5cf4"/></g></svg>