<svg id="Layer_1" enable-background="new 0 0 512 512" height="512" viewBox="0 0 512 512" width="512" xmlns="http://www.w3.org/2000/svg"><g><path d="m80 256c0-120.176 89.826-219.372 206-234.11-9.824-1.247-19.837-1.89-30-1.89-130.339 0-236 105.661-236 236s105.661 236 236 236c10.163 0 20.176-.643 30-1.89-116.174-14.738-206-113.934-206-234.11z" fill="#cee1f2"/><path d="m256 512c-68.38 0-132.667-26.629-181.02-74.98-48.351-48.353-74.98-112.64-74.98-181.02s26.629-132.667 74.98-181.02c48.353-48.351 112.64-74.98 181.02-74.98s132.667 26.629 181.02 74.98c48.351 48.353 74.98 112.64 74.98 181.02s-26.629 132.667-74.98 181.02c-48.353 48.351-112.64 74.98-181.02 74.98zm0-472c-119.103 0-216 96.897-216 216s96.897 216 216 216 216-96.897 216-216-96.897-216-216-216zm99.875 314.263c-1.487-2.339-37.171-57.263-100.873-57.263s-99.385 54.924-100.873 57.263c-5.93 9.319-3.183 21.68 6.136 27.61 9.319 5.931 21.681 3.184 27.61-6.136.247-.387 25.138-38.737 67.127-38.737s66.88 38.35 67.127 38.737c5.93 9.319 18.291 12.066 27.61 6.136 9.32-5.93 12.067-18.291 6.136-27.61z" fill="#0023c4"/><path d="m329.609 252.999c-11.575 0-22.751-4.627-31.104-13.148-10.531-10.744-14.769-25.855-11.336-40.422 3.564-15.128 9.434-30.014 17.446-44.242 5.42-9.624 17.616-13.033 27.24-7.613 9.625 5.419 13.034 17.615 7.614 27.24-6.167 10.951-10.664 22.32-13.367 33.79-.285 1.209.042 2.302.969 3.249.656.669 1.768 1.393 3.346 1.058 12.604-2.705 23.647-7.045 32.822-12.901 9.312-5.94 21.676-3.211 27.619 6.1 5.942 9.312 3.211 21.677-6.1 27.619-13.208 8.43-28.668 14.584-45.951 18.292-3.062.656-6.144.978-9.198.978zm-116.114-13.148c10.531-10.744 14.769-25.855 11.336-40.421-3.564-15.129-9.434-30.015-17.446-44.243-5.42-9.624-17.616-13.034-27.24-7.613-9.625 5.419-13.034 17.615-7.614 27.24 6.167 10.951 10.664 22.32 13.367 33.791.285 1.208-.042 2.301-.969 3.248-.655.668-1.767 1.392-3.345 1.058-12.604-2.705-23.647-7.045-32.823-12.901-9.312-5.942-21.677-3.211-27.619 6.1-5.942 9.312-3.211 21.677 6.1 27.619 13.208 8.43 28.668 14.584 45.951 18.292 3.065.658 6.145.98 9.2.979 11.572-.001 22.75-4.628 31.102-13.149z" fill="#ff5cf3"/></g></svg>