<svg id="Layer_1" enable-background="new 0 0 512 512" height="512" viewBox="0 0 512 512" width="512" xmlns="http://www.w3.org/2000/svg"><g><path d="m286 490.11c-9.824 1.247-19.837 1.89-30 1.89-130.339 0-236-105.661-236-236s105.661-236 236-236c10.163 0 20.176.643 30 1.89-116.174 14.738-206 113.934-206 234.11s89.826 219.372 206 234.11zm-51.406-136.016c9.506-15.466 25.314-31.348 51.406-38.368-8.784-2.364-18.731-3.725-30-3.725-44.738 0-68.699 21.421-81.406 42.094-10.188 16.573 1.958 37.905 21.414 37.905h60c-19.456 0-31.602-21.332-21.414-37.906z" fill="#cee1f2"/><path d="m256 512c-68.38 0-132.667-26.629-181.02-74.98-48.351-48.353-74.98-112.64-74.98-181.02s26.629-132.667 74.98-181.02c48.353-48.351 112.64-74.98 181.02-74.98 35.454 0 69.789 7.117 102.05 21.154 10.128 4.406 14.767 16.189 10.36 26.318-4.407 10.128-16.188 14.767-26.319 10.359-27.196-11.831-56.161-17.831-86.091-17.831-119.103 0-216 96.897-216 216s96.897 216 216 216 216-96.897 216-216c0-10.17-.701-20.64-2.025-30.275-1.505-10.942 6.146-21.033 17.089-22.538 10.944-1.498 21.034 6.146 22.538 17.089 1.569 11.41 2.398 23.763 2.398 35.724 0 68.38-26.629 132.667-74.98 181.02-48.353 48.351-112.64 74.98-181.02 74.98zm99.342-123.103c8.033-14.367 7.697-31.293-.898-45.277-14.475-23.549-43.304-51.62-98.444-51.62s-83.969 28.071-98.444 51.62c-8.595 13.984-8.931 30.91-.898 45.277 7.968 14.25 23.045 23.103 39.35 23.103h119.984c16.305 0 31.383-8.853 39.35-23.103zm-34.975-24.33c1.191 1.937.691 3.685.062 4.81-.548.979-1.853 2.623-4.437 2.623h-119.984c-2.584 0-3.889-1.644-4.437-2.623-.629-1.125-1.129-2.873.062-4.81 13.283-21.61 34.939-32.567 64.367-32.567s51.084 10.957 64.367 32.567zm117.734-172.348c-5.222 0-10.438-2.032-14.36-6.077-7.689-7.93-7.494-20.592.436-28.281l41.107-39.861h-33.82c-14.494 0-27.379-8.682-32.827-22.117-5.451-13.442-2.248-28.654 8.159-38.755l50.984-49.48c7.926-7.691 20.588-7.502 28.281.424 7.692 7.927 7.503 20.588-.424 28.281l-42.913 41.647h33.828c14.466 0 27.342 8.659 32.803 22.06 5.464 13.406 2.305 28.607-8.047 38.726l-49.287 47.792c-3.884 3.766-8.905 5.641-13.92 5.641z" fill="#0023c4"/><g fill="#ff5cf4"><path d="m391.833 172.425c-1.423-10.954-11.459-18.691-22.409-17.258-26.288 3.413-46.513 13.236-60.91 28.194-8.127 8.118-12.607 18.915-12.607 30.402 0 21.288 9.81 39.146 31.683 39.146 13.807 0 25-11.193 25-25 0-8.664-4.408-16.297-11.103-20.782 7.645-6.499 18.059-10.342 33.088-12.293 10.954-1.423 18.681-11.456 17.258-22.409z"/><path d="m142.575 155.167c-10.953-1.428-20.987 6.304-22.409 17.258-1.422 10.953 6.304 20.986 17.258 22.409 15.028 1.951 25.442 5.794 33.088 12.293-6.695 4.486-11.103 12.118-11.103 20.782 0 13.807 11.193 25 25 25 19.565 0 31.683-16.217 31.683-39.146 0-11.487-4.48-22.284-12.609-30.405-14.397-14.959-34.62-24.778-60.908-28.191z"/></g></g></svg>