<svg id="Layer_1" enable-background="new 0 0 512 512" height="512" viewBox="0 0 512 512" width="512" xmlns="http://www.w3.org/2000/svg"><g><path d="m80 256c0-120.176 89.826-219.372 206-234.11-9.824-1.247-19.837-1.89-30-1.89-130.339 0-236 105.661-236 236s105.661 236 236 236c10.163 0 20.176-.643 30-1.89-116.174-14.738-206-113.934-206-234.11z" fill="#cee1f2"/><path d="m256 512c-68.38 0-132.667-26.629-181.02-74.98-48.351-48.353-74.98-112.64-74.98-181.02s26.629-132.667 74.98-181.02c48.353-48.351 112.64-74.98 181.02-74.98s132.667 26.629 181.02 74.98c48.351 48.353 74.98 112.64 74.98 181.02s-26.629 132.667-74.98 181.02c-48.353 48.351-112.64 74.98-181.02 74.98zm0-472c-119.103 0-216 96.897-216 216s96.897 216 216 216 216-96.897 216-216-96.897-216-216-216zm28.285 306 35.857-35.857c7.811-7.811 7.811-20.475 0-28.285s-20.474-7.811-28.284 0l-35.858 35.857-35.858-35.858c-7.811-7.811-20.474-7.811-28.284 0s-7.811 20.475 0 28.285l35.857 35.858-35.857 35.857c-7.811 7.811-7.811 20.475 0 28.285 3.905 3.906 9.023 5.858 14.142 5.858s10.237-1.952 14.142-5.857l35.858-35.858 35.858 35.858c3.905 3.905 9.023 5.857 14.142 5.857s10.237-1.952 14.142-5.857c7.811-7.811 7.811-20.475 0-28.285z" fill="#0023c4"/><path d="m168 166c13.807 0 25 11.193 25 25s-11.193 25-25 25-25-11.193-25-25 11.193-25 25-25zm151 25c0 13.807 11.193 25 25 25s25-11.193 25-25-11.193-25-25-25-25 11.193-25 25z" fill="#ff5cf3"/></g></svg>