<svg id="Layer_1" enable-background="new 0 0 512 512" height="512" viewBox="0 0 512 512" width="512" xmlns="http://www.w3.org/2000/svg"><g><path d="m80 256c0-120.176 89.826-219.372 206-234.11-9.824-1.247-19.837-1.89-30-1.89-130.339 0-236 105.661-236 236s105.661 236 236 236c10.163 0 20.176-.643 30-1.89-116.174-14.738-206-113.934-206-234.11z" fill="#cee1f2"/><path d="m256 512c-68.38 0-132.667-26.629-181.02-74.98-48.351-48.353-74.98-112.64-74.98-181.02s26.629-132.667 74.98-181.02c48.353-48.351 112.64-74.98 181.02-74.98s132.667 26.629 181.02 74.98c48.351 48.353 74.98 112.64 74.98 181.02s-26.629 132.667-74.98 181.02c-48.353 48.351-112.64 74.98-181.02 74.98zm0-472c-119.103 0-216 96.897-216 216s96.897 216 216 216 216-96.897 216-216-96.897-216-216-216zm92 321c0-11.046-8.954-20-20-20h-144c-11.046 0-20 8.954-20 20s8.954 20 20 20h144c11.046 0 20-8.954 20-20z" fill="#0023c4"/><path d="m331.85 283.042c-1.744 0-29.839-.042-29.839-.042-.003 0-.007 0-.011 0-11.041 0-19.994-8.946-20-19.989-.006-11.046 8.943-20.005 19.989-20.011l25-.014c.129.004.3.002.451.005 22.887.505 32.946-3.443 37.366-6.844 8.755-6.735 21.313-5.097 28.047 3.658 6.735 8.755 5.097 21.313-3.658 28.047-16.932 13.024-39.852 15.19-57.345 15.19zm-151.321-.035c-26.124 0-46.077-5.596-59.333-16.643-8.485-7.071-9.632-19.683-2.561-28.168s19.683-9.632 28.168-2.561c5.707 4.755 18.802 7.487 35.019 7.365h.178 27c11.046 0 20 8.954 20 20s-8.954 20-20 20c0 0-27.958.007-28.471.007z" fill="#ff5cf4"/></g></svg>