<svg id="Layer_1" enable-background="new 0 0 512 512" height="512" viewBox="0 0 512 512" width="512" xmlns="http://www.w3.org/2000/svg"><g><path d="m457.78 143.738c-39.567-23.316-67.545-58.478-84.915-85.899-2.738-4.322-4.383-8.951-5.05-13.608l-19.323 4.93c-22.752 5.804-33.155 32.117-20.59 51.953 17.37 27.421 45.349 62.583 84.915 85.899 19.863 11.705 45.406.834 50.917-21.552l4.359-17.708c-3.516-.748-6.994-2.06-10.313-4.015z" fill="#cee1f2"/><path d="m256 512c-29.483 0-58.396-4.975-85.933-14.785-26.613-9.482-51.354-23.256-73.534-40.938-8.637-6.886-10.057-19.469-3.171-28.106s19.47-10.057 28.106-3.171c38.569 30.747 85.09 47 134.532 47 119.103 0 216-96.897 216-216 0-11.046 8.954-20 20-20s20 8.954 20 20c0 68.38-26.628 132.667-74.98 181.02-48.352 48.351-112.64 74.98-181.02 74.98zm-213.501-288.974c15.97-104.342 107.756-183.026 213.501-183.026 11.046 0 20-8.954 20-20s-8.954-20-20-20c-61.55 0-121.042 22.165-167.515 62.412-45.993 39.831-76.367 94.722-85.526 154.562-1.671 10.919 5.826 21.125 16.744 22.796 1.025.157 2.044.233 3.051.233 9.709 0 18.23-7.084 19.745-16.977zm408.834-15.537c16.059-6.76 27.657-20.337 31.82-37.248l27.497-111.707c3.985-16.19-.704-32.866-12.544-44.607-11.839-11.74-28.555-16.291-44.711-12.169 0 0 0 0-.001.001l-109.847 28.022c-17.104 4.363-30.651 16.272-37.167 32.673-6.526 16.426-4.84 34.418 4.626 49.362 17.714 27.964 47.995 66.698 91.657 92.427 8.529 5.026 17.972 7.567 27.486 7.567 7.142.001 14.324-1.432 21.184-4.321zm11.95-166.972c3.344-.852 5.607.771 6.659 1.813 1.052 1.043 2.693 3.293 1.868 6.644l-27.497 111.707c-1.111 4.513-4.208 8.137-8.5 9.942-4.231 1.783-8.912 1.474-12.843-.841-36.789-21.679-62.817-55.128-78.174-79.37-2.532-3.998-2.985-8.805-1.243-13.189 1.731-4.357 5.333-7.522 9.881-8.684zm-207.283 325.551c.004-11.046-8.947-20.003-19.993-20.007l-176.007-.061c-11.028 0-20-8.972-20-20s8.972-20 20-20c4.825 0 9.927 2.29 13.999 6.281 7.888 7.733 20.55 7.608 28.283-.28 7.732-7.887 7.607-20.55-.28-28.282-11.655-11.426-26.571-17.719-42.002-17.719-33.084 0-60 26.916-60 60s26.916 60 59.993 60l176 .062h.007c11.042 0 19.997-8.951 20-19.994z" fill="#0023c4"/><path d="m134.011 264.002c-5.698 0-11.355-2.421-15.312-7.121-7.113-8.451-6.028-21.067 2.423-28.181 19.658-16.544 40.167-24.889 60.953-24.698h26.925c11.046 0 20 8.954 20 20s-8.954 20-20 20c0 0-27.322-.002-27.482-.002-10.92 0-22.572 5.147-34.639 15.304-3.75 3.156-8.322 4.698-12.868 4.698zm242.975-1c-4.261 0-8.553-1.355-12.189-4.155-13.116-10.102-25.664-15.068-37.357-14.837-.15.003-25.451-.009-25.451-.009-11.046-.006-19.995-8.965-19.989-20.011.006-11.042 8.959-19.989 20-19.989h.011l24.791.014c20.96-.379 41.946 7.388 62.401 23.141 8.751 6.74 10.382 19.298 3.642 28.049-3.938 5.114-9.866 7.797-15.859 7.797zm-376.986-238.002c0 13.807 11.193 25 25 25s25-11.193 25-25-11.192-25-25-25-25 11.193-25 25zm340 336c0 13.807 11.193 25 25 25s25-11.193 25-25-11.193-25-25-25-25 11.193-25 25zm122 105c0 13.807 11.193 25 25 25s25-11.193 25-25-11.193-25-25-25-25 11.193-25 25z" fill="#ff5cf4"/></g></svg>