<?xml version="1.0" encoding="utf-8"?>
<!-- Generator: Adobe Illustrator 18.1.1, SVG Export Plug-In . SVG Version: 6.00 Build 0)  -->
<!DOCTYPE svg PUBLIC "-//W3C//DTD SVG 1.1//EN" "http://www.w3.org/Graphics/SVG/1.1/DTD/svg11.dtd">
<svg version="1.1" id="Layer_1" xmlns="http://www.w3.org/2000/svg" xmlns:xlink="http://www.w3.org/1999/xlink" x="0px" y="0px"
	 viewBox="0 0 64 64" enable-background="new 0 0 64 64" xml:space="preserve">
<g>
	<path d="M21.2,31.6c0.5-1.2,1-2.2,1.8-3.1c1.7-2,3.9-3.1,6.6-3.3c3.7-0.3,6.7,1.1,9.4,3.5c1.1,1,2.1,2.1,3,3.3
		c0.2,0.2,0.3,0.3,0.5,0c1.2-1.5,2.5-2.9,4-4.1c1.7-1.4,3.7-2.4,5.9-2.6c5.5-0.6,10.1,2.4,11.3,8.1c0.5,2.4,0.3,4.8-0.5,7.1
		c-1.5,4.3-5.1,6.7-9.6,6.7c-2.8,0-5.1-1.1-7.3-2.7c-1.4-1.1-2.6-2.3-3.8-3.7c-0.2-0.2-0.3-0.3-0.5,0c-1.2,1.2-2.3,2.5-3.6,3.6
		c-1.7,1.4-3.5,2.4-5.7,2.7c-3.9,0.5-7.2-0.5-9.8-3.5c-0.6-0.7-1-1.5-1.4-2.3c0-0.1-0.2-0.3-0.2-0.3c-0.5,1.1-1.1,2.1-2,3
		c-2.1,2.2-4.6,3.4-7.7,3.5c-2.2,0.1-4.3-0.2-6.3-1.1c-3.3-1.6-5.2-4.2-5.4-7.9c0-0.3,0.1-0.4,0.3-0.4h5.4c0.3,0,0.3,0.1,0.4,0.3
		c0.3,2,1.4,3.5,3.5,4c2.9,0.7,5.5-0.9,6.3-3.9c0.5-2,0.3-3.9-1-5.6c-0.9-1.1-2.1-1.6-3.5-1.7c-2-0.1-3.7,0.5-4.9,2.2
		c-0.1,0.2-0.2,0.2-0.4,0.2c-1.6,0-3.2,0-4.9,0C1,33.3,0.9,33.2,1,33c0.8-4.7,1.7-9.3,2.5-14c0.1-0.6,0.2-1.3,0.3-1.9
		c0-0.2,0.1-0.3,0.3-0.3c5.4,0,10.7,0,16.1,0c0.3,0,0.3,0.1,0.3,0.3v4.3c0,0.3-0.1,0.4-0.4,0.4c-3.8,0-7.7,0-11.5,0
		c-0.3,0-0.5,0-0.5,0.4c-0.3,2-0.7,4.1-1.1,6.1c0,0.1-0.1,0.2,0,0.3c0.1,0.1,0.2-0.1,0.2-0.1c1.8-1.7,3.9-2.2,6.3-2.1
		c2.3,0.1,4.2,1,5.8,2.6c0.7,0.7,1.2,1.5,1.6,2.3C21.1,31.4,21.2,31.5,21.2,31.6z M58.4,36c0-0.2,0-0.5-0.1-0.8
		c-0.3-2.7-2.6-4.5-5.3-4.1c-1.4,0.2-2.6,0.9-3.7,1.7C48.1,33.8,47,35,46,36.1c-0.1,0.1-0.1,0.2,0,0.3c0.7,0.8,1.5,1.7,2.4,2.4
		c1.5,1.2,3,2.1,4.9,2.2c2.2,0.2,3.9-0.8,4.7-2.8C58.3,37.6,58.4,36.9,58.4,36z M26.1,36.3c0,0.1,0,0.4,0,0.6
		c0.2,2.1,1.6,3.7,3.6,4.1c1.1,0.2,2.2,0.1,3.3-0.4c2.3-0.9,4-2.5,5.5-4.2c0.1-0.1,0.1-0.2,0-0.3c-1.1-1.2-2.3-2.3-3.6-3.3
		c-0.9-0.7-1.9-1.3-3-1.5c-1.7-0.4-3.2-0.2-4.5,1.2C26.6,33.5,26.1,34.8,26.1,36.3z"/>
</g>
</svg>
