<?xml version="1.0" encoding="utf-8"?>
<!-- Generator: Adobe Illustrator 18.1.1, SVG Export Plug-In . SVG Version: 6.00 Build 0)  -->
<!DOCTYPE svg PUBLIC "-//W3C//DTD SVG 1.1//EN" "http://www.w3.org/Graphics/SVG/1.1/DTD/svg11.dtd">
<svg version="1.1" id="Layer_1" xmlns="http://www.w3.org/2000/svg" xmlns:xlink="http://www.w3.org/1999/xlink" x="0px" y="0px"
	 viewBox="0 0 64 64" enable-background="new 0 0 64 64" xml:space="preserve">
<g id="aim">
	<g>
		<path d="M41.5,18.8c5.2,0,9.4-4.2,9.4-9.4c0-5.2-4.2-9.4-9.4-9.4c-5.2,0-9.4,4.2-9.4,9.4C32.1,14.6,36.3,18.8,41.5,18.8z
			 M38.5,33.4c15,0.9,21.5-1.7,21.5-1.7l-1.4-8.9c0,0-17.5,5.8-25.5-4.2c-0.4-0.1-1,0.4-1,0.4C23.8,26.2,27.9,46.1,4,47.3
			c0.3,4.2,1.2,10.5,1.2,10.5s18.8-2.1,26.5-12.5C41.5,53.8,47.2,64,47.2,64l8.7-4.6C55.9,59.4,50.6,44.5,38.5,33.4z"/>
	</g>
</g>
</svg>
