<?xml version="1.0" encoding="utf-8"?>
<!-- Generator: Adobe Illustrator 18.1.1, SVG Export Plug-In . SVG Version: 6.00 Build 0)  -->
<!DOCTYPE svg PUBLIC "-//W3C//DTD SVG 1.1//EN" "http://www.w3.org/Graphics/SVG/1.1/DTD/svg11.dtd">
<svg version="1.1" id="Layer_1" xmlns="http://www.w3.org/2000/svg" xmlns:xlink="http://www.w3.org/1999/xlink" x="0px" y="0px"
	 viewBox="0 0 64 64" enable-background="new 0 0 64 64" xml:space="preserve">
<path fill-rule="evenodd" clip-rule="evenodd" d="M36.7,18.7c-6.9,0.2-24.2,2.2-24.2,16.8c0,15.6,19.7,16.3,26.2,6.2
	c0.2,0.4,0.5,0.8,0.9,1.2c2.4,2.5,5.6,5.5,5.6,5.5l8.1-8c0,0-4.6-3.6-4.6-7.5c0-3.9,0-17.4,0-21c0-3.6-3.5-11.8-16-11.8
	C20.1,0,13.4,7.8,13.4,14.9l10.5,0.9c0,0,2.3-7.1,7.8-7.1s5.1,4.4,5.1,5.3C36.7,14.4,36.7,16.2,36.7,18.7z M36.7,31.1
	c0,11.5-12,9.7-12,2.5c0-6.7,7.2-8.1,12-8.2C36.7,27.3,36.7,29.3,36.7,31.1z M55.4,52.7c-26.4,12.5-42.7,2-53.2-4.3
	c-0.6-0.4-1.8,0.1-0.8,1.2C4.9,53.8,16.3,64,31.2,64c14.9,0,23.8-8.2,24.9-9.6C57.3,53,56.5,52.2,55.4,52.7z M62.8,48.6
	c-0.7-0.9-4.3-1.1-6.6-0.8c-2.3,0.3-5.7,1.7-5.4,2.5c0.1,0.3,0.5,0.2,2,0c1.6-0.2,5.9-0.7,6.9,0.5c0.9,1.2-1.4,6.9-1.8,7.8
	c-0.4,0.9,0.2,1.2,0.9,0.5c0.8-0.6,2.1-2.2,3-4.5C62.8,52.5,63.3,49.3,62.8,48.6z"/>
</svg>
