<?xml version="1.0" encoding="utf-8"?>
<!-- Generator: Adobe Illustrator 18.1.1, SVG Export Plug-In . SVG Version: 6.00 Build 0)  -->
<!DOCTYPE svg PUBLIC "-//W3C//DTD SVG 1.1//EN" "http://www.w3.org/Graphics/SVG/1.1/DTD/svg11.dtd">
<svg version="1.1" id="Layer_1" xmlns="http://www.w3.org/2000/svg" xmlns:xlink="http://www.w3.org/1999/xlink" x="0px" y="0px"
	 viewBox="0 0 64 64" enable-background="new 0 0 64 64" xml:space="preserve">
<g>
	<path d="M40.6,5.9l2.8-5c0.2-0.3,0.1-0.6-0.2-0.8C43-0.1,42.6,0,42.5,0.3l-2.9,5.1c-2.3-1-4.9-1.5-7.6-1.5c-2.7,0-5.3,0.5-7.6,1.5
		l-2.9-5.1C21.4,0,21-0.1,20.7,0.1c-0.3,0.2-0.4,0.5-0.2,0.8l2.8,5c-5.5,2.7-9.2,8-9.2,14v0.3h35.6v-0.3
		C49.8,13.8,46.1,8.6,40.6,5.9z M23.8,13.8c-0.9,0-1.6-0.7-1.6-1.6c0-0.9,0.7-1.6,1.6-1.6c0.9,0,1.6,0.7,1.6,1.6
		C25.5,13.1,24.7,13.8,23.8,13.8z M40.2,13.8c-0.9,0-1.6-0.7-1.6-1.6c0-0.9,0.7-1.6,1.6-1.6c0.9,0,1.6,0.7,1.6,1.6
		C41.8,13.1,41.1,13.8,40.2,13.8z"/>
	<path d="M14.2,37.5v9.8c0,2.3,1.8,4.1,4.1,4.1h3.1v8.6c0,2.2,1.8,3.9,3.9,3.9s3.9-1.8,3.9-3.9v-8.6h5.5v8.6c0,2.2,1.8,3.9,3.9,3.9
		c2.2,0,3.9-1.8,3.9-3.9v-8.6h3.1c2.3,0,4.1-1.8,4.1-4.1v-9.8v-16H14.2V37.5z"/>
	<path d="M55.2,20.7c-2.2,0-3.9,1.8-3.9,3.9v16.6c0,2.2,1.8,3.9,3.9,3.9c2.2,0,3.9-1.8,3.9-3.9V24.7C59.1,22.5,57.3,20.7,55.2,20.7z
		"/>
	<path d="M8.8,20.7c-2.2,0-3.9,1.8-3.9,3.9v16.6c0,2.2,1.8,3.9,3.9,3.9c2.2,0,3.9-1.8,3.9-3.9V24.7C12.7,22.5,11,20.7,8.8,20.7z"/>
</g>
</svg>
