<?xml version="1.0" encoding="utf-8"?>
<!-- Generator: Adobe Illustrator 18.1.1, SVG Export Plug-In . SVG Version: 6.00 Build 0)  -->
<!DOCTYPE svg PUBLIC "-//W3C//DTD SVG 1.1//EN" "http://www.w3.org/Graphics/SVG/1.1/DTD/svg11.dtd">
<svg version="1.1" id="Layer_1" xmlns="http://www.w3.org/2000/svg" xmlns:xlink="http://www.w3.org/1999/xlink" x="0px" y="0px"
	 viewBox="0 0 64 64" enable-background="new 0 0 64 64" xml:space="preserve">
<g>
	<path d="M26.3,30.9l5.4-9.4c0.4-0.7,0.2-1.6-0.5-2l-3.9-2.2c-0.7-0.4-1.6-0.2-2,0.5l-5.9,10.3l0,0l-6.5,11.3l0,0l-5.4,9.5
		c-0.4,0.7-0.2,1.6,0.5,2l3.9,2.2c0.7,0.4,1.6,0.2,2-0.5l7.6-13.2l0,0L26.3,30.9z"/>
	<path d="M62.7,28.1h-13c1.5,2.9,3,5.6,4,7.5c0.7,1.3,1.2,2.4,1.4,2.7c0.2,0.4,0.3,0.8,0.4,1.1h7.2c0.7,0,1.3-0.6,1.3-1.3v-8.7
		C64,28.7,63.4,28.1,62.7,28.1z"/>
	<path d="M31,28.1l-6.5,11.3h17.7c-1.3-2.5-3-6.2-5.3-11.3H31z"/>
	<path d="M16.3,28.1h-15c-0.7,0-1.3,0.6-1.3,1.3v8.7c0,0.7,0.6,1.3,1.3,1.3h8.5L16.3,28.1z"/>
	<path d="M10.6,54.8l-3.9-2.2c-0.7-0.4-1.4-0.1-1.5,0.7l-0.7,5.8c-0.1,0.8,0.4,1.1,1.1,0.6l5-3.4C11.3,55.9,11.3,55.2,10.6,54.8z"/>
	<path d="M52.7,39.5c0,0-0.1-0.1-0.1-0.1l0,0c-0.4-0.7-1.3-2.4-2.4-4.6c0,0,0-0.1,0-0.1c-0.1-0.2-0.2-0.3-0.3-0.5
		c-0.1-0.1-0.1-0.3-0.2-0.4c-0.1-0.1-0.1-0.2-0.2-0.3c-0.1-0.2-0.2-0.4-0.3-0.6c0-0.1-0.1-0.1-0.1-0.2c-0.1-0.2-0.2-0.5-0.4-0.7
		c0-0.1-0.1-0.1-0.1-0.2c-2.7-5.1-6.1-11.5-8.2-14.8c-3.7-5.8-8.6-15.5-10-14.8c-1.9,1,4,13.3,6,17.9c2,4.6,9.7,22.4,11.2,23.1
		c1.5,0.8,2.1,0.3,3.2-0.1C51.8,42.7,53.6,41.3,52.7,39.5z"/>
	<path d="M57.1,48.7l-1.8-3.5c-0.4-0.8-1.4-1.1-2.2-0.7l-2.2,1.1c-0.8,0.4-1,1.3-0.5,2.1l2.3,3.7c0.5,0.8,1.5,1,2.2,0.6l1.6-0.9
		C57.2,50.5,57.5,49.5,57.1,48.7z"/>
	<path d="M56.5,53.8c-0.6,0.4-2,1.8-0.3,4.1c1.7,2.3,5.4,2.4,5.9,4C62.1,61.9,63.2,50,56.5,53.8z"/>
</g>
</svg>
