<?xml version="1.0" encoding="utf-8"?>
<!-- Generator: Adobe Illustrator 18.1.1, SVG Export Plug-In . SVG Version: 6.00 Build 0)  -->
<!DOCTYPE svg PUBLIC "-//W3C//DTD SVG 1.1//EN" "http://www.w3.org/Graphics/SVG/1.1/DTD/svg11.dtd">
<svg version="1.1" id="Layer_1" xmlns="http://www.w3.org/2000/svg" xmlns:xlink="http://www.w3.org/1999/xlink" x="0px" y="0px"
	 viewBox="0 0 64 64" enable-background="new 0 0 64 64" xml:space="preserve">
<path d="M49.5,34c-0.1-8.1,6.6-12,6.9-12.2c-3.8-5.5-9.6-6.3-11.7-6.3c-5-0.5-9.7,2.9-12.3,2.9c-2.5,0-6.4-2.9-10.6-2.8
	c-5.4,0.1-10.4,3.2-13.2,8C3,33.4,7.2,48,12.7,55.9c2.7,3.9,5.9,8.3,10.1,8.1c4.1-0.2,5.6-2.6,10.5-2.6c4.9,0,6.3,2.6,10.6,2.5
	c4.4-0.1,7.1-4,9.8-7.9c3.1-4.5,4.4-8.9,4.4-9.1C58,46.9,49.6,43.7,49.5,34z M41.4,10.2c2.2-2.7,3.7-6.5,3.3-10.2
	c-3.2,0.1-7.1,2.1-9.4,4.8c-2.1,2.4-3.9,6.2-3.4,9.9C35.5,15,39.2,12.9,41.4,10.2z"/>
</svg>
