<?xml version="1.0" encoding="utf-8"?>
<!-- Generator: Adobe Illustrator 18.1.1, SVG Export Plug-In . SVG Version: 6.00 Build 0)  -->
<!DOCTYPE svg PUBLIC "-//W3C//DTD SVG 1.1//EN" "http://www.w3.org/Graphics/SVG/1.1/DTD/svg11.dtd">
<svg version="1.1" id="Layer_1" xmlns="http://www.w3.org/2000/svg" xmlns:xlink="http://www.w3.org/1999/xlink" x="0px" y="0px"
	 viewBox="0 0 64 64" enable-background="new 0 0 64 64" xml:space="preserve">
<g>
	<path d="M26.5,30.6c3.4-1.7,4.9-4.4,4.9-8.3c0-7.4-5.5-10.2-13-10.2H0v39.7h18.5c7.1,0,14.1-3.5,14.1-11.5
		C32.6,35.7,30.9,32.1,26.5,30.6z M9.2,18.9h8.1c3.1,0,6.1,0.8,6.1,4.6c0,3.1-2.3,4.3-5.3,4.3H9.2V18.9z M18,45H9.2V34.4h9
		c3.7,0,6.1,1.4,6.1,5.5C24.3,43.7,21.4,45,18,45z"/>
	<path d="M50.3,21.4c-9.9,0-14.6,6.6-14.6,15.2c0,9.8,5.9,15.1,14.6,15.1c6.5,0,11.2-2.6,13.4-9.3h-7.7c-0.5,1.8-3,3.3-5.4,3.3
		c-4.4,0-7.1-2.4-7.3-7.2H64C64.5,29.6,60.4,21.4,50.3,21.4z M43.4,33.6c0.1-2.2,1.4-6,6.4-6c3.8,0,5.7,2,6.5,6H43.4z"/>
	<rect x="41.7" y="13.7" width="16.1" height="4"/>
</g>
</svg>
