<?xml version="1.0" encoding="utf-8"?>
<!-- Generator: Adobe Illustrator 18.1.1, SVG Export Plug-In . SVG Version: 6.00 Build 0)  -->
<!DOCTYPE svg PUBLIC "-//W3C//DTD SVG 1.1//EN" "http://www.w3.org/Graphics/SVG/1.1/DTD/svg11.dtd">
<svg version="1.1" id="Layer_1" xmlns="http://www.w3.org/2000/svg" xmlns:xlink="http://www.w3.org/1999/xlink" x="0px" y="0px"
	 viewBox="0 0 64 64" enable-background="new 0 0 64 64" xml:space="preserve">
<path d="M59,7.1c-0.4-0.6-0.9-1.1-1.5-1.5c-1.2-1-2.6-1.6-4.1-2.2c-3.1-1.2-6.3-2-9.5-2.5C40,0.3,36,0,31.9,0
	c-3.7,0-7.7,0.3-11.6,0.9c-2.8,0.4-5.5,1-8.1,1.9c-1.8,0.6-3.5,1.3-5,2.3c-0.7,0.5-1.4,1.1-2,1.8c-0.7,0.9-1,1.9-0.8,3
	c0.4,2.2,0.7,4.4,1,6.6C5.9,19.8,6.5,23,7,26.3c0.6,3.6,1.3,7.2,1.9,10.8c0.1,0.8,0.5,1.5,1.1,2.2c0.4,0.4,0.7,0.8,1.2,1.1
	c1.5,1.2,3.2,2,4.9,2.7c4.2,1.7,8.6,2.4,13.1,2.7c3.3,0.2,6.5,0.1,9.8-0.4c2.8-0.4,5.5-1,8.1-1.9c2-0.7,3.8-1.6,5.5-2.8
	c0.7-0.5,1.4-1.1,1.9-1.8c0.4-0.5,0.6-1,0.7-1.6c0.8-4.7,1.6-9.5,2.4-14.2c0.7-4.4,1.4-8.8,2.1-13.2C59.8,8.9,59.6,8,59,7.1L59,7.1z
	 M32,39.7c-4.8,0-8.8-4-8.7-8.8c0-4.9,4-8.8,8.8-8.8c4.9,0,8.8,4,8.8,8.9C40.8,35.8,36.8,39.7,32,39.7L32,39.7z M49.5,8.9
	c-0.3,0.3-0.6,0.5-0.9,0.7c-0.9,0.5-1.9,0.8-2.9,1.1c-1.9,0.5-3.9,0.8-5.9,1c-2.6,0.3-5.2,0.4-7.7,0.4c-3,0-5.9-0.1-8.7-0.5
	c-2.2-0.3-4.3-0.6-6.4-1.3c-0.6-0.2-1.2-0.5-1.8-0.8c-0.3-0.1-0.6-0.4-0.8-0.6c-0.4-0.4-0.4-0.9,0-1.3c0.2-0.2,0.5-0.5,0.8-0.6
	c0.9-0.5,1.8-0.8,2.7-1c2-0.5,4-0.8,6.1-1c3.3-0.3,6.7-0.4,10-0.3c3.1,0.1,6.1,0.3,9.2,0.9c1.4,0.3,2.8,0.6,4.2,1.1
	c0.5,0.2,0.9,0.4,1.4,0.7c0.2,0.1,0.4,0.3,0.6,0.5C49.8,8.1,49.9,8.5,49.5,8.9L49.5,8.9z M52.9,46c0,0.2,0,0.4,0,0.6
	c-0.6,3.2-1.2,6.5-1.8,9.7c-0.2,1.1-0.7,2-1.5,2.8c-0.8,0.9-1.9,1.5-2.9,2.1c-2,1-4.1,1.6-6.2,2.1c-2.8,0.6-5.6,0.8-7.2,0.8
	c-4.9,0-8.5-0.4-11.9-1.4c-1.6-0.5-3.2-1.1-4.6-1.9c-0.8-0.4-1.5-1-2.1-1.6c-0.8-0.8-1.3-1.7-1.5-2.8c-0.6-3.2-1.2-6.5-1.8-9.7
	c0-0.2,0-0.3,0-0.5c0-0.8,0.7-1.2,1.5-0.8c0.1,0,0.1,0.1,0.2,0.1c2.4,1.7,5,2.9,7.8,3.7c2.5,0.8,5.2,1.3,7.8,1.5
	c3.1,0.3,6.1,0.2,9.2-0.2c4-0.6,7.9-1.7,11.5-3.7c0.7-0.4,1.4-0.9,2.1-1.3c0.1-0.1,0.2-0.2,0.3-0.2C52.2,44.9,52.8,45.2,52.9,46
	L52.9,46z M36.4,30.9c0,2.4-2,4.4-4.4,4.4c-2.4,0-4.4-2-4.4-4.4c0-2.4,2-4.4,4.4-4.4C34.5,26.5,36.4,28.4,36.4,30.9L36.4,30.9z
	 M36.4,30.9"/>
</svg>
