<?xml version="1.0" encoding="utf-8"?>
<!-- Generator: Adobe Illustrator 18.1.1, SVG Export Plug-In . SVG Version: 6.00 Build 0)  -->
<!DOCTYPE svg PUBLIC "-//W3C//DTD SVG 1.1//EN" "http://www.w3.org/Graphics/SVG/1.1/DTD/svg11.dtd">
<svg version="1.1" id="Layer_1" xmlns="http://www.w3.org/2000/svg" xmlns:xlink="http://www.w3.org/1999/xlink" x="0px" y="0px"
	 viewBox="0 0 64 64" enable-background="new 0 0 64 64" xml:space="preserve">
<path d="M59.9,24h-3.5h-0.1c-2.2,0-4.1-1.9-4.3-4l0,0C52,8.6,42.8,0,31.3,0H20.8C9.3,0,0,9.2,0,20.7v22.7C0,54.8,9.3,64,20.8,64
	h22.4C54.7,64,64,54.8,64,43.3V28.7C64,26.4,62.2,24,59.9,24z M20,16h12c2.2,0,4,1.8,4,4c0,2.2-1.8,4-4,4H20c-2.2,0-4-1.8-4-4
	C16,17.8,17.8,16,20,16z M44,48H20c-2.2,0-4-1.8-4-4c0-2.2,1.8-4,4-4h24c2.2,0,4,1.8,4,4C48,46.2,46.2,48,44,48z"/>
</svg>
