<?xml version="1.0" encoding="utf-8"?>
<!-- Generator: Adobe Illustrator 18.1.1, SVG Export Plug-In . SVG Version: 6.00 Build 0)  -->
<!DOCTYPE svg PUBLIC "-//W3C//DTD SVG 1.1//EN" "http://www.w3.org/Graphics/SVG/1.1/DTD/svg11.dtd">
<svg version="1.1" id="Layer_1" xmlns="http://www.w3.org/2000/svg" xmlns:xlink="http://www.w3.org/1999/xlink" x="0px" y="0px"
	 viewBox="0 0 64 64" enable-background="new 0 0 64 64" xml:space="preserve">
<g>
	<path fill="#010202" d="M32.2,34.8h-6.5V45h6.5c5.4,0,5.7-3.8,5.7-5.2C38,38.6,37.5,34.8,32.2,34.8z"/>
	<path fill="#010202" d="M55.4,0H8.6C3.8,0,0,3.8,0,8.6v46.8C0,60.2,3.8,64,8.6,64h46.8c4.7,0,8.6-3.8,8.6-8.6V8.6
		C64,3.8,60.2,0,55.4,0z M34.6,52H15.4V12h18.7c10.6,0,12.9,7.5,12.9,10.5c0,6-3.4,7.5-5.1,8.2c2.6,0.7,6.8,2.9,6.8,10.6
		C48.6,43.4,48.3,52,34.6,52z"/>
	<path fill="#010202" d="M36.1,23.5c0-1.2-0.8-3.9-4.6-3.9h-5.8v8h5.7C35.6,27.6,36.1,24.9,36.1,23.5z"/>
</g>
</svg>
