<?xml version="1.0" encoding="utf-8"?>
<!-- Generator: Adobe Illustrator 18.1.1, SVG Export Plug-In . SVG Version: 6.00 Build 0)  -->
<!DOCTYPE svg PUBLIC "-//W3C//DTD SVG 1.1//EN" "http://www.w3.org/Graphics/SVG/1.1/DTD/svg11.dtd">
<svg version="1.1" id="Layer_1" xmlns="http://www.w3.org/2000/svg" xmlns:xlink="http://www.w3.org/1999/xlink" x="0px" y="0px"
	 viewBox="0 0 64 64" enable-background="new 0 0 64 64" xml:space="preserve">
<g>
	<path d="M32,48.4c-3.2,0-6.2-0.9-8.9-2.6c-2.7-1.8-4.7-4-6-6.8L4,16c-2.8,4.9-4,10.4-4,16c0,8,2.6,15,7.8,20.9
		c5.2,6,11.7,9.5,19.4,10.7l9.3-16.1C35.6,47.8,34,48.4,32,48.4z"/>
	<path d="M21.9,19.1c3-2.3,6.3-3.1,10.1-3.1c0.5,0,27.5,0,27.5,0c-2.8-4.8-6.7-8.9-11.6-11.8C43.1,1.4,37.8,0,32,0
		c-5,0-9.7,1.1-14,3.2c-4.3,2.1-8.3,5.2-11.3,9.2L16,28C16.9,24.4,19,21.4,21.9,19.1z"/>
	<path d="M61.6,20H43c3.2,3.2,5.4,7.4,5.4,12c0,3.4-1,6.5-2.9,9.4L32.4,64c8.8-0.1,16.2-3.2,22.4-9.5C60.9,48.2,64,40.8,64,32
		C64,27.9,63.3,23.6,61.6,20z"/>
	<circle cx="32" cy="32" r="12"/>
</g>
</svg>
