<?xml version="1.0" encoding="utf-8"?>
<!-- Generator: Adobe Illustrator 18.1.1, SVG Export Plug-In . SVG Version: 6.00 Build 0)  -->
<!DOCTYPE svg PUBLIC "-//W3C//DTD SVG 1.1//EN" "http://www.w3.org/Graphics/SVG/1.1/DTD/svg11.dtd">
<svg version="1.1" id="Layer_1" xmlns="http://www.w3.org/2000/svg" xmlns:xlink="http://www.w3.org/1999/xlink" x="0px" y="0px"
	 viewBox="0 0 64 64" enable-background="new 0 0 64 64" xml:space="preserve">
<path d="M34.1,0.8c-1.7-1.1-4-1.1-5.7,0.1L3,18.6c-1.4,0.9-2.2,2.5-2.2,4.1v19.1c0,1.7,0.9,3.3,2.3,4.2L29,63.2
	c1.7,1.1,3.9,1.1,5.6,0l26.4-17.4c1.4-0.9,2.3-2.5,2.3-4.2V22.8c0-1.7-0.9-3.3-2.3-4.2L34.1,0.8z M53.8,21.5l-9.7,6.5l-9.2-6.6V8.3
	L53.8,21.5z M28.3,8.4v12.8l-9.4,6.5l-9.3-6.3L28.3,8.4z M7,27.7l6,4.1L7,36V27.7z M28.4,55L9.6,42.4l9.4-6.6l9.4,6.3V55z
	 M24.8,31.7l6.1-4.3l7.1,4.7l-6.3,4.2L24.8,31.7z M35.1,55V42.1l9-6l9.7,6.4L35.1,55z M56.5,36.2L50.1,32l6.4-4.3V36.2z"/>
</svg>
