<?xml version="1.0" encoding="utf-8"?>
<!-- Generator: Adobe Illustrator 18.1.1, SVG Export Plug-In . SVG Version: 6.00 Build 0)  -->
<!DOCTYPE svg PUBLIC "-//W3C//DTD SVG 1.1//EN" "http://www.w3.org/Graphics/SVG/1.1/DTD/svg11.dtd">
<svg version="1.1" id="Layer_1" xmlns="http://www.w3.org/2000/svg" xmlns:xlink="http://www.w3.org/1999/xlink" x="0px" y="0px"
	 viewBox="0 0 64 64" enable-background="new 0 0 64 64" xml:space="preserve">
<path d="M53.3,0H10.7C4.8,0,0,4.8,0,10.7v42.7C0,59.2,4.8,64,10.7,64h42.7C59.2,64,64,59.2,64,53.3V10.7C64,4.8,59.2,0,53.3,0z
	 M60,53.3c0,1.8-0.7,3.4-2,4.7c-1.3,1.3-2.9,2-4.7,2H32V32H4V10.7C4,8.9,4.7,7.2,6,6c1.3-1.3,2.9-2,4.7-2H32v28h28V53.3z"/>
</svg>
