<?xml version="1.0" encoding="utf-8"?>
<!-- Generator: Adobe Illustrator 18.1.1, SVG Export Plug-In . SVG Version: 6.00 Build 0)  -->
<!DOCTYPE svg PUBLIC "-//W3C//DTD SVG 1.1//EN" "http://www.w3.org/Graphics/SVG/1.1/DTD/svg11.dtd">
<svg version="1.1" id="Layer_1" xmlns="http://www.w3.org/2000/svg" xmlns:xlink="http://www.w3.org/1999/xlink" x="0px" y="0px"
	 viewBox="0 0 64 64" enable-background="new 0 0 64 64" xml:space="preserve">
<g id="deviantart">
	<g>
		<path d="M35.1,26.3h-8.3l7.6,13.3c13.1-3.6,26-7.2,29.6-8.2c-7.2-9.7-23.6-13.4-42.2-10.1l-2.9-5.6l-7.2,1.6l2.9,5.8
			C1.2,27.8-3.1,38.3,2.2,48.4c0,0,14.6-4,29.7-8.2l-8.3-15.9c8.2-1.3,20.4-1,26.5,5.6c-1.8,0.5-5.8,1.5-10.7,2.7L35.1,26.3z
			 M10.4,39.8c-0.7-5.9,1.7-10.4,6-13l5,10.3C15.2,38.6,10.4,39.8,10.4,39.8z"/>
	</g>
</g>
</svg>
