<?xml version="1.0" encoding="utf-8"?>
<!-- Generator: Adobe Illustrator 18.1.1, SVG Export Plug-In . SVG Version: 6.00 Build 0)  -->
<!DOCTYPE svg PUBLIC "-//W3C//DTD SVG 1.1//EN" "http://www.w3.org/Graphics/SVG/1.1/DTD/svg11.dtd">
<svg version="1.1" id="Layer_1" xmlns="http://www.w3.org/2000/svg" xmlns:xlink="http://www.w3.org/1999/xlink" x="0px" y="0px"
	 viewBox="0 0 64 64" enable-background="new 0 0 64 64" xml:space="preserve">
<path d="M9.8,22.1H0v19.6h16.3V13.6H9.8V22.1z M9.6,35.7H6.3v-8.1h3.3V35.7z M28.8,42h9.5v2.5h-9.5v5.9h16V22.2h-16V42z M34.9,28.4
	h3.2v8.1h-3.2V28.4z M48,22.2V42h9.5v2.5H48v5.9h16V22.2L48,22.2L48,22.2z M57.3,36.5h-3.2v-8.1h3.2V36.5z M19.2,13.7h6.5v5.5h-6.5
	V13.7z M19.2,22.2h6.5v19.7h-6.5V22.2z"/>
</svg>
