<?xml version="1.0" encoding="utf-8"?>
<!-- Generator: Adobe Illustrator 18.1.1, SVG Export Plug-In . SVG Version: 6.00 Build 0)  -->
<!DOCTYPE svg PUBLIC "-//W3C//DTD SVG 1.1//EN" "http://www.w3.org/Graphics/SVG/1.1/DTD/svg11.dtd">
<svg version="1.1" id="Layer_1" xmlns="http://www.w3.org/2000/svg" xmlns:xlink="http://www.w3.org/1999/xlink" x="0px" y="0px"
	 viewBox="0 0 64 64" enable-background="new 0 0 64 64" xml:space="preserve">
<g id="dribbble">
	<g>
		<path d="M32,0C14.3,0,0,14.3,0,32s14.3,32,32,32s32-14.3,32-32S49.7,0,32,0z M53,15.5c3.4,4.4,5.5,9.8,5.7,15.8
			C51.5,30,45.3,30,40,30.8c-0.7-1.6-1.4-3.1-2.1-4.5C43.6,23.9,48.8,20.5,53,15.5z M32,5.3c6.6,0,12.7,2.4,17.3,6.4
			c-3.8,4.6-8.5,7.7-13.9,9.9C32,15.2,28.5,9.9,25.7,6C27.7,5.5,29.8,5.3,32,5.3z M20.5,7.9c2.7,3.6,6.3,8.9,9.9,15.3
			c-7.5,2.1-15.9,2.6-24.4,2.6C7.9,17.9,13.3,11.3,20.5,7.9z M5.3,32c0-0.3,0-0.6,0-0.9c0,0,0.1,0,0.1,0c9.5,0,19-0.6,27.5-3.1
			c0.6,1.3,1.3,2.6,1.9,4c-11.2,3.3-18.1,10.6-22.9,17.6C7.8,44.9,5.3,38.7,5.3,32z M32,58.7c-6.1,0-11.7-2.1-16.2-5.5
			c4.5-6.8,10.8-13.5,21-16.3c2.4,6.1,4.3,12.8,5.4,19.8C39,58,35.6,58.7,32,58.7z M47.1,54c-1.1-6.4-2.9-12.5-5-18.2
			c4.7-0.6,10.1-0.5,16.3,0.7C57.1,43.8,52.9,50,47.1,54z"/>
	</g>
</g>
</svg>
