<?xml version="1.0" encoding="utf-8"?>
<!-- Generator: Adobe Illustrator 18.1.1, SVG Export Plug-In . SVG Version: 6.00 Build 0)  -->
<!DOCTYPE svg PUBLIC "-//W3C//DTD SVG 1.1//EN" "http://www.w3.org/Graphics/SVG/1.1/DTD/svg11.dtd">
<svg version="1.1" id="Layer_1" xmlns="http://www.w3.org/2000/svg" xmlns:xlink="http://www.w3.org/1999/xlink" x="0px" y="0px"
	 viewBox="0 0 64 64" enable-background="new 0 0 64 64" xml:space="preserve">
<path id="Drupal" d="M46,11.9c-3.3-2-6.4-2.8-9.5-4.9c-1.9-1.3-4.6-4.4-6.8-7c-0.4,4.3-1.7,6-3.2,7.2c-3.2,2.5-5.1,3.2-7.9,4.7
	c-2.3,1.2-14.7,8.6-14.7,24.5C3.9,52.3,17.3,64,32.2,64c14.9,0,27.8-10.8,27.8-27.1C60.1,20.5,48,13.1,46,11.9z M46.2,57.8
	c-0.3,0.3-3.2,2.3-6.5,2.6c-3.3,0.3-7.9,0.5-10.6-2c-0.4-0.4-0.3-1,0-1.3c0.3-0.3,0.6-0.4,0.9-0.4c0.4,0,0.3,0,0.5,0.1
	c1.2,1,3.1,1.8,7,1.8c4,0,6.7-1.1,8-2c0.6-0.4,0.8-0.1,0.9,0.2C46.5,57,46.7,57.4,46.2,57.8z M35.5,52.6c0.7-0.6,1.8-1.6,2.9-2
	c1.1-0.4,1.6-0.4,2.6-0.4c1,0,2,0.1,2.8,0.6c0.7,0.5,1.2,1.6,1.4,2.2c0.3,0.6,0,1-0.5,1.2c-0.4,0.2-0.5,0.1-0.9-0.7
	c-0.4-0.8-0.8-1.6-3-1.6c-2.2,0-2.8,0.7-3.9,1.6c-1.1,0.9-1.4,1.2-1.8,0.7C34.7,53.7,34.8,53.2,35.5,52.6z M57.8,40.8
	c0,1.9-0.6,5.4-2.1,7.5c-1.5,2.2-2.4,3-4.1,2.8c-2.2-0.2-6.7-7.1-9.5-7.2c-3.6-0.1-11.4,7.5-17.5,7.5c-3.7,0-4.8-0.6-6.1-1.4
	c-1.9-1.3-2.8-3.3-2.7-6c0.1-4.8,4.6-9.3,10.3-9.4c7.2-0.1,12.3,7.1,15.9,7.1c3.1-0.1,9-6.1,11.9-6.1C57,35.7,57.8,38.9,57.8,40.8z"
	/>
</svg>
