<?xml version="1.0" encoding="utf-8"?>
<!-- Generator: Adobe Illustrator 18.1.1, SVG Export Plug-In . SVG Version: 6.00 Build 0)  -->
<!DOCTYPE svg PUBLIC "-//W3C//DTD SVG 1.1//EN" "http://www.w3.org/Graphics/SVG/1.1/DTD/svg11.dtd">
<svg version="1.1" id="Layer_1" xmlns="http://www.w3.org/2000/svg" xmlns:xlink="http://www.w3.org/1999/xlink" x="0px" y="0px"
	 viewBox="0 0 64 64" enable-background="new 0 0 64 64" xml:space="preserve">
<path d="M60.6,25.4l-5.4,10.9l-5.5-10.9h-3.8l1,1.8c-1.3-1.9-3.8-2.4-6.1-2.4c-6.8,0-7.2,3.7-7.2,4.3h3.4c0,0,0.2-2.2,3.6-2.2
	c2.2,0,4,1,4,3v0.7h-4c-4.4,0-7.1,1.1-7.8,3.2c0.1-0.5,0.1-1,0.1-1.5c0-4.2-2.8-7.5-7.6-7.5c-4.5,0-5.8,2.4-5.8,2.4v-8h-3.3v12.2
	c0-2.7-1.8-6.6-7.8-6.6c-4.5,0-8.3,1.9-8.3,7.7c0,4.6,2.5,7.5,8.4,7.5c6.9,0,7.3-4.5,7.3-4.5h-3.3c0,0-0.7,2.4-4.2,2.4
	c-2.8,0-4.9-1.9-4.9-4.6h12.8V37c0,1-0.1,2.4-0.1,2.4h3.2c0,0,0.1-1,0.1-2c0,0,1.6,2.5,5.9,2.5c3.7,0,6.4-2.1,7.3-5.2
	c0,0.2,0,0.3,0,0.5c0,3.1,2.6,4.7,6,4.7c4.7,0,6.3-2.6,6.3-2.6c0,1,0.1,2.1,0.1,2.1h3c0,0-0.1-1.3-0.1-2.1v-7c0-0.9-0.2-1.7-0.4-2.4
	l6.1,11.4l-2.9,5.4h3.6L64,25.4H60.6z M3.4,31.1c0-2.6,2.4-4.1,4.8-4.1c2.7,0,4.5,1.7,4.5,4.1H3.4z M24.4,37.8c-3.3,0-5-2.6-5-5.4
	c0-2.6,1.6-5.4,5-5.4c3.1,0,5,2.3,5,5.3C29.4,35.6,27.1,37.8,24.4,37.8z M44.4,33.6c0,1.2-0.8,4.2-5.2,4.2c-2.4,0-3.5-1.2-3.5-2.6
	c0-2.5,3.5-2.6,8.6-2.6V33.6z"/>
</svg>
