<?xml version="1.0" encoding="utf-8"?>
<!-- Generator: Adobe Illustrator 18.1.1, SVG Export Plug-In . SVG Version: 6.00 Build 0)  -->
<!DOCTYPE svg PUBLIC "-//W3C//DTD SVG 1.1//EN" "http://www.w3.org/Graphics/SVG/1.1/DTD/svg11.dtd">
<svg version="1.1" id="Layer_1" xmlns="http://www.w3.org/2000/svg" xmlns:xlink="http://www.w3.org/1999/xlink" x="0px" y="0px"
	 viewBox="0 0 64 64" enable-background="new 0 0 64 64" xml:space="preserve">
<g>
	<path d="M23.1,29.7c0-0.5,0-0.9,0-1.3c0-7.1,0-14.3,0-21.4c0-1.6,0-1.6,1.7-1.6c6.4,0,12.7,0.1,19,0c2.6,0,4.3,1.1,5.4,3.3
		c0.5,1,0.9,2,1.2,3c0.5,1.8,0.9,3.6,1.5,5.4c0.1,0.4,0.5,0.9,0.9,1c1,0.1,1.9,0,3,0C56.3,12,56.6,6,57,0C39.2,1.5,21.6,0.8,3.9,0.5
		c0,1.1-0.1,2.2,0,3.2C4,4,4.5,4.4,4.8,4.5c1.3,0.3,2.7,0.5,4,0.8c3.2,0.6,4,1.6,4.1,4.8c0.1,5.7,0.2,11.4,0.2,17.2
		c0,9.2-0.1,18.4-0.2,27.6c0,0.5-0.1,1-0.2,1.5c-0.1,1.1-0.8,1.8-1.7,2.2c-0.6,0.3-1.3,0.5-2,0.6c-1.7,0.4-3.3,0.7-4.9,1
		c0,1.4,0,2.6,0,3.8c0.7,0,1.3,0,1.9,0c4.4-0.1,8.8-0.4,13.3-0.4c12.3,0.1,24.7,0.3,37,0.4c1.6,0,1.6,0,1.7-1.5
		c0.5-4.2,1-8.5,1.5-12.7c0.2-1.6,0.4-3.1,0.6-4.8c-0.7,0-1.3,0.1-1.8,0c-1.2-0.2-1.8,0.3-2.3,1.5c-1,2.5-2.1,5-3.3,7.5
		c-1.5,3-3.8,5-7.3,5.1c-5.7,0.2-11.4,0.3-17.2,0.1c-3.7-0.1-5.1-1.9-5.1-5.6c0-6,0-11.9,0-17.9c0-0.5,0-0.9,0.1-1.4
		c0.2-0.1,0.3-0.1,0.4-0.1c4,0.1,8,0.1,12,0.2c2.1,0.1,3.8,0.9,4.4,3.2c0.3,1,0.5,2,0.7,3c0.7,2.7,0.7,2.7,3.5,2.7
		c1,0,1.2-0.4,1.2-1.2c0-6.7,0.1-13.4,0.2-20.1c0-0.6,0-1.1,0-1.7c-1.1,0-2,0.1-2.9,0c-0.7-0.1-1,0.3-1.2,0.9
		c-0.4,1.7-0.8,3.4-1.2,5.1c-0.6,2.3-1.4,3-3.8,3.1c-1.7,0.1-3.4,0.3-5.2,0.3C28.6,29.7,25.9,29.7,23.1,29.7z"/>
</g>
</svg>
