<?xml version="1.0" encoding="utf-8"?>
<!-- Generator: Adobe Illustrator 18.1.1, SVG Export Plug-In . SVG Version: 6.00 Build 0)  -->
<!DOCTYPE svg PUBLIC "-//W3C//DTD SVG 1.1//EN" "http://www.w3.org/Graphics/SVG/1.1/DTD/svg11.dtd">
<svg version="1.1" id="Layer_1" xmlns="http://www.w3.org/2000/svg" xmlns:xlink="http://www.w3.org/1999/xlink" x="0px" y="0px"
	 viewBox="0 0 64 64" enable-background="new 0 0 64 64" xml:space="preserve">
<path d="M10.6,12.4C10.6,12.4,10.6,12.4,10.6,12.4h6c0.3,0,0.6-0.3,0.6-0.6c0,0-0.1-5.1-0.1-6.6v0c0-1.2,0.2-2.2,0.7-3.1L18,1.7
	c0,0,0,0-0.1,0L6.3,13.3c0,0,0,0,0,0.1c0.2-0.1,0.6-0.3,0.6-0.3C7.9,12.6,9.1,12.4,10.6,12.4z M57.3,11.1c-0.5-2.6-2-3.8-3.4-4.3
	c-1.5-0.5-4.5-1.1-8.3-1.5c-3-0.4-6.6-0.3-8.8-0.3c-0.3-1.8-1.5-3.4-2.9-4c-3.7-1.5-9.4-1.1-10.9-0.7c-1.2,0.3-2.5,1-3.2,2
	c-0.5,0.7-0.8,1.6-0.8,2.8c0,0.7,0,2.3,0,3.8c0,1.5,0,2.8,0,2.8c0,1.3-1.1,2.4-2.4,2.4h-6c-1.3,0-2.3,0.2-3,0.6
	C7.1,15,6.6,15.5,6.2,16c-0.8,1.1-0.9,2.4-0.9,3.8c0,0,0,1.1,0.3,3.3c0.2,1.7,2,13.3,3.7,16.8c0.7,1.4,1.1,1.9,2.4,2.5
	c2.9,1.2,9.5,2.6,12.6,3c3.1,0.4,5,1.2,6.2-1.2c0,0,0.2-0.6,0.5-1.5c1-3.1,1.1-5.8,1.1-7.7c0-0.2,0.3-0.2,0.3,0
	c0,1.4-0.3,6.3,3.4,7.6c1.5,0.5,4.5,1,7.6,1.3c2.8,0.3,4.8,1.4,4.8,8.6c0,4.3-0.9,4.9-5.7,4.9c-3.9,0-5.3,0.1-5.3-3
	c0-2.5,2.5-2.2,4.3-2.2c0.8,0,0.2-0.6,0.2-2.1c0-1.5,1-2.4,0.1-2.4c-6.3-0.2-10,0-10,7.9c0,7.1,2.7,8.5,11.7,8.5
	c7,0,9.5-0.2,12.4-9.2c0.6-1.8,2-7.2,2.8-16.2C59.2,32.8,58.1,15.5,57.3,11.1z M45.1,30.3c-0.9,0-1.7,0-2.5,0.1
	c0.2-1.8,0.9-3.9,3.5-3.8c2.9,0.1,3.3,2.8,3.3,4.6C48.2,30.7,46.7,30.3,45.1,30.3z"/>
</svg>
