<?xml version="1.0" encoding="utf-8"?>
<!-- Generator: Adobe Illustrator 18.1.1, SVG Export Plug-In . SVG Version: 6.00 Build 0)  -->
<!DOCTYPE svg PUBLIC "-//W3C//DTD SVG 1.1//EN" "http://www.w3.org/Graphics/SVG/1.1/DTD/svg11.dtd">
<svg version="1.1" id="Layer_1" xmlns="http://www.w3.org/2000/svg" xmlns:xlink="http://www.w3.org/1999/xlink" x="0px" y="0px"
	 viewBox="0 0 64 64" enable-background="new 0 0 64 64" xml:space="preserve">
<path d="M23,0C7.8,0,0,8.8,0,25.1l0,0v11.4v22.9l14.9-14.9V27.1c0-6.8,1.8-11.1,7.8-12.1l0,0c2.1-0.4,6.5-0.3,9.3-0.3l0,0v10.3
	c0,0.1,0,0.3,0,0.3l0,0c0.1,0.4,0.5,0.7,0.9,0.7l0,0c0.3,0,0.5-0.1,0.7-0.4l0,0L59.5,0L42.2,0H23z M49.1,19.5v17.4
	c0,6.8-1.8,11.1-7.8,12.1l0,0c-2.1,0.4-6.5,0.3-9.3,0.3l0,0V38.9c0-0.1,0-0.3,0-0.3l0,0c-0.1-0.4-0.5-0.7-0.9-0.7l0,0
	c-0.3,0-0.5,0.1-0.7,0.4l0,0L4.5,64l17.3,0H41c15.2,0,23-8.8,23-25.1l0,0V27.5V4.6L49.1,19.5z"/>
</svg>
