<?xml version="1.0" encoding="utf-8"?>
<!-- Generator: Adobe Illustrator 18.1.1, SVG Export Plug-In . SVG Version: 6.00 Build 0)  -->
<!DOCTYPE svg PUBLIC "-//W3C//DTD SVG 1.1//EN" "http://www.w3.org/Graphics/SVG/1.1/DTD/svg11.dtd">
<svg version="1.1" id="Layer_1" xmlns="http://www.w3.org/2000/svg" xmlns:xlink="http://www.w3.org/1999/xlink" x="0px" y="0px"
	 viewBox="0 0 64 64" enable-background="new 0 0 64 64" xml:space="preserve">
<g>
	<g>
		<path d="M49.3,0c0,0-29.4,0-34.1,0c-4.7,0-6.1,3.5-6.1,5.8c0,2.2,0,54.2,0,54.2c0,2.5,1.4,3.4,2.1,3.8c0.8,0.3,2.9,0.6,4.1-0.9
			c0,0,16.1-18.7,16.4-19c0.4-0.4,0.4-0.4,0.8-0.4c0.8,0,7,0,10.4,0c4.4,0,5.1-3.1,5.5-5c0.4-1.5,4.7-23.4,6.1-30.4
			C55.7,2.9,54.3,0,49.3,0z M48.5,38.5c0.4-1.5,4.7-23.4,6.1-30.4 M47.3,9.2l-1.4,7.5c-0.2,0.8-1.2,1.7-2.1,1.7
			c-0.9,0-13.3,0-13.3,0c-1.5,0-2.6,1-2.6,2.5v1.6c0,1.5,1.1,2.6,2.6,2.6c0,0,10.2,0,11.3,0c1.1,0,2.1,1.2,1.9,2.3
			c-0.2,1.1-1.3,6.7-1.4,7.3c-0.1,0.6-0.8,1.7-2.1,1.7c-1.1,0-9.2,0-9.2,0c-1.7,0-2.2,0.2-3.3,1.6c-1.1,1.4-11.2,13.5-11.2,13.5
			c-0.1,0.1-0.2,0.1-0.2,0V9.1c0-1,0.8-2.1,2.1-2.1c0,0,26.3,0,27.4,0C46.6,7.1,47.5,8,47.3,9.2z"/>
	</g>
</g>
</svg>
