<?xml version="1.0" encoding="utf-8"?>
<!-- Generator: Adobe Illustrator 18.1.1, SVG Export Plug-In . SVG Version: 6.00 Build 0)  -->
<!DOCTYPE svg PUBLIC "-//W3C//DTD SVG 1.1//EN" "http://www.w3.org/Graphics/SVG/1.1/DTD/svg11.dtd">
<svg version="1.1" id="Layer_1" xmlns="http://www.w3.org/2000/svg" xmlns:xlink="http://www.w3.org/1999/xlink" x="0px" y="0px"
	 viewBox="0 0 64 64" enable-background="new 0 0 64 64" xml:space="preserve">
<path d="M14.7,15.5c-3.2,0-5.9,1.1-8.2,3.2c-2.4,2.2-3.6,5-3.6,8.4c0,2.2,0.6,4.3,2,6.3c1.2,1.8,2.4,3,4,3.5V37
	c-1.6,0.7-2.3,2.3-2.3,4.9c0,2,0.7,3.5,2.3,4.5v0.1c-4.4,1.4-6.4,4.1-6.4,8.1c0,3.4,1.5,5.9,4.4,7.5C9.1,63.4,12,64,15.6,64
	c8.6,0,13-3.6,13-10.9c0-4.5-3.3-7.3-10-8.3c-1.5-0.2-2.7-0.8-3.5-1.7c-0.6-0.6-0.9-1.2-0.9-1.8c0-1.7,0.9-2.7,2.8-3
	c2.8-0.4,5.2-1.7,7-4c1.8-2.2,2.7-4.8,2.7-7.8c0-0.9-0.3-1.9-0.7-3c1.2-0.3,2.1-0.5,2.7-0.8v-7.2c-2.8,1.1-5.4,1.7-7.7,1.7
	C19,16.1,17,15.5,14.7,15.5z M15.5,50.5c3.9,0,5.9,1.2,5.9,3.6c0,2.5-1.8,3.8-5.4,3.8c-4.1,0-6.2-1.2-6.2-3.6
	C9.8,51.7,11.7,50.5,15.5,50.5z M15,32c-2.9,0-4.4-1.6-4.4-4.8c0-3.5,1.5-5.2,4.4-5.2c1.4,0,2.5,0.5,3.3,1.6c0.7,1,1,2.1,1,3.5
	C19.3,30.4,17.8,32,15,32z M36.3,0c-1.4,0-2.5,0.5-3.5,1.5c-1,1-1.4,2.3-1.4,3.7c0,1.4,0.5,2.6,1.4,3.6c1,1,2.1,1.5,3.5,1.5
	c1.3,0,2.4-0.5,3.4-1.5c1-1,1.4-2.2,1.4-3.6c0-1.4-0.5-2.7-1.4-3.7C38.7,0.5,37.6,0,36.3,0z M40.2,16h-7.9c0.1,0.9,0,2.3,0,4.4v21.8
	c0,2.2,0.1,4,0,4.8h7.9c-0.1-1-0.3-2.8-0.3-5.2V20.3C39.9,18.3,40.1,16.9,40.2,16z M57.6,40.3c-2.1,0-3.1-1.6-3.1-4.7V22.7h3.1
	c0.6,0,1.1,0,1.7,0c0.6,0,0.9,0,1.2,0V16h-6v-3c0-1.1,0.2-2.1,0.3-2.8h-8.1c0.1,0.6,0.1,1.6,0.1,2.9V16h-3.5v6.7
	c1-0.1,1.8-0.2,2.4-0.2l1.1,0.1v0l0,0v12.6c0,3.9,0.5,6.8,1.5,8.6c1.3,2.4,3.6,3.6,7,3.6c2.4,0,4.6-0.5,6.2-1.4v-7
	C60.3,39.9,59.1,40.3,57.6,40.3z"/>
</svg>
