<?xml version="1.0" encoding="utf-8"?>
<!-- Generator: Adobe Illustrator 18.1.1, SVG Export Plug-In . SVG Version: 6.00 Build 0)  -->
<!DOCTYPE svg PUBLIC "-//W3C//DTD SVG 1.1//EN" "http://www.w3.org/Graphics/SVG/1.1/DTD/svg11.dtd">
<svg version="1.1" id="Layer_1" xmlns="http://www.w3.org/2000/svg" xmlns:xlink="http://www.w3.org/1999/xlink" x="0px" y="0px"
	 viewBox="0 0 64 64" enable-background="new 0 0 64 64" xml:space="preserve">
<g id="google_plus">
	<g>
		<path d="M36.2,37c-6.5-4.6-9-6.8-4.8-10.5s7.5-6.7,7.5-13.5c0-6.8-5.7-10.3-5.7-10.3s4.1,0.6,6.3-0.6c2.2-1.2,3.1-2,3.1-2H21.8
			C17.7,0,6.1,4.7,6.1,15.8c0,11.1,12,13.4,16.4,13.2c-2.4,3-0.4,5.7,1,7.1c1.3,1.4,1,1.8-0.5,1.8C21.3,38,2,38.2,2,52
			s25.7,14.8,34.1,7.4C44.6,51.9,42.7,41.7,36.2,37z M23.8,26.3C13.5,26.3,8.8,2.1,21,2.1C30.5,1.8,37.6,26.3,23.8,26.3z M22.6,60.2
			c-8.6,0-13.2-4.3-13.2-10.7c0-6.4,6.3-9.6,18-9.6c3.2,2.5,8.9,5.4,8.9,11.4C36.3,57.3,31.2,60.2,22.6,60.2z M54.2,8V0.2h-4.1V8h-8
			v4.1h8V20h4.1v-7.9H62V8H54.2z"/>
	</g>
</g>
</svg>
