<?xml version="1.0" encoding="utf-8"?>
<!-- Generator: Adobe Illustrator 18.1.1, SVG Export Plug-In . SVG Version: 6.00 Build 0)  -->
<!DOCTYPE svg PUBLIC "-//W3C//DTD SVG 1.1//EN" "http://www.w3.org/Graphics/SVG/1.1/DTD/svg11.dtd">
<svg version="1.1" id="Layer_1" xmlns="http://www.w3.org/2000/svg" xmlns:xlink="http://www.w3.org/1999/xlink" x="0px" y="0px"
	 viewBox="0 0 64 64" enable-background="new 0 0 64 64" xml:space="preserve">
<path d="M55.1,11.5l-9.6-9.2C43.9,0.9,43.3,0,41.6,0H9.9C8.3,0,8.3,1.6,8.3,1.6v49.2c0,1.6,1.6,3.3,1.6,3.3l8.3,8.2
	c1.6,1.6,1.6,1.6,3.3,1.6h32.1c0,0,0,0,0,0c0,0,0,0,0,0h0c0,0,0,0,0,0c0.2,0,0.5,0,0.7-0.1c0.8-0.3,1.2-1,1.2-1.8l0-49.1
	C55.7,12.4,55.5,11.9,55.1,11.5z M11.6,47.6V4.9c0-1.6,0-1.6,1.7-1.6h9.6c1.7,0,1.7,0,1.7,1.6v13.1c0,1.6,0.4,1.6,2.1,1.6
	c1.7,0,2.1,0,2.1-1.6V4.9c0-1.6,0-1.6,1.7-1.6h9.6c1.7,0,1.7,0,1.7,1.6v42.7c0,1.6,0,1.6-1.7,1.6h-9.6c-1.7,0-1.7,0-1.7-1.6V34.5
	c0-1.6-0.4-1.6-2.1-1.6c-1.7,0-2.1,0-2.1,1.6v13.1c0,1.6,0,1.6-1.7,1.6h-9.6C11.6,49.2,11.6,49.2,11.6,47.6z M32.4,60.7h-10
	c-0.8,0-0.8,0-1.7-0.8l-6.7-6.6c-0.8-0.8-0.8-0.8,0-0.8h10c0.8,0,0.8,0,1.7,0.8l6.6,6.6C33.2,60.7,33.2,60.7,32.4,60.7z M49,60.7
	h-10c-0.8,0-0.8,0-1.7-0.8l-6.7-6.6c-0.8-0.8-0.8-0.8,0-0.8h10c0.8,0,0.8,0,1.7,0.8l3.5,3.4l3.8,3.9C49.6,60.7,49.4,60.7,49,60.7z
	 M52.3,57.5L44.9,50l0-42.9l7.4,7L52.3,57.5z"/>
</svg>
