<?xml version="1.0" encoding="utf-8"?>
<!-- Generator: Adobe Illustrator 18.1.1, SVG Export Plug-In . SVG Version: 6.00 Build 0)  -->
<!DOCTYPE svg PUBLIC "-//W3C//DTD SVG 1.1//EN" "http://www.w3.org/Graphics/SVG/1.1/DTD/svg11.dtd">
<svg version="1.1" id="Layer_1" xmlns="http://www.w3.org/2000/svg" xmlns:xlink="http://www.w3.org/1999/xlink" x="0px" y="0px"
	 viewBox="0 0 64 64" enable-background="new 0 0 64 64" xml:space="preserve">
<path d="M48.3,36.9h15.5c0.1-1.1,0.2-2.2,0.2-3.3c0-5.3-1.4-10.2-3.9-14.5c2.6-6.8,2.5-12.6-1-16c-3.3-3.2-12-2.7-21.9,1.7
	c-0.7-0.1-1.5-0.1-2.2-0.1C21.5,4.7,10.1,14,7,26.6c4.3-5.4,8.7-9.4,14.7-12.3c-0.5,0.5-3.7,3.7-4.2,4.2C1.7,34.3-3.3,54.9,2.1,60.2
	c4.1,4.1,11.4,3.4,19.9-0.8c3.9,2,8.4,3.1,13.1,3.1c12.7,0,23.5-8.2,27.4-19.6H46.8c-2.2,4-6.4,6.7-11.2,6.7c-4.8,0-9-2.7-11.2-6.7
	c-1-1.8-1.5-3.9-1.5-6v0H48.3z M22.9,29.3c0.4-6.4,5.7-11.5,12.2-11.5c6.5,0,11.8,5.1,12.2,11.5H22.9z M59,6.4
	c2.2,2.2,2.2,6.3,0.3,11.4C56,12.9,51.3,9,45.8,6.8C51.7,4.2,56.6,3.9,59,6.4z M6.1,59.2c-2.8-2.8-2-8.7,1.7-15.8
	c2.3,6.3,6.7,11.6,12.3,15.1C13.9,61.3,8.7,61.8,6.1,59.2z"/>
</svg>
