<?xml version="1.0" encoding="utf-8"?>
<!-- Generator: Adobe Illustrator 18.1.1, SVG Export Plug-In . SVG Version: 6.00 Build 0)  -->
<!DOCTYPE svg PUBLIC "-//W3C//DTD SVG 1.1//EN" "http://www.w3.org/Graphics/SVG/1.1/DTD/svg11.dtd">
<svg version="1.1" id="Layer_1" xmlns="http://www.w3.org/2000/svg" xmlns:xlink="http://www.w3.org/1999/xlink" x="0px" y="0px"
	 viewBox="0 0 64 64" enable-background="new 0 0 64 64" xml:space="preserve">
<path d="M16.6,17.3c2.1-2.1,5.4-2.1,7.4,0l0.5,0.5l6.3-6.3L30.4,11c-3.6-3.6-8.7-4.9-13.3-3.8C16.4,3.1,12.9,0,8.6,0
	C3.9,0,0.1,3.8,0.1,8.6c0,4.1,2.8,7.5,6.7,8.4c-1.4,4.8-0.3,10.3,3.6,14.1l14.2,14.2l6.3-6.3L16.6,24.7
	C14.6,22.7,14.6,19.4,16.6,17.3z M63.9,8.6c0-4.7-3.8-8.6-8.6-8.6c-4.3,0-7.9,3.2-8.5,7.4C42.1,6,36.6,7.2,32.8,11L18.6,25.2
	l6.3,6.3l14.2-14.2c2.1-2.1,5.4-2.1,7.4,0c2,2.1,2,5.4,0,7.4l-0.5,0.5l6.3,6.3l0.5-0.5c3.8-3.8,5-9.2,3.6-14
	C60.7,16.5,63.9,12.9,63.9,8.6z M56.6,46.9c1.1-4.7-0.1-9.8-3.8-13.4L38.7,19.3l-6.3,6.3l14.2,14.3c2.1,2.1,2.1,5.4,0,7.4
	c-2,2.1-5.4,2.1-7.4,0l-0.5-0.5l-6.3,6.3l0.5,0.5c3.8,3.9,9.4,5,14.2,3.5c0.8,3.9,4.2,6.9,8.4,6.9c4.7,0,8.6-3.8,8.6-8.6
	C64,51.1,60.8,47.5,56.6,46.9z M38.3,33L24.1,47.3c-2,2-5.4,2.1-7.4,0c-2.1-2.1-2.1-5.4,0-7.4l0.5-0.5L10.8,33l-0.5,0.5
	c-3.7,3.7-4.9,8.9-3.7,13.6C2.8,48,0,51.4,0,55.4C0,60.2,3.8,64,8.6,64c4.1,0,7.5-2.8,8.3-6.6c4.7,1.2,9.8-0.1,13.5-3.7l14.2-14.2
	L38.3,33z"/>
</svg>
