<?xml version="1.0" encoding="utf-8"?>
<!-- Generator: Adobe Illustrator 18.1.1, SVG Export Plug-In . SVG Version: 6.00 Build 0)  -->
<!DOCTYPE svg PUBLIC "-//W3C//DTD SVG 1.1//EN" "http://www.w3.org/Graphics/SVG/1.1/DTD/svg11.dtd">
<svg version="1.1" id="Layer_1" xmlns="http://www.w3.org/2000/svg" xmlns:xlink="http://www.w3.org/1999/xlink" x="0px" y="0px"
	 viewBox="0 0 64 64" enable-background="new 0 0 64 64" xml:space="preserve">
<path id="path3613" d="M56.2,30c0-0.4,0.1-0.7,0.1-1.1c0-10.4-8.5-18.7-19-18.7c-7.6,0-14.1,4.4-17.2,10.7c-1.5-1.1-3.3-1.8-5.4-1.8
	c-4.9,0-8.8,3.9-8.8,8.6c0,0.9,0.1,1.8,0.4,2.6C2.5,32.4,0,36.5,0,41.1c0,6.9,5.7,12.6,12.7,12.7l0.1,0l0.1,0l0.1,0h37.8
	c0.2,0,0.5,0,0.7,0c7,0,12.6-5.6,12.6-12.4C64,36.3,60.8,31.9,56.2,30z M17.2,44.3c-1.3-1.2-2.1-2.6-2.4-4.2
	c-0.1-0.6-0.2-1.1-0.2-1.7c0-2.4,0.9-4.3,2.6-5.8c1.7-1.5,3.9-2.3,6.5-2.3c2.7,0,5.3,1,7.6,3.1c0.6,0.5,1.1,1.1,1.6,1.7l2.9,3.4
	c0.5,0.7,1,1.3,1.6,1.8c1.5,1.3,3.1,2,4.5,2c1.2,0,2.1-0.4,2.9-1.1c0.7-0.7,1.1-1.4,1.2-2.3l0-0.4c0-0.4-0.1-0.8-0.2-1.1
	c-0.2-0.6-0.5-1.1-1-1.6c-0.8-0.7-1.8-1.1-2.9-1.1c-1.5,0-2.9,0.5-4.5,2l-2.6-3l-0.3-0.4c2.3-2.2,4.5-3,7.5-3c2.7,0,4.9,0.8,6.5,2.3
	l0,0c1.7,1.5,2.5,3.5,2.5,5.9c0,0.6-0.1,1.2-0.2,1.7c-0.3,1.6-1.1,3-2.4,4.2c-1.3,1.2-2.8,1.9-4.6,2.2c-0.6,0.1-1.2,0.1-1.9,0.1
	c-2.8,0-5.4-1-7.6-3c-0.6-0.5-1.2-1.1-1.7-1.8L30,38.4c-0.5-0.7-1-1.3-1.6-1.8c-1.5-1.3-3.1-2-4.5-2c-0.4,0-0.8,0.1-1.2,0.2
	c-0.6,0.2-1.2,0.5-1.7,0.9c-0.6,0.6-1,1.2-1.1,1.9c0,0.2-0.1,0.5-0.1,0.8c0,1,0.4,1.9,1.1,2.7l0.1,0.1c0.8,0.7,1.8,1.1,3,1.1
	c1.5,0,2.9-0.5,4.5-2l2.6,3l0.3,0.3c-2.3,2.2-4.6,3.1-7.5,3.1C21.1,46.6,18.9,45.8,17.2,44.3z"/>
</svg>
