<?xml version="1.0" encoding="utf-8"?>
<!-- Generator: Adobe Illustrator 18.1.1, SVG Export Plug-In . SVG Version: 6.00 Build 0)  -->
<!DOCTYPE svg PUBLIC "-//W3C//DTD SVG 1.1//EN" "http://www.w3.org/Graphics/SVG/1.1/DTD/svg11.dtd">
<svg version="1.1" id="Layer_1" xmlns="http://www.w3.org/2000/svg" xmlns:xlink="http://www.w3.org/1999/xlink" x="0px" y="0px"
	 viewBox="0 0 64 64" enable-background="new 0 0 64 64" xml:space="preserve">
<path d="M53.2,0H10.8C4.8,0,0,4.8,0,10.8v42.5C0,59.2,4.8,64,10.8,64h42.5C59.2,64,64,59.2,64,53.2V10.8C64,4.8,59.2,0,53.2,0z
	 M52.7,50.5c-7.1,2.3-20.9,6.9-23.5,7.5c-2.6,0.6-5.2,1.7-6.8-2.6c0,0-12.7-37.7-13.9-41C7.4,11.1,6.3,9.1,8.9,8
	C15,5.6,21.3,2.5,22.5,6c1,3.2,12.2,38,12.2,38s13.1-4.6,16.7-5.6s4.8-1.7,5.8,3.2C58,46.6,59.8,48.1,52.7,50.5z"/>
</svg>
