<?xml version="1.0" encoding="utf-8"?>
<!-- Generator: Adobe Illustrator 18.1.1, SVG Export Plug-In . SVG Version: 6.00 Build 0)  -->
<!DOCTYPE svg PUBLIC "-//W3C//DTD SVG 1.1//EN" "http://www.w3.org/Graphics/SVG/1.1/DTD/svg11.dtd">
<svg version="1.1" id="Layer_1" xmlns="http://www.w3.org/2000/svg" xmlns:xlink="http://www.w3.org/1999/xlink" x="0px" y="0px"
	 viewBox="0 0 64 64" enable-background="new 0 0 64 64" xml:space="preserve">
<g id="lastfm">
	<g>
		<path d="M51.7,28.6c-5-1.5-6.8-2.3-6.8-4c0-2.8,4-3.4,4.4-3.5c2.5-0.4,6.7,0.3,7.8,3.7l6.8-2.1c-2.1-6.8-9.5-9.4-15.7-8.5
			c-6.3,0.9-10.5,5.1-10.5,10.4c0,7.1,6.9,9.2,11.9,10.6c5.3,1.6,7.1,2.5,7.1,4.4c0,1.6-1.3,2.4-3.9,3.1c-5.1,1.3-12,0-13.8-3.1
			c-1.1-1.8-2.1-4.4-3.1-7c-3-8-7.2-18.9-19.2-18.9C10.5,13.8,0,16.3,0,33.4c0,7.1,5.1,16.8,16.5,16.8c9.6,0,11.2-3.9,11.6-4.6
			L25,39.5c-0.1,0.1-3,3.7-8.5,3.7c-9,0-9.4-9.7-9.4-9.8c0-8.9,2.9-12.6,9.6-12.6c6.6,0,9.2,5.7,12.5,14.3c1.1,3,2.2,5.8,3.6,8.1
			c3,4.9,9.8,7,16.3,7c2,0,3.9-0.2,5.6-0.7c5.7-1.5,9.2-5,9.2-9.8C63.9,32.3,56.9,30.2,51.7,28.6z"/>
	</g>
</g>
</svg>
