<?xml version="1.0" encoding="utf-8"?>
<!-- Generator: Adobe Illustrator 18.1.1, SVG Export Plug-In . SVG Version: 6.00 Build 0)  -->
<!DOCTYPE svg PUBLIC "-//W3C//DTD SVG 1.1//EN" "http://www.w3.org/Graphics/SVG/1.1/DTD/svg11.dtd">
<svg version="1.1" id="Layer_1" xmlns="http://www.w3.org/2000/svg" xmlns:xlink="http://www.w3.org/1999/xlink" x="0px" y="0px"
	 viewBox="0 0 64 64" enable-background="new 0 0 64 64" xml:space="preserve">
<g>
	<g>
		<path fill="#010202" d="M64,30.4c0-2.6-2.9-3.8-3.8-3.8c-0.8,0-19.6,0-19.6,0s1.9-8.3,2-11.2c0.1-2.9-2.8-9.1-3.4-9.6
			c-0.6-0.5-3.7-1.1-5.1,0.5c0.1,2.2,0.4,9,0.4,9s-4.6,8.2-7.2,12.3c-2.7,4.1-6,6.1-6,6.1v20.7c0,0,1.2,0,1.8,0
			c0.6,0,2.9,2.1,4.6,2.1c1.7,0,21.6,0,24.4,0c2.1,0,5.6-0.2,5.6-3.6c0-1.3-0.8-2.6-1.4-2.8c0-0.3,0-0.4,0-0.4s3.4-1.1,3.4-4.1
			c0-1.7-1.4-2.5-1.4-2.5l0.2-0.8c0,0,3.2-1.2,3.2-4.2c0-1.9-1.3-2.2-1.3-2.2l0.2-0.9C60.8,34.8,64,33.5,64,30.4z"/>
		<path fill="#010202" d="M14.9,30.9H3.2c-1.8,0-3.2,1.4-3.2,3.2l2.1,21.3c0,1.8,1.4,3.2,3.2,3.2h9.6c1.8,0,3.2-1.4,3.2-3.2V34.1
			C18.1,32.4,16.7,30.9,14.9,30.9z"/>
	</g>
</g>
</svg>
