<?xml version="1.0" encoding="utf-8"?>
<!-- Generator: Adobe Illustrator 18.1.1, SVG Export Plug-In . SVG Version: 6.00 Build 0)  -->
<!DOCTYPE svg PUBLIC "-//W3C//DTD SVG 1.1//EN" "http://www.w3.org/Graphics/SVG/1.1/DTD/svg11.dtd">
<svg version="1.1" id="Layer_1" xmlns="http://www.w3.org/2000/svg" xmlns:xlink="http://www.w3.org/1999/xlink" x="0px" y="0px"
	 viewBox="0 0 64 64" enable-background="new 0 0 64 64" xml:space="preserve">
<path d="M57.9,52.2c-1.7-0.7-3.1-1.8-3-3.9c0.1-2.1-1.5-3.5-1.5-3.5s1.4-4.6,0.1-8.4c-1.3-3.8-5.6-9.8-8.8-14.4
	c-3.3-4.6-0.5-9.9-3.5-16.6c-3-6.8-10.7-6.4-14.9-3.5c-4.2,2.9-2.9,10-2.7,13.4c0.2,3.4,0.1,5.8-0.3,6.7c-0.4,0.9-3.1,4.1-4.9,6.8
	c-1.8,2.7-3.1,8.3-4.4,10.6c-1.3,2.3-0.4,4.4-0.4,4.4S12.7,44,12,45.5c-0.7,1.5-2.1,2.2-4.6,2.7c-2.5,0.5-2.5,2.1-1.9,3.9
	c0.6,1.8,0,2.8-0.7,5.1c-0.7,2.3,2.8,3,6.2,3.4c3.4,0.4,7.2,2.6,10.3,3c3.2,0.4,4.2-2.2,4.2-2.2s3.6-0.8,7.4-0.9
	c3.8-0.1,7.4,0.8,7.4,0.8s0.7,1.6,2,2.3c1.3,0.7,4.1,0.8,5.9-1.1c1.8-1.9,6.6-4.3,9.2-5.8C60,55.1,59.6,52.9,57.9,52.2L57.9,52.2z
	 M34.6,8.3c1.7,0,3.1,1.7,3.1,3.8c0,1.5-0.7,2.8-1.7,3.4c-0.3-0.1-0.5-0.2-0.8-0.3c0.6-0.3,1-1.1,1-2c0-1.2-0.7-2.1-1.6-2.1
	c-0.9,0-1.6,1-1.6,2.1c0,0.4,0.1,0.9,0.3,1.2c-0.5-0.2-1-0.4-1.4-0.5c-0.2-0.5-0.3-1.1-0.3-1.7C31.5,10,32.9,8.3,34.6,8.3L34.6,8.3z
	 M34.4,16.3c0.9,0.3,1.8,0.8,1.7,1.4c-0.1,0.6-0.5,0.6-1.7,1.3c-1.1,0.7-3.7,2.2-4.5,2.3c-0.8,0.1-1.3-0.3-2.1-0.9
	c-0.9-0.6-2.5-1.9-2.1-2.6c0,0,1.3-1,1.8-1.5c0.5-0.5,2-1.7,2.8-1.6C31.2,15,33.5,16,34.4,16.3L34.4,16.3z M26.7,8.9
	c1.3,0,2.4,1.6,2.4,3.6c0,0.4,0,0.7-0.1,1c-0.3,0.1-0.7,0.3-1,0.6c-0.2,0.1-0.3,0.3-0.4,0.4c0.2-0.4,0.3-1,0.2-1.6
	c-0.2-1.1-0.9-1.9-1.6-1.7c-0.7,0.1-1.1,1.1-1,2.2c0.2,1.1,0.9,1.9,1.6,1.8c0,0,0.1,0,0.1,0c-0.3,0.3-0.7,0.6-1,0.9
	c-1-0.5-1.7-1.8-1.7-3.4C24.2,10.5,25.3,8.9,26.7,8.9L26.7,8.9z M24,59.2c-0.3,1.4-2,2.5-2,2.5c-1.5,0.5-5.7-1.3-7.6-2.1
	s-6.8-1-7.4-1.7c-0.6-0.7,0.3-2.3,0.6-3.8c0.2-1.5-0.5-2.5-0.2-3.5c0.2-1,3.3-1,4.5-1.7s1.4-2.8,2.4-3.3c0.9-0.6,2.7,1.4,3.4,2.5
	c0.7,1.1,3.4,5.9,4.5,7.1C23.3,56.2,24.4,57.7,24,59.2L24,59.2z M41.6,45.3c-0.3,1.4-0.3,6.5-0.3,6.5s-3.1,4.3-7.9,5
	c-4.8,0.7-7.2,0.2-7.2,0.2l-2.7-3.1c0,0,2.1-0.3,1.8-2.4c-0.3-2.1-6.4-5-7.5-7.6c-1.1-2.6-0.2-7,1.2-9.2c1.4-2.2,2.3-7,3.7-8.6
	c1.4-1.6,2.5-5,2-6.5c0,0,3,3.6,5.1,3c2.1-0.6,6.8-4.1,7.5-3.5c0.7,0.6,6.7,13.7,7.3,17.9c0.6,4.2-0.4,7.4-0.4,7.4
	S41.9,43.9,41.6,45.3L41.6,45.3z M56.9,54.7c-0.9,0.9-6.1,2.9-7.7,4.6c-1.5,1.6-3.5,2.9-4.8,2.5c-1.2-0.4-2.3-2.1-1.8-4.6
	c0.5-2.5,1-5.2,0.9-6.7c-0.1-1.5-0.4-3.6,0-3.9c0.4-0.3,1-0.2,1-0.2s-0.3,2.9,1.5,3.7c1.8,0.8,4.3-0.3,5.1-1.1
	c0.8-0.8,1.3-1.9,1.3-1.9s0.8,0.4,0.7,1.6c-0.1,1.2,0.5,3,1.7,3.6C56.1,53,57.8,53.8,56.9,54.7L56.9,54.7z M56.9,54.7"/>
</svg>
