<?xml version="1.0" encoding="utf-8"?>
<!-- Generator: Adobe Illustrator 18.1.1, SVG Export Plug-In . SVG Version: 6.00 Build 0)  -->
<!DOCTYPE svg PUBLIC "-//W3C//DTD SVG 1.1//EN" "http://www.w3.org/Graphics/SVG/1.1/DTD/svg11.dtd">
<svg version="1.1" id="Layer_1" xmlns="http://www.w3.org/2000/svg" xmlns:xlink="http://www.w3.org/1999/xlink" x="0px" y="0px"
	 viewBox="0 0 64 64" enable-background="new 0 0 64 64" xml:space="preserve">
<g>
	<path d="M53,32.7c5.5,0,10-4.5,10-9.9s-4.5-9.9-10-9.9c-5.5,0-10,4.5-10,9.9C43.1,28.3,47.5,32.7,53,32.7"/>
	<path d="M53.9,35c-0.1,0-0.2,0-0.2,0c-0.1,0-0.1,0-0.2,0c-0.2,0-0.3,0-0.5,0l0,0l0,0c-0.2,0-0.3,0-0.5,0c-0.1,0-0.1,0-0.2,0
		c-0.1,0-0.1,0-0.2,0c-5.6,0.5-10.1,5.5-10.1,11.3v3.9c0,0.5,0.4,1,1,1h0.3h19.2H63c0.6,0,1-0.5,1-1v-3.9C64,40.6,59.6,35.5,53.9,35
		"/>
	<path d="M29.9,34.6c5,0,9-4,9-9c0-4.9-4-8.9-9-8.9c-5,0-9,4-9,8.9C20.9,30.6,24.9,34.6,29.9,34.6"/>
	<path d="M30.7,36.7c-0.1,0-0.1,0-0.2,0c-0.1,0-0.1,0-0.2,0c-0.1,0-0.3,0-0.4,0h0l0,0c-0.1,0-0.3,0-0.4,0c-0.1,0-0.1,0-0.2,0
		c-0.1,0-0.1,0-0.2,0c-5.1,0.4-9.1,5-9.1,10.1v3.5l0,0c0,0.5,0.4,0.9,0.9,0.9h0.3h17.3h0.3c0.5,0,0.9-0.4,0.9-0.9l0,0v-3.5
		C39.8,41.6,35.8,37.1,30.7,36.7"/>
	<path d="M8.9,36.2c4.5,0,8.1-3.6,8.1-8c0-4.5-3.6-8.1-8.1-8.1c-4.5,0-8.1,3.6-8.1,8.1C0.8,32.6,4.4,36.2,8.9,36.2"/>
	<path d="M9.6,38.1c-0.1,0-0.1,0-0.2,0c-0.1,0-0.1,0-0.2,0c-0.1,0-0.3,0-0.4,0l0,0h0c-0.1,0-0.2,0-0.4,0c0,0-0.1,0-0.1,0
		c-0.1,0-0.1,0-0.2,0C3.6,38.5,0,42.6,0,47.2v3.1c0,0.4,0.4,0.8,0.8,0.8h0.3h15.6H17c0.5,0,0.8-0.4,0.8-0.8v-3.1
		C17.8,42.6,14.2,38.5,9.6,38.1"/>
</g>
</svg>
