<?xml version="1.0" encoding="utf-8"?>
<!-- Generator: Adobe Illustrator 18.1.1, SVG Export Plug-In . SVG Version: 6.00 Build 0)  -->
<!DOCTYPE svg PUBLIC "-//W3C//DTD SVG 1.1//EN" "http://www.w3.org/Graphics/SVG/1.1/DTD/svg11.dtd">
<svg version="1.1" id="Layer_1" xmlns="http://www.w3.org/2000/svg" xmlns:xlink="http://www.w3.org/1999/xlink" x="0px" y="0px"
	 viewBox="0 0 64 64" enable-background="new 0 0 64 64" xml:space="preserve">
<g>
	<path d="M28.8,45.1c-5-0.5-9.4-1.7-13.3-4.7c-0.5-0.4-1-0.7-1.4-1.1c-1.7-1.6-1.8-3.5-0.5-5.4c1.1-1.6,3-2.1,5-1.1
		c0.4,0.2,0.7,0.4,1.1,0.6c7.1,4.9,16.9,5,24.1,0.2c0.7-0.5,1.5-1,2.3-1.2c1.7-0.4,3.3,0.2,4.2,1.7c1,1.7,1,3.4-0.3,4.7
		c-2,2-4.4,3.5-7,4.5c-2.5,1-5.2,1.5-8,1.8c0.4,0.4,0.6,0.7,0.9,0.9c3.7,3.7,7.4,7.4,11.1,11.1c1.3,1.3,1.5,2.8,0.8,4.3
		c-0.8,1.6-2.4,2.7-4.1,2.6c-1-0.1-1.9-0.6-2.6-1.3c-2.8-2.8-5.6-5.5-8.3-8.4c-0.8-0.8-1.2-0.7-1.9,0c-2.8,2.9-5.6,5.7-8.5,8.5
		c-1.3,1.3-2.8,1.5-4.3,0.8c-1.6-0.8-2.6-2.4-2.5-4c0.1-1.1,0.6-1.9,1.3-2.7c3.6-3.6,7.3-7.3,10.9-10.9
		C28.3,45.7,28.5,45.5,28.8,45.1z"/>
	<path d="M31.9,32.4c-8.9,0-16.1-7.4-16.1-16.2C15.9,7.2,23.1,0,32.1,0c9,0,16.1,7.4,16.1,16.4C48.1,25.3,40.8,32.4,31.9,32.4z
		 M39.9,16.2c0-4.4-3.5-7.9-7.9-7.9c-4.4,0-8,3.6-7.9,8c0,4.4,3.6,7.9,8,7.8C36.4,24.1,39.9,20.6,39.9,16.2z"/>
</g>
</svg>
