<?xml version="1.0" encoding="utf-8"?>
<!-- Generator: Adobe Illustrator 18.1.1, SVG Export Plug-In . SVG Version: 6.00 Build 0)  -->
<!DOCTYPE svg PUBLIC "-//W3C//DTD SVG 1.1//EN" "http://www.w3.org/Graphics/SVG/1.1/DTD/svg11.dtd">
<svg version="1.1" id="Layer_1" xmlns="http://www.w3.org/2000/svg" xmlns:xlink="http://www.w3.org/1999/xlink" x="0px" y="0px"
	 viewBox="0 0 64 64" enable-background="new 0 0 64 64" xml:space="preserve">
<g>
	<path d="M59.3,15c-0.6-0.7-1.3-1.4-2.1-2c0.1,1.9-0.1,4-0.5,6.2c-1.3,5.9-4.3,11-8.8,14.6c-4.5,3.6-10,5.5-16.1,5.5h-8.9l-2.9,13.4
		c-0.6,2.6-2.9,4.6-5.6,4.6h-4l-0.7,3.3c-0.2,0.9,0,1.7,0.6,2.4c0.5,0.7,1.4,1.1,2.2,1.1h9.8c1.4,0,2.5-0.9,2.8-2.3L28.5,46h11.2
		c5.4,0,10.4-1.7,14.3-4.9c3.9-3.2,6.6-7.7,7.8-13C62.9,22.8,62.1,18.4,59.3,15z"/>
	<path d="M17.2,52.1l3.4-15.7h11.2c5.4,0,10.4-1.7,14.3-4.9c3.9-3.2,6.6-7.7,7.8-13c1.1-5.3,0.3-9.8-2.4-13.2C48.8,2,44.3,0,39.6,0
		H15.2c-1.4,0-2.5,0.9-2.8,2.3L1.8,50.8c-0.2,0.9,0,1.7,0.6,2.4c0.5,0.7,1.4,1.1,2.2,1.1h9.8C15.8,54.3,17,53.4,17.2,52.1z
		 M26.2,11.1h7.7c1.8,0,3.4,0.8,4.4,2.1c1.1,1.4,1.4,3.3,0.9,5.3c0,0,0,0.1,0,0.1c-1,4.1-5,7.4-8.9,7.4h-7.4L26.2,11.1z"/>
</g>
</svg>
