<?xml version="1.0" encoding="utf-8"?>
<!-- Generator: Adobe Illustrator 18.1.1, SVG Export Plug-In . SVG Version: 6.00 Build 0)  -->
<!DOCTYPE svg PUBLIC "-//W3C//DTD SVG 1.1//EN" "http://www.w3.org/Graphics/SVG/1.1/DTD/svg11.dtd">
<svg version="1.1" id="Layer_1" xmlns="http://www.w3.org/2000/svg" xmlns:xlink="http://www.w3.org/1999/xlink" x="0px" y="0px"
	 viewBox="0 0 64 64" enable-background="new 0 0 64 64" xml:space="preserve">
<g>
	<path fill="#010202" d="M21.7,36.8l-0.1,0.6c0.2-1.4,1.4-2.4,2.8-2.4h5.8c11.3,0,20.2-4.6,22.8-17.9c0.1-0.4,0.1-0.8,0.2-1.1l0,0
		c0.8-4.9,0-8.3-2.7-11.3C47.5,1.4,42.2,0,35.4,0H15.8c-1.4,0-2.6,1-2.8,2.4L4.8,54.2c-0.2,1,0.6,1.9,1.7,1.9h12.1L21.7,36.8"/>
	<path fill="#010202" d="M56.7,19c-0.2-0.2-0.3-0.4-0.5-0.5c0,0,0,0,0,0c-2.5,13-11.3,19.9-25.2,19.9h-5.8c-0.1,0-0.2,0.1-0.3,0.2h0
		l-3.1,19.9c-0.1,0.7-0.5,0.9-1.1,0.9h-0.4c-0.6,0-1.3,0.5-1.4,1.2l-0.3,1.6c-0.1,0.9,0.6,1.7,1.5,1.7h10.2c1.2,0,2.2-0.9,2.4-2.1
		l0.1-0.5l1.9-12.2l0.1-0.7c0.2-1.2,1.2-2.1,2.4-2.1h1.5c9.9,0,17.6-4,19.9-15.6C59.7,26,59.2,21.9,56.7,19z"/>
</g>
</svg>
