<?xml version="1.0" encoding="utf-8"?>
<!-- Generator: Adobe Illustrator 18.1.1, SVG Export Plug-In . SVG Version: 6.00 Build 0)  -->
<!DOCTYPE svg PUBLIC "-//W3C//DTD SVG 1.1//EN" "http://www.w3.org/Graphics/SVG/1.1/DTD/svg11.dtd">
<svg version="1.1" id="Layer_1" xmlns="http://www.w3.org/2000/svg" xmlns:xlink="http://www.w3.org/1999/xlink" x="0px" y="0px"
	 viewBox="0 0 64 64" enable-background="new 0 0 64 64" xml:space="preserve">
<g id="picassa">
	<g>
		<path d="M48,3.9C43.5,1.4,37.5,0,32,0c-3.2,0-6.3,0.5-9.3,1.4l25.3,26V3.9L48,3.9z M18,4.1C6.3,8.8,0,21.4,0,32
			c0,1.9,0.2,3.8,0.5,5.7l28.2-21.8L18,4.1z M52,6.2v37.6h9.4C63.6,39.5,64,37.2,64,32C64,21,60.5,12,52,6.2z M16,59.6V32.2
			L2.7,42.9C4.8,50.5,9.5,55.4,16,59.6z M28,48.1h-3.3H20v13.7c4.4,2.3,5.7,2.3,12,2.3c11.4,0,21.4-7,27-15.9H48.8H28z"/>
	</g>
</g>
</svg>
