<?xml version="1.0" encoding="utf-8"?>
<!-- Generator: Adobe Illustrator 18.1.1, SVG Export Plug-In . SVG Version: 6.00 Build 0)  -->
<!DOCTYPE svg PUBLIC "-//W3C//DTD SVG 1.1//EN" "http://www.w3.org/Graphics/SVG/1.1/DTD/svg11.dtd">
<svg version="1.1" id="Layer_1" xmlns="http://www.w3.org/2000/svg" xmlns:xlink="http://www.w3.org/1999/xlink" x="0px" y="0px"
	 viewBox="0 0 64 64" enable-background="new 0 0 64 64" xml:space="preserve">
<g>
	<path d="M0,0v64h64V0H0z M39.1,44.5h-4v9.4h-7.2V30.5c-1.1,0.2-2.3,0.4-3.6,0.4h-4v9.4H13V10.1h11.2c7.4,0,11.9,3.9,11.9,10.4
		c0,1.2-0.2,2.3-0.5,3.3h3.4c7.4,0,11.9,3.9,11.9,10.4C51,40.5,46.5,44.5,39.1,44.5z"/>
	<path d="M24.5,16.7h-4.2v7.9h4.2c3.1,0,4.4-1.6,4.4-4C28.9,18.3,27.5,16.7,24.5,16.7z"/>
	<path d="M39.3,30.3h-4.2v7.9h4.2c3.1,0,4.4-1.6,4.4-4C43.7,31.9,42.3,30.3,39.3,30.3z"/>
</g>
</svg>
