<?xml version="1.0" encoding="utf-8"?>
<!-- Generator: Adobe Illustrator 18.1.1, SVG Export Plug-In . SVG Version: 6.00 Build 0)  -->
<!DOCTYPE svg PUBLIC "-//W3C//DTD SVG 1.1//EN" "http://www.w3.org/Graphics/SVG/1.1/DTD/svg11.dtd">
<svg version="1.1" id="Layer_1" xmlns="http://www.w3.org/2000/svg" xmlns:xlink="http://www.w3.org/1999/xlink" x="0px" y="0px"
	 viewBox="0 0 64 64" enable-background="new 0 0 64 64" xml:space="preserve">
<g id="pinterest">
	<g>
		<path d="M32,0C14.3,0,0,14.3,0,32c0,13.2,8,24.5,19.3,29.4c-0.1-2.2,0-4.9,0.6-7.3c0.6-2.6,4.1-17.5,4.1-17.5s-1-2.1-1-5.1
			c0-4.8,2.8-8.3,6.2-8.3c2.9,0,4.3,2.2,4.3,4.8c0,2.9-1.9,7.3-2.8,11.4c-0.8,3.4,1.7,6.2,5.1,6.2c6.1,0,10.2-7.8,10.2-17.1
			c0-7-4.7-12.3-13.4-12.3c-9.7,0-15.8,7.3-15.8,15.4c0,2.8,0.8,4.8,2.1,6.3c0.6,0.7,0.7,1,0.5,1.8c-0.2,0.6-0.5,2-0.7,2.6
			c-0.2,0.8-0.9,1.1-1.6,0.8c-4.5-1.8-6.6-6.7-6.6-12.3c0-9.1,7.7-20.1,23-20.1c12.3,0,20.3,8.9,20.3,18.4c0,12.6-7,22-17.3,22
			c-3.5,0-6.7-1.9-7.8-4c0,0-1.9,7.4-2.3,8.8c-0.7,2.4-2,4.9-3.2,6.8C26,63.6,28.9,64,32,64c17.7,0,32-14.3,32-32S49.7,0,32,0z"/>
	</g>
</g>
</svg>
