<?xml version="1.0" encoding="utf-8"?>
<!-- Generator: Adobe Illustrator 18.1.1, SVG Export Plug-In . SVG Version: 6.00 Build 0)  -->
<!DOCTYPE svg PUBLIC "-//W3C//DTD SVG 1.1//EN" "http://www.w3.org/Graphics/SVG/1.1/DTD/svg11.dtd">
<svg version="1.1" id="Layer_1" xmlns="http://www.w3.org/2000/svg" xmlns:xlink="http://www.w3.org/1999/xlink" x="0px" y="0px"
	 viewBox="0 0 64 64" enable-background="new 0 0 64 64" xml:space="preserve">
<g>
	<path d="M30.4,64c1,0,2.1,0.1,3.2,0C50.6,63.1,64,49,64,31.9c0-2.4-0.3-4.7-0.8-7c-0.5,4.7-3,8.9-7,11.5L32,50.4l-10.5-6L17.6,42
		v8.2C17.8,57.2,23.3,63.2,30.4,64z"/>
	<path d="M5.1,14.6c-0.3,0.4-0.5,0.9-0.8,1.4c-0.3,0.5-0.5,0.9-0.8,1.4c-7.7,15.3-2.2,33.9,12.7,42.3c2.1,1.2,4.2,2.1,6.4,2.8
		c-3.8-2.7-6.2-7-6.5-11.8l-0.1-28l10.4-6.1l4-2.2l-7.1-4.1c-2-1.1-4.3-1.7-6.6-1.7C12.1,8.6,7.8,10.9,5.1,14.6z"/>
	<path d="M60.7,17.4c-0.2-0.4-0.5-0.9-0.8-1.4c-0.3-0.5-0.6-0.9-0.8-1.4C53.1,5.5,43.1,0,32.2,0c-5.6,0-11.2,1.5-16,4.3
		c-2,1.2-3.9,2.6-5.6,4.2c2-0.9,4.2-1.4,6.4-1.4c2.4,0,4.9,0.6,7,1.7l24.2,14l0,12.1l-0.1,4.6l7.1-4.1
		C61.2,31.6,63.5,23.9,60.7,17.4z"/>
</g>
</svg>
