<?xml version="1.0" encoding="utf-8"?>
<!-- Generator: Adobe Illustrator 18.1.1, SVG Export Plug-In . SVG Version: 6.00 Build 0)  -->
<!DOCTYPE svg PUBLIC "-//W3C//DTD SVG 1.1//EN" "http://www.w3.org/Graphics/SVG/1.1/DTD/svg11.dtd">
<svg version="1.1" id="Layer_1" xmlns="http://www.w3.org/2000/svg" xmlns:xlink="http://www.w3.org/1999/xlink" x="0px" y="0px"
	 viewBox="0 0 64 64" enable-background="new 0 0 64 64" xml:space="preserve">
<path d="M52,26.7c0.5-1.9,0.8-3.8,0.8-5.8C52.9,9.3,43.5,0,32,0C20.5,0,11.2,9.3,11.2,20.9c0,2,0.3,4,0.8,5.8
	C9.4,28.8-0.8,37.9,3.4,49.8c0,0,3.5-0.3,6.5-5.7c0.9,3.4,2.5,6.6,4.8,9.2c-3.3,1-5.5,2.8-5.5,5c0,3.1,4.8,5.7,10.6,5.7
	c4,0,7.4-1.2,9.3-2.9c1,0.1,2,0.2,3,0.2c1,0,2-0.1,3-0.2c1.8,1.7,5.3,2.9,9.3,2.9c5.9,0,10.6-2.6,10.6-5.7c0-2.2-2.2-4-5.5-5
	c2.2-2.6,3.9-5.8,4.8-9.2c2.9,5.4,6.5,5.7,6.5,5.7C64.8,37.9,54.6,28.8,52,26.7z"/>
</svg>
