<?xml version="1.0" encoding="utf-8"?>
<!-- Generator: Adobe Illustrator 18.1.1, SVG Export Plug-In . SVG Version: 6.00 Build 0)  -->
<!DOCTYPE svg PUBLIC "-//W3C//DTD SVG 1.1//EN" "http://www.w3.org/Graphics/SVG/1.1/DTD/svg11.dtd">
<svg version="1.1" id="Layer_1" xmlns="http://www.w3.org/2000/svg" xmlns:xlink="http://www.w3.org/1999/xlink" x="0px" y="0px"
	 viewBox="0 0 64 64" enable-background="new 0 0 64 64" xml:space="preserve">
<path d="M63.9,24.7c-0.2-0.5-0.6-0.8-1.1-0.9l-20.6-1.9L33.3,2.3c-0.2-0.5-0.7-0.8-1.2-0.8c-0.5,0-1,0.3-1.2,0.8l-9.2,19.2L1.2,23.8
	c-0.5,0-1,0.4-1.1,0.9c-0.2,0.5,0,1,0.4,1.4L15.6,40l-3.7,20.9c-0.1,0.5,0.1,1,0.5,1.4c0.2,0.2,0.5,0.2,0.8,0.2
	c0.2,0,0.5-0.1,0.7-0.2l18.4-10.6l18.1,10.7c0.5,0.1,1,0.1,1.5-0.2c0.4-0.3,0.6-0.8,0.5-1.3l-2.7-15.5c0.7-0.3,2.8-1.3,4-2.6
	c-1.8,0.7-2.5,0.9-4.3,1.3v0c-12.2,2.3-30.8,0.4-31.5,0.3l20.5-15c-6.9-1.3-23-1.8-24-1.8c-0.1,0-0.2,0-0.1,0c0,0,0,0,0.1,0
	c0.8-0.1,21.8-3.6,34-0.1L27.6,42c0,0,15.9,1.5,21.5,0.9L48.7,40l15-13.9C63.9,25.8,64.1,25.2,63.9,24.7z"/>
</svg>
