<?xml version="1.0" encoding="utf-8"?>
<!-- Generator: Adobe Illustrator 18.1.1, SVG Export Plug-In . SVG Version: 6.00 Build 0)  -->
<!DOCTYPE svg PUBLIC "-//W3C//DTD SVG 1.1//EN" "http://www.w3.org/Graphics/SVG/1.1/DTD/svg11.dtd">
<svg version="1.1" id="Layer_1" xmlns="http://www.w3.org/2000/svg" xmlns:xlink="http://www.w3.org/1999/xlink" x="0px" y="0px"
	 viewBox="0 0 64 64" enable-background="new 0 0 64 64" xml:space="preserve">
<path d="M53.3,28.4c8.2-2.4,13-11.1,9.5-11.3c-8.8-0.4-16.4-4.7-21.5-7.9c-0.5-0.4-1.1-0.7-1.7-1v19.9c0,6.6-4,11.8-8.5,14
	c-6.6,3.2-13.9,1.2-16.3-4.4c-2.5-5.6,0.9-12.7,7.4-15.9c3.6-1.8,7.5-1.9,10.6-0.8V5.6c-2-0.5-4-0.7-6.2-0.7C12,4.9,0,17,0,32
	s12,27.1,26.8,27.1C41.6,59.1,53.6,47,53.6,32C53.6,30.8,53.5,29.6,53.3,28.4z"/>
</svg>
