<?xml version="1.0" encoding="utf-8"?>
<!-- Generator: Adobe Illustrator 18.1.1, SVG Export Plug-In . SVG Version: 6.00 Build 0)  -->
<!DOCTYPE svg PUBLIC "-//W3C//DTD SVG 1.1//EN" "http://www.w3.org/Graphics/SVG/1.1/DTD/svg11.dtd">
<svg version="1.1" id="Layer_1" xmlns="http://www.w3.org/2000/svg" xmlns:xlink="http://www.w3.org/1999/xlink" x="0px" y="0px"
	 viewBox="0 0 64 64" enable-background="new 0 0 64 64" xml:space="preserve">
<g>
	<circle cx="22.5" cy="36.2" r="4.3"/>
	<path d="M64,32.7c0-5.3-4.2-9.7-9.4-9.7c-1.8,0-3.5,0.5-4.9,1.5c-4.4-2.6-10-4.2-16.1-4.4L37.1,10l7.3,1.7c0,0.2-0.1,0.5-0.1,0.7
		c0,4,3.3,7.3,7.3,7.3c4,0,7.3-3.3,7.3-7.3c0-4-3.3-7.3-7.3-7.3c-2.6,0-4.9,1.4-6.2,3.5L35,6.1l-4.9,14c-6.1,0.3-11.6,2-16,4.7
		c0.1-0.1,0.2-0.1,0.2-0.2c-1.5-1-3.2-1.6-5.1-1.6C4.2,23,0,27.4,0,32.7c0,3.6,1.9,6.7,4.7,8.3c1.1,10,13,17.8,27.5,17.8
		c14.6,0,26.5-8,27.5-18C62.3,39.1,64,36.1,64,32.7z M51.6,8.4c2.2,0,4,1.8,4,4c0,2.2-1.8,4-4,4c-2.2,0-4-1.8-4-4
		C47.6,10.2,49.4,8.4,51.6,8.4z M9.4,26.3c0.7,0,1.4,0.2,2.1,0.4C7.9,29.5,5.5,33.1,4.8,37c-1-1.1-1.6-2.6-1.6-4.3
		C3.2,29.2,6,26.3,9.4,26.3z M32.2,55.6c-13.4,0-24.4-7.2-24.4-16.2c0-8.9,10.9-16.2,24.4-16.2c13.4,0,24.3,7.2,24.3,16.2
		C56.5,48.4,45.6,55.6,32.2,55.6z M59.4,36.6c-0.8-3.8-3.2-7.3-6.6-10c0.6-0.2,1.2-0.3,1.8-0.3c3.4,0,6.1,2.9,6.1,6.4
		C60.8,34.2,60.3,35.5,59.4,36.6z"/>
	<circle cx="41" cy="36.2" r="4.3"/>
	<path d="M40.3,45.8c-9.1,6-16.5,0.3-16.8,0.1c-0.7-0.6-1.7-0.4-2.3,0.2c-0.6,0.7-0.5,1.7,0.2,2.3c0.1,0.1,4.3,3.4,10.4,3.4
		c3,0,6.6-0.8,10.3-3.3c0.7-0.5,1-1.5,0.5-2.2C42.1,45.5,41.1,45.3,40.3,45.8z"/>
</g>
</svg>
