<?xml version="1.0" encoding="utf-8"?>
<!-- Generator: Adobe Illustrator 18.1.1, SVG Export Plug-In . SVG Version: 6.00 Build 0)  -->
<!DOCTYPE svg PUBLIC "-//W3C//DTD SVG 1.1//EN" "http://www.w3.org/Graphics/SVG/1.1/DTD/svg11.dtd">
<svg version="1.1" id="Layer_1" xmlns="http://www.w3.org/2000/svg" xmlns:xlink="http://www.w3.org/1999/xlink" x="0px" y="0px"
	 viewBox="0 0 64 64" enable-background="new 0 0 64 64" xml:space="preserve">
<g>
	<path d="M51,6c-4.1-3-8.6-4.9-13.5-5.7v20.2c0,7,1.8,13.4,5.3,19.1c3.5,5.8,8.1,10,13.8,12.8c5-6,7.5-12.8,7.5-20.6
		c0-5.2-1.2-10-3.5-14.6C58.2,12.7,55,9,51,6z"/>
	<path d="M21.3,39.6c3.5-5.8,5.3-12.1,5.3-19.1V0.3C21.6,1.1,17.1,3,13,6C9,9,5.8,12.7,3.5,17.2C1.2,21.7,0,26.6,0,31.8
		c0,7.8,2.5,14.7,7.5,20.6C13.2,49.7,17.8,45.4,21.3,39.6z"/>
	<path d="M37.4,51c-2.7-3.4-4.5-7.2-5.5-11.2c-0.9,4-2.8,7.7-5.5,11.2c-2.7,3.4-6,6.4-9.8,8.8c4.8,2.6,9.8,3.9,15.3,3.9
		c5.5,0,10.6-1.3,15.3-3.9C43.4,57.4,40.1,54.4,37.4,51z"/>
</g>
</svg>
