<?xml version="1.0" encoding="utf-8"?>
<!-- Generator: Adobe Illustrator 18.1.1, SVG Export Plug-In . SVG Version: 6.00 Build 0)  -->
<!DOCTYPE svg PUBLIC "-//W3C//DTD SVG 1.1//EN" "http://www.w3.org/Graphics/SVG/1.1/DTD/svg11.dtd">
<svg version="1.1" id="Layer_1" xmlns="http://www.w3.org/2000/svg" xmlns:xlink="http://www.w3.org/1999/xlink" x="0px" y="0px"
	 viewBox="0 0 64 64" enable-background="new 0 0 64 64" xml:space="preserve">
<g id="rss">
	<g>
		<path d="M8.6,46.7c-4.7,0-8.6,3.8-8.6,8.6c0,4.7,3.9,8.6,8.6,8.6c4.8,0,8.6-3.8,8.6-8.6C17.2,50.6,13.3,46.7,8.6,46.7z M0.7,21.6
			c-0.2,0-0.3,0-0.5,0v11.9c0.2,0,0.3,0,0.5,0c16.4,0,29.8,13.3,29.8,29.7c0,0.3,0,0.5,0,0.7h11.9c0-0.3,0-0.5,0-0.7
			C42.4,40.2,23.7,21.6,0.7,21.6z M0.7,0.1c-0.2,0-0.3,0-0.5,0V12c0.2,0,0.3,0,0.5,0c28.3,0,51.3,23,51.3,51.2c0,0.3,0,0.5,0,0.7H64
			c0-0.3,0-0.5,0-0.7C64,28.4,35.6,0.1,0.7,0.1z"/>
	</g>
</g>
</svg>
