<?xml version="1.0" encoding="utf-8"?>
<!-- Generator: Adobe Illustrator 18.1.1, SVG Export Plug-In . SVG Version: 6.00 Build 0)  -->
<!DOCTYPE svg PUBLIC "-//W3C//DTD SVG 1.1//EN" "http://www.w3.org/Graphics/SVG/1.1/DTD/svg11.dtd">
<svg version="1.1" id="Layer_1" xmlns="http://www.w3.org/2000/svg" xmlns:xlink="http://www.w3.org/1999/xlink" x="0px" y="0px"
	 viewBox="0 0 64 64" enable-background="new 0 0 64 64" xml:space="preserve">
<path d="M32,4c-1.5,0-3,0.1-4.4,0.3c0,0,0-0.1-0.1-0.1c0.8-0.6,1.2-1.5,1-2.3C28.3,0.7,27.2,0,25.6,0c-0.3,0-0.7,0-1,0.1
	c-1.9,0.4-3.1,1.8-2.8,3.2C22,4.1,22.7,4.7,23.7,5c0,0.1,0,0.1,0,0.2C11.2,8.8,2,20.3,2,34c0,16.6,13.4,30,30,30s30-13.4,30-30
	S48.6,4,32,4z M22.8,3.1c-0.2-0.8,0.8-1.7,2.1-2C25.1,1,25.4,1,25.6,1c1,0,1.8,0.4,1.9,1c0.1,0.5-0.2,1-0.7,1.4
	c-0.4-0.3-1-0.4-1.6-0.3c-0.6,0.1-1,0.5-1.3,0.9C23.4,3.9,22.9,3.5,22.8,3.1z M48.1,50.1c-2.7,2.7-6.1,4.7-9.7,5.8l-2.6-4.3l-0.7,5
	c-1,0.1-2,0.2-3.1,0.2c-6.1,0-11.8-2.4-16.1-6.7c-2.7-2.7-4.7-6.1-5.8-9.7l4.3-2.6l-5-0.7c-0.1-1-0.2-2-0.2-3.1
	c0-6.1,2.4-11.8,6.7-16.1c2.7-2.7,6.1-4.7,9.7-5.8l2.6,4.3l0.7-5c1-0.1,2-0.2,3.1-0.2c6.1,0,11.8,2.4,16.1,6.7
	c2.7,2.7,4.7,6.1,5.8,9.7l-4.3,2.7l5,0.7c0.1,1,0.2,2,0.2,3.1C54.8,40.1,52.4,45.8,48.1,50.1z M47.6,18.4l-12.3,9.4
	c-0.9-0.5-1.9-0.8-3-0.8l-3.2-6.7l-0.2,7.4c-0.8,0.4-1.6,1-2.2,1.7L22.8,28l2.9,3c-0.4,0.8-0.6,1.8-0.7,2.7l-6.7,3.2l7.4,0.2
	c0,0,0,0.1,0.1,0.1l-9.4,12.3l12.3-9.4c0.9,0.5,1.9,0.8,3,0.8l3.2,6.7l0.2-7.4c0.8-0.4,1.6-1,2.2-1.7l3.9,1.4l-2.9-3
	c0.4-0.8,0.6-1.8,0.7-2.7l6.7-3.2l-7.4-0.2c0,0,0-0.1-0.1-0.1L47.6,18.4z M32,27.8V28V27.8L32,27.8z M30.8,28.1
	C31.2,28,31.6,28,32,28c0.3,0,0.5,0,0.8,0l0,0l0,0c0.5,0.1,1.1,0.2,1.6,0.4l-4.5,3.4l-3.4,4.5c-0.1-0.3-0.3-0.7-0.3-1.1
	C25.4,32,27.5,28.8,30.8,28.1z M35.1,39.1L35.1,39.1L35.1,39.1c-0.6,0.3-1.2,0.6-1.9,0.8C32.8,40,32.4,40,32,40c-0.3,0-0.5,0-0.8,0
	l0,0l0,0c-0.5-0.1-1.1-0.2-1.6-0.4l4.5-3.4l3.4-4.5c0.1,0.3,0.3,0.7,0.3,1.1C38.4,35.3,37.2,37.8,35.1,39.1z"/>
</svg>
