<?xml version="1.0" encoding="utf-8"?>
<!-- Generator: Adobe Illustrator 18.1.1, SVG Export Plug-In . SVG Version: 6.00 Build 0)  -->
<!DOCTYPE svg PUBLIC "-//W3C//DTD SVG 1.1//EN" "http://www.w3.org/Graphics/SVG/1.1/DTD/svg11.dtd">
<svg version="1.1" id="Layer_1" xmlns="http://www.w3.org/2000/svg" xmlns:xlink="http://www.w3.org/1999/xlink" x="0px" y="0px"
	 viewBox="0 0 64 64" enable-background="new 0 0 64 64" xml:space="preserve">
<g>
	<path d="M28.7,28.8l23.8-17.4L35.2,35.3L28.7,28.8z"/>
	<path d="M35.2,35.2L11.5,52.5l17.3-23.7L35.2,35.2z"/>
	<path d="M32,4.3C32,4.3,32,4.3,32,4.3C32,4.3,32,4.3,32,4.3C32,4.3,32,4.3,32,4.3C32,4.3,32,4.3,32,4.3C32,4.3,32,4.3,32,4.3
		C32,4.3,32,4.3,32,4.3C32,4.3,32,4.3,32,4.3C32,4.3,32,4.3,32,4.3C31.9,4.3,31.9,4.3,32,4.3C31.9,4.3,31.9,4.3,32,4.3
		C31.9,4.3,31.9,4.3,32,4.3C31.9,4.3,31.9,4.3,32,4.3C31.9,4.3,31.9,4.3,32,4.3C31.9,4.3,31.9,4.3,32,4.3C31.9,4.3,31.9,4.3,32,4.3
		C31.9,4.3,31.9,4.3,32,4.3c-0.1,0-0.1,0-0.1,0c0,0,0,0,0,0c0,0,0,0,0,0c0,0,0,0,0,0c0,0,0,0,0,0c0,0,0,0,0,0c0,0,0,0,0,0
		c0,0,0,0,0,0c0,0,0,0,0,0c0,0,0,0,0,0c0,0,0,0,0,0c0,0,0,0,0,0c0,0,0,0,0,0h0c0,0,0,0,0,0h0c0,0,0,0,0,0c0,0,0,0,0,0c0,0,0,0,0,0h0
		c-0.2,0-0.3,0-0.5,0l0.1,2.9c0.2,0,0.4,0,0.6,0V4.3L32,4.3L32,4.3z M27.2,4.7c-0.2,0-0.5,0.1-0.7,0.1l0.6,2.9
		c0.2,0,0.4-0.1,0.6-0.1L27.2,4.7L27.2,4.7z M22.5,5.9c-0.1,0-0.2,0.1-0.3,0.1l0,0c0,0,0,0,0,0c0,0,0,0,0,0c0,0,0,0,0,0c0,0,0,0,0,0
		c0,0,0,0,0,0c0,0,0,0,0,0c0,0,0,0,0,0c0,0,0,0,0,0c0,0,0,0,0,0c0,0,0,0,0,0c0,0,0,0,0,0c-0.1,0-0.2,0.1-0.3,0.1L23,8.9
		c0.2-0.1,0.4-0.1,0.6-0.2L22.5,5.9L22.5,5.9z M18.2,7.9C18.1,8,18,8.1,17.9,8.1c0,0,0,0,0,0c0,0,0,0,0,0c0,0,0,0,0,0c0,0,0,0,0,0
		c0,0,0,0,0,0c0,0,0,0,0,0c0,0,0,0,0,0c0,0,0,0,0,0c0,0,0,0,0,0c0,0,0,0,0,0c0,0,0,0,0,0c0,0,0,0,0,0c0,0,0,0,0,0c0,0,0,0,0,0
		c0,0,0,0,0,0l0,0c-0.1,0-0.2,0.1-0.2,0.1l1.5,2.5c0.2-0.1,0.4-0.2,0.5-0.3L18.2,7.9L18.2,7.9z M14.2,10.7c0,0-0.1,0.1-0.1,0.1h0
		c0,0,0,0,0,0c0,0,0,0,0,0c0,0,0,0,0,0c0,0,0,0,0,0c0,0,0,0,0,0c0,0,0,0,0,0c0,0,0,0,0,0c0,0,0,0,0,0c0,0,0,0,0,0c0,0,0,0,0,0
		c0,0,0,0,0,0c0,0,0,0,0,0c0,0,0,0,0,0c0,0,0,0,0,0c0,0,0,0,0,0c0,0,0,0,0,0c0,0,0,0,0,0c0,0,0,0,0,0c0,0,0,0,0,0c0,0,0,0,0,0
		c0,0,0,0,0,0c0,0-0.1,0-0.1,0.1l0,0c0,0,0,0,0,0l0,0c0,0,0,0,0,0c0,0,0,0,0,0c0,0,0,0,0,0c0,0,0,0,0,0c0,0,0,0,0,0c0,0,0,0,0,0
		c0,0,0,0,0,0c0,0,0,0,0,0c0,0,0,0,0,0c0,0,0,0,0,0c0,0,0,0,0,0c0,0,0,0,0,0c0,0,0,0,0,0c0,0,0,0,0,0c0,0,0,0,0,0c0,0,0,0,0,0
		c0,0,0,0,0,0c0,0,0,0,0,0c0,0,0,0,0,0l0,0c0,0,0,0,0,0c0,0,0,0,0,0c0,0-0.1,0.1-0.1,0.1l1.9,2.2c0.2-0.1,0.3-0.3,0.5-0.4L14.2,10.7
		L14.2,10.7z M10.8,14.1c-0.1,0.1-0.2,0.3-0.3,0.4c0,0,0,0,0,0c0,0,0,0,0,0c0,0,0,0,0,0c0,0,0,0,0,0c0,0,0,0,0,0c0,0,0,0,0,0
		c0,0,0,0,0,0l0,0c0,0,0,0.1-0.1,0.1l2.3,1.8c0.1-0.2,0.3-0.3,0.4-0.5L10.8,14.1L10.8,14.1z M8,18C8,18.1,8,18.1,8,18L8,18
		C8,18.1,8,18.1,8,18.1c0,0,0,0,0,0c0,0,0,0,0,0c0,0,0,0,0,0c0,0,0,0,0,0c0,0,0,0,0,0c0,0,0,0,0,0c0,0,0,0,0,0c0,0,0,0,0,0
		c0,0,0,0,0,0c0,0,0,0,0,0c0,0,0,0,0,0c0,0,0,0,0,0c0,0,0,0,0,0c0,0,0,0,0,0c0,0,0,0,0,0c0,0,0,0,0,0c0,0,0,0,0,0c0,0,0,0,0,0
		c0,0,0,0,0,0c0,0,0,0,0,0c0,0,0,0,0,0l0,0c0,0,0,0,0,0c0,0,0,0,0,0c0,0,0,0,0,0c0,0,0,0,0,0c0,0,0,0,0,0c0,0,0,0,0,0c0,0,0,0,0,0
		c0,0,0,0,0,0c0,0,0,0,0,0c0,0,0,0,0,0c0,0,0,0,0,0l0,0c0,0,0,0,0,0l0,0c0,0,0,0,0,0c0,0,0,0,0,0c0,0,0,0,0,0c0,0,0,0,0,0
		c0,0,0,0,0,0c0,0,0,0,0,0c0,0,0,0,0,0c0,0,0,0,0,0l0,0c0,0,0,0,0,0l0,0c0,0,0,0,0,0v0c-0.1,0.1-0.1,0.2-0.1,0.3l2.6,1.4
		c0.1-0.2,0.2-0.4,0.3-0.5L8,18L8,18z M6,22.4c0,0,0,0.1,0,0.1c0,0,0,0,0,0c0,0,0,0,0,0c0,0,0,0,0,0c0,0,0,0,0,0c0,0,0,0,0,0
		c0,0,0,0,0,0c0,0,0,0,0,0c0,0,0,0,0,0c0,0,0,0,0,0c0,0,0,0,0,0c0,0,0,0,0,0l0,0c0,0,0,0,0,0v0c-0.1,0.2-0.1,0.3-0.2,0.5L8.5,24
		c0.1-0.2,0.1-0.4,0.2-0.6L6,22.4L6,22.4z M4.7,27c0,0.1,0,0.1,0,0.2l0,0c0,0,0,0,0,0c0,0,0,0,0,0c0,0,0,0,0,0c0,0,0,0,0,0
		c0,0,0,0,0,0c0,0,0,0,0,0c0,0,0,0,0,0c0,0,0,0,0,0c0,0,0,0,0,0c0,0,0,0,0,0c0,0,0,0,0,0c0,0,0,0,0,0c0,0,0,0,0,0c0,0,0,0,0,0
		c0,0,0,0,0,0c0,0,0,0,0,0c0,0,0,0,0,0c0,0,0,0,0,0c0,0,0,0,0,0c0,0,0,0,0,0c0,0,0,0,0,0c0,0,0,0,0,0c0,0,0,0,0,0c0,0,0,0,0,0
		c0,0,0,0,0,0c0,0,0,0,0,0c0,0,0,0,0,0c0,0,0,0,0,0c0,0,0,0,0,0c0,0,0,0,0,0c0,0,0,0,0,0c0,0,0,0,0,0l0,0c0,0,0,0,0,0c0,0,0,0,0,0
		c0,0,0,0,0,0c0,0,0,0,0,0c0,0,0,0,0,0c0,0,0,0,0,0c0,0,0,0,0,0c0,0,0,0,0,0c0,0,0,0,0,0c0,0,0,0,0,0l0,0c0,0,0,0,0,0v0
		c0,0.1,0,0.2,0,0.2l2.9,0.4c0-0.2,0.1-0.4,0.1-0.6L4.7,27L4.7,27z M4.3,31.8c0,0,0,0.1,0,0.1v0c0,0,0,0,0,0v0c0,0,0,0,0,0l0,0
		c0,0,0,0,0,0c0,0,0,0,0,0c0,0,0,0,0,0c0,0,0,0,0,0c0,0,0,0,0,0c0,0,0,0,0,0c0,0,0,0,0,0c0,0,0,0,0,0c0,0,0,0,0,0c0,0,0,0,0,0
		c0,0,0,0,0,0c0,0,0,0,0,0c0,0,0,0,0,0c0,0,0,0,0,0v0c0,0,0,0,0,0v0c0,0.1,0,0.3,0,0.4l2.9-0.1c0-0.2,0-0.3,0-0.5c0,0,0-0.1,0-0.1
		L4.3,31.8L4.3,31.8z M7.5,36.2l-2.9,0.5c0,0.1,0,0.3,0.1,0.4v0c0,0,0,0,0,0l0,0c0,0,0,0,0,0c0,0,0,0,0,0c0,0,0,0,0,0c0,0,0,0,0,0
		c0,0,0,0,0,0c0,0,0,0,0,0c0,0,0,0,0,0c0,0,0,0,0,0c0,0,0,0,0,0c0,0,0,0,0,0c0,0,0,0,0,0l0,0c0,0,0,0,0,0c0,0,0,0,0,0c0,0,0,0,0,0
		c0,0,0,0,0,0c0,0,0,0,0,0c0,0,0,0,0,0c0,0,0,0,0,0c0,0,0,0,0,0c0,0,0,0,0,0c0,0,0,0,0,0c0,0,0,0,0,0c0,0,0,0,0,0c0,0,0,0,0,0
		c0,0,0,0,0,0c0,0,0,0,0,0c0,0,0,0,0,0c0,0,0,0,0,0c0,0,0,0,0,0c0,0,0,0,0,0c0,0,0,0,0,0c0,0,0,0,0,0c0,0,0,0,0,0c0,0,0,0,0,0
		c0,0,0,0,0,0c0,0,0,0,0,0c0,0,0,0,0,0l0,0c0,0,0,0,0,0c0,0,0,0,0,0c0,0,0,0,0,0c0,0,0,0,0,0c0,0,0,0,0,0l0,0c0,0,0,0,0,0
		c0,0,0,0,0,0c0,0,0,0,0,0l0,0c0,0,0,0,0,0l0,0c0,0,0,0,0,0l0,0c0,0,0,0,0,0l0,0c0,0,0,0,0,0l2.9-0.6C7.6,36.6,7.6,36.4,7.5,36.2
		L7.5,36.2z M8.6,40.3l-2.8,1C5.9,41.5,6,41.6,6,41.8l0,0c0,0,0,0,0,0c0,0,0,0,0,0c0,0,0,0,0,0c0,0,0,0,0,0c0,0,0,0,0,0c0,0,0,0,0,0
		c0,0,0,0,0,0c0,0,0,0,0,0c0,0,0,0,0,0c0,0,0,0,0,0c0,0,0,0,0,0c0,0,0,0,0,0c0,0,0,0,0,0c0,0,0,0,0,0c0,0,0,0,0,0c0,0,0,0,0,0
		c0,0,0,0,0,0c0,0,0,0,0,0c0,0,0,0,0,0c0,0,0,0,0,0c0,0,0,0,0,0c0,0,0,0,0,0l0,0c0,0,0,0,0,0.1l2.7-1C8.7,40.7,8.7,40.5,8.6,40.3
		L8.6,40.3z M10.4,44.2l-2.5,1.4c0,0,0,0,0,0c0,0,0,0,0,0c0,0,0,0,0,0c0,0,0,0,0,0c0,0,0,0,0,0c0,0,0,0,0,0c0.1,0.2,0.2,0.4,0.3,0.6
		l2.5-1.5C10.6,44.6,10.5,44.4,10.4,44.2L10.4,44.2z M12.8,47.8l-2.3,1.9c0.1,0.1,0.1,0.1,0.2,0.2c0,0,0,0,0,0c0,0,0,0,0,0
		c0.1,0.1,0.2,0.2,0.3,0.3l2.2-1.9C13.1,48.1,13,48,12.8,47.8L12.8,47.8z M15.9,50.9L14,53.1c0.1,0.1,0.1,0.1,0.2,0.2c0,0,0,0,0,0
		c0,0,0,0,0,0c0,0,0,0,0,0c0,0,0,0,0,0c0,0,0,0,0,0c0,0,0,0,0,0c0,0,0,0,0,0c0,0,0,0,0,0c0.1,0.1,0.2,0.2,0.3,0.2l1.8-2.3
		C16.2,51.1,16,51,15.9,50.9L15.9,50.9z M19.4,53.4l-1.5,2.5c0.1,0.1,0.3,0.2,0.4,0.2v0c0,0,0,0,0,0c0,0,0,0,0,0c0,0,0,0,0,0
		c0,0,0,0,0,0c0,0,0,0,0,0c0,0,0,0,0,0c0,0,0,0,0,0c0,0,0,0,0,0c0,0,0,0,0,0c0,0,0,0,0,0c0,0,0,0,0,0c0,0,0,0,0,0c0,0,0,0,0,0
		c0,0,0,0,0,0c0,0,0,0,0,0c0,0,0,0,0,0c0,0,0,0,0,0c0,0,0,0,0,0c0,0,0,0,0,0c0,0,0,0,0,0c0,0,0,0,0,0c0,0,0,0,0,0h0
		c0,0,0.1,0,0.1,0.1l1.4-2.6C19.7,53.6,19.6,53.5,19.4,53.4L19.4,53.4z M23.3,55.2l-1,2.7c0.1,0,0.2,0.1,0.2,0.1c0,0,0,0,0,0
		c0,0,0,0,0,0c0,0,0,0,0,0c0,0,0,0,0,0c0,0,0,0,0,0c0,0,0,0,0,0c0,0,0,0,0,0c0,0,0,0,0,0c0,0,0,0,0,0c0,0,0,0,0,0c0,0,0,0,0,0
		c0,0,0,0,0,0c0.1,0,0.2,0.1,0.4,0.1l1-2.8C23.7,55.4,23.5,55.3,23.3,55.2L23.3,55.2z M27.4,56.4l-0.5,2.9l0,0
		c0.2,0,0.5,0.1,0.7,0.1l0.5-2.9C27.8,56.5,27.6,56.4,27.4,56.4L27.4,56.4z M32.3,56.8c-0.1,0-0.2,0-0.3,0c-0.1,0-0.2,0-0.3,0l0,2.9
		c0,0,0.1,0,0.1,0h0c0,0,0,0,0,0c0,0,0,0,0,0c0,0,0,0,0,0c0,0,0,0,0,0c0,0,0,0,0,0c0,0,0,0,0,0c0,0,0,0,0,0c0,0,0,0,0,0c0,0,0,0,0,0
		c0,0,0,0,0,0c0,0,0,0,0,0c0,0,0,0,0,0c0,0,0,0,0,0c0,0,0,0,0,0c0,0,0,0,0,0c0,0,0,0,0,0c0,0,0,0,0,0c0,0,0,0,0,0c0,0,0,0,0,0
		c0,0,0,0,0,0c0,0,0,0,0,0c0,0,0,0,0,0c0,0,0,0,0,0c0,0,0,0,0,0c0,0,0,0,0,0c0,0,0,0,0,0c0,0,0,0,0,0c0,0,0,0,0,0c0,0,0,0,0,0
		c0,0,0,0,0,0c0,0,0,0,0,0l0,0c0,0,0,0,0,0c0,0,0,0,0,0c0,0,0,0,0,0c0,0,0,0,0,0c0,0,0,0,0,0c0,0,0,0,0,0c0,0,0,0,0,0c0,0,0,0,0,0
		c0,0,0,0,0,0c0,0,0,0,0,0c0,0,0,0,0,0c0,0,0,0,0,0c0,0,0,0,0,0c0,0,0,0,0,0c0,0,0,0,0,0c0,0,0,0,0,0c0,0,0,0,0,0h0c0,0,0,0,0,0h0
		c0.1,0,0.2,0,0.3,0L32.3,56.8L32.3,56.8z M36.6,56.4c-0.2,0-0.4,0.1-0.6,0.1l0.5,2.9c0,0,0.1,0,0.1,0l0,0c0,0,0,0,0,0c0,0,0,0,0,0
		c0,0,0,0,0,0c0,0,0,0,0,0c0,0,0,0,0,0c0,0,0,0,0,0c0,0,0,0,0,0c0,0,0,0,0,0c0,0,0,0,0,0c0,0,0,0,0,0c0,0,0,0,0,0c0,0,0,0,0,0
		c0,0,0,0,0,0c0,0,0,0,0,0c0,0,0,0,0,0c0,0,0,0,0,0c0,0,0,0,0,0c0,0,0,0,0,0c0,0,0,0,0,0c0,0,0,0,0,0c0,0,0,0,0,0c0,0,0,0,0,0
		c0,0,0,0,0,0c0,0,0,0,0,0c0,0,0,0,0,0c0,0,0,0,0,0c0,0,0,0,0,0c0,0,0,0,0,0c0,0,0,0,0,0c0,0,0,0,0,0c0,0,0,0,0,0c0,0,0,0,0,0
		c0,0,0,0,0,0c0,0,0,0,0,0c0,0,0,0,0,0l0,0c0.1,0,0.2,0,0.4-0.1L36.6,56.4L36.6,56.4z M40.8,55.2c-0.2,0.1-0.4,0.1-0.6,0.2l1,2.8
		c0.1,0,0.1,0,0.2-0.1h0c0,0,0,0,0,0c0,0,0,0,0,0c0,0,0,0,0,0c0,0,0,0,0,0c0,0,0,0,0,0c0,0,0,0,0,0c0,0,0,0,0,0c0,0,0,0,0,0
		c0,0,0,0,0,0c0,0,0,0,0,0c0,0,0,0,0,0c0,0,0,0,0,0c0,0,0,0,0,0c0,0,0,0,0,0c0,0,0,0,0,0c0,0,0,0,0,0c0,0,0,0,0,0c0,0,0,0,0,0
		c0,0,0,0,0,0c0,0,0,0,0,0l0,0c0,0,0,0,0,0l0,0c0,0,0,0,0,0l0,0c0,0,0,0,0,0l0,0c0.1,0,0.2-0.1,0.3-0.1l0,0c0,0,0,0,0,0l0,0
		c0,0,0,0,0,0c0,0,0,0,0,0c0,0,0,0,0,0c0,0,0,0,0,0c0,0,0,0,0,0L40.8,55.2L40.8,55.2z M44.7,53.4c-0.2,0.1-0.4,0.2-0.5,0.3l1.4,2.5
		c0.2-0.1,0.4-0.2,0.5-0.3c0,0,0,0,0.1,0L44.7,53.4L44.7,53.4z M48.2,50.8c-0.2,0.1-0.3,0.3-0.5,0.4l1.8,2.3c0,0,0.1-0.1,0.1-0.1
		l0,0c0,0,0,0,0,0c0,0,0,0,0,0c0,0,0,0,0,0c0,0,0,0,0,0c0,0,0,0,0,0c0,0,0,0,0,0c0,0,0,0,0,0c0,0,0,0,0,0c0,0,0,0,0,0c0,0,0,0,0,0
		c0,0,0,0,0,0c0,0,0,0,0,0c0,0,0,0,0,0c0,0,0,0,0,0c0,0,0,0,0,0c0.1-0.1,0.2-0.1,0.2-0.2c0,0,0,0,0,0c0,0,0,0,0,0c0,0,0,0,0,0
		c0,0,0,0,0,0c0,0,0,0,0,0c0,0,0,0,0,0c0,0,0,0,0,0c0,0,0,0,0,0c0,0,0.1,0,0.1-0.1L48.2,50.8L48.2,50.8z M51.2,47.8
		c-0.1,0.2-0.3,0.3-0.4,0.5l2.2,1.9c0,0,0.1-0.1,0.1-0.1c0,0,0,0,0,0c0,0,0,0,0,0c0,0,0,0,0,0c0,0,0,0,0,0c0,0,0,0,0,0c0,0,0,0,0,0
		c0,0,0,0,0,0c0,0,0,0,0,0c0.1-0.1,0.2-0.3,0.3-0.4L51.2,47.8L51.2,47.8z M53.6,44.2c-0.1,0.2-0.2,0.4-0.3,0.5l2.5,1.5
		c0.1-0.1,0.2-0.3,0.2-0.4c0,0,0,0,0,0c0,0,0,0,0,0c0-0.1,0.1-0.1,0.1-0.2L53.6,44.2L53.6,44.2z M55.4,40.3
		c-0.1,0.2-0.1,0.4-0.2,0.6l2.7,1c0.1-0.2,0.2-0.4,0.2-0.7L55.4,40.3L55.4,40.3z M56.5,36.1c0,0.2-0.1,0.4-0.1,0.6l2.9,0.6
		c0-0.2,0.1-0.5,0.1-0.7L56.5,36.1L56.5,36.1z M59.7,31.8l-2.9,0c0,0.1,0,0.1,0,0.2c0,0.1,0,0.3,0,0.4l2.9,0c0,0,0-0.1,0-0.1v0
		c0,0,0,0,0,0c0,0,0,0,0,0c0,0,0,0,0,0c0,0,0,0,0,0c0,0,0,0,0,0c0,0,0,0,0,0c0,0,0,0,0,0c0,0,0,0,0,0c0,0,0,0,0,0c0,0,0,0,0,0
		c0,0,0,0,0,0c0,0,0,0,0,0c0,0,0,0,0,0c0,0,0,0,0,0v0c0,0,0,0,0,0c0,0,0,0,0,0c0,0,0,0,0,0c0,0,0,0,0,0c0,0,0,0,0,0c0,0,0,0,0,0
		c0,0,0,0,0,0c0,0,0,0,0,0c0,0,0,0,0,0c0,0,0,0,0,0c0,0,0,0,0,0c0,0,0,0,0,0c0,0,0,0,0,0c0,0,0,0,0,0c0,0,0,0,0,0c0,0,0,0,0,0
		c0,0,0,0,0,0c0,0,0,0,0,0c0,0,0,0,0,0c0,0,0,0,0,0c0,0,0,0,0,0c0,0,0,0,0,0c0,0,0,0,0,0c0,0,0,0,0,0c0,0,0,0,0,0c0,0,0,0,0,0
		c0,0,0,0,0,0c0,0,0,0,0,0l0,0c0,0,0,0,0,0c0,0,0,0,0,0c0,0,0,0,0,0c0,0,0,0,0,0c0,0,0,0,0,0c0,0,0,0,0,0c0,0,0,0,0,0c0,0,0,0,0,0
		c0,0,0,0,0,0c0,0,0,0,0,0c0,0,0,0,0,0c0,0,0,0,0,0c0,0,0,0,0,0c0,0,0,0,0,0c0,0,0,0,0,0v0C59.7,31.9,59.7,31.8,59.7,31.8L59.7,31.8
		z M59.3,27l-2.9,0.5c0,0.2,0.1,0.4,0.1,0.6l2.9-0.5c0-0.1,0-0.2-0.1-0.4v0c0,0,0,0,0,0c0,0,0,0,0,0c0,0,0,0,0,0c0,0,0,0,0,0
		c0,0,0,0,0,0c0,0,0,0,0,0c0,0,0,0,0,0c0,0,0,0,0,0c0,0,0,0,0,0c0,0,0,0,0,0c0,0,0,0,0,0C59.3,27.2,59.3,27.1,59.3,27L59.3,27z
		 M58,22.3l-2.7,1c0.1,0.2,0.1,0.4,0.2,0.6l2.8-0.9c0,0,0,0,0-0.1c0,0,0,0,0,0c0,0,0,0,0,0v0c0,0,0,0,0,0c0,0,0,0,0,0c0,0,0,0,0,0
		c0,0,0,0,0,0c0,0,0,0,0,0c0,0,0,0,0,0c0,0,0,0,0,0c0,0,0,0,0,0c0,0,0,0,0,0c0,0,0,0,0,0c0,0,0,0,0,0c0,0,0,0,0,0c0,0,0,0,0,0
		c0,0,0,0,0,0c0,0,0,0,0,0c0,0,0,0,0,0c0,0,0,0,0,0c0,0,0,0,0,0c0,0,0,0,0,0c0,0,0,0,0,0c0,0,0,0,0,0c0,0,0,0,0,0c0,0,0,0,0,0
		c0,0,0,0,0,0c0,0,0,0,0,0c0,0,0,0,0,0c0,0,0,0,0,0c0,0,0,0,0,0c0,0,0,0,0,0c0,0,0,0,0,0c0,0,0,0,0,0c0,0,0,0,0,0c0,0,0,0,0,0
		c0,0,0,0,0,0c0,0,0,0,0,0c0,0,0,0,0,0c0,0,0,0,0,0c0,0,0,0,0,0c0,0,0,0,0,0c0,0,0,0,0,0c0,0,0,0,0,0c0,0,0,0,0,0c0,0,0,0,0,0l0,0
		C58.1,22.6,58.1,22.4,58,22.3L58,22.3z M56,18l-2.5,1.5c0.1,0.2,0.2,0.4,0.3,0.5l2.6-1.4C56.2,18.4,56.1,18.2,56,18
		C56,18,56,18,56,18C56,18,56,18,56,18C56,18,56,18,56,18C56,18,56,18,56,18C56,18,56,18,56,18C56,18,56,18,56,18C56,18,56,18,56,18
		L56,18z M53.2,14.1l-2.2,1.9c0.1,0.2,0.3,0.3,0.4,0.5l2.3-1.8c0,0-0.1-0.1-0.1-0.1c0,0,0,0,0,0c0,0,0,0,0,0
		C53.4,14.3,53.3,14.2,53.2,14.1C53.2,14.1,53.2,14.1,53.2,14.1C53.2,14.1,53.2,14.1,53.2,14.1C53.2,14.1,53.2,14.1,53.2,14.1
		C53.2,14.1,53.2,14.1,53.2,14.1C53.2,14.1,53.2,14.1,53.2,14.1L53.2,14.1z M49.7,10.7l-1.9,2.2c0.2,0.1,0.3,0.3,0.5,0.4l1.9-2.2
		C50.1,11,49.9,10.8,49.7,10.7L49.7,10.7z M45.8,7.9l-1.5,2.5c0.2,0.1,0.4,0.2,0.5,0.3l1.5-2.5c0,0-0.1,0-0.1-0.1l0,0c0,0,0,0,0,0
		l0,0c0,0,0,0,0,0c0,0,0,0,0,0c0,0,0,0,0,0c0,0,0,0,0,0c0,0,0,0,0,0c0,0,0,0,0,0c0,0,0,0,0,0c0,0,0,0,0,0c0,0,0,0,0,0c0,0,0,0,0,0
		c0,0,0,0,0,0c0,0,0,0,0,0l0,0c0,0-0.1,0-0.1-0.1c0,0,0,0,0,0c0,0,0,0,0,0c0,0,0,0,0,0c0,0,0,0,0,0c0,0,0,0,0,0c0,0,0,0,0,0
		c0,0,0,0,0,0c0,0,0,0,0,0c0,0,0,0,0,0c0,0,0,0,0,0c0,0,0,0,0,0c0,0,0,0,0,0c0,0,0,0,0,0c0,0,0,0,0,0c0,0,0,0,0,0c0,0,0,0,0,0
		c0,0,0,0,0,0c0,0,0,0,0,0c0,0,0,0,0,0c0,0,0,0,0,0c0,0,0,0,0,0c0,0,0,0,0,0c0,0,0,0,0,0l0,0C45.9,8,45.9,8,45.8,7.9L45.8,7.9z
		 M41.4,5.9l-1,2.7c0.2,0.1,0.4,0.1,0.6,0.2l1.1-2.7l0,0c-0.1,0-0.3-0.1-0.4-0.1c0,0,0,0,0,0c0,0,0,0,0,0c0,0,0,0,0,0c0,0,0,0,0,0
		C41.6,5.9,41.5,5.9,41.4,5.9L41.4,5.9z M36.7,4.7l-0.5,2.9c0.2,0,0.4,0.1,0.6,0.1l0.6-2.9c-0.1,0-0.2,0-0.2,0c0,0,0,0,0,0
		c0,0,0,0,0,0c0,0,0,0,0,0c0,0,0,0,0,0c0,0,0,0,0,0c0,0,0,0,0,0c0,0,0,0,0,0c0,0,0,0,0,0c0,0,0,0,0,0c0,0,0,0,0,0c0,0,0,0,0,0l0,0
		C37,4.7,36.9,4.7,36.7,4.7L36.7,4.7z"/>
	<path d="M29.7,4.3C29.6,4.3,29.6,4.3,29.7,4.3C29.6,4.3,29.6,4.3,29.7,4.3C29.6,4.3,29.6,4.3,29.7,4.3C29.6,4.3,29.6,4.3,29.7,4.3
		C29.6,4.4,29.6,4.4,29.7,4.3C29.6,4.4,29.6,4.4,29.7,4.3C29.6,4.4,29.6,4.4,29.7,4.3C29.6,4.4,29.6,4.4,29.7,4.3
		C29.6,4.4,29.6,4.4,29.7,4.3C29.6,4.4,29.6,4.4,29.7,4.3C29.6,4.4,29.6,4.4,29.7,4.3C29.6,4.4,29.6,4.4,29.7,4.3
		C29.6,4.4,29.6,4.4,29.7,4.3C29.6,4.4,29.6,4.4,29.7,4.3C29.6,4.4,29.6,4.4,29.7,4.3C29.6,4.4,29.6,4.4,29.7,4.3
		c-0.1,0-0.1,0-0.1,0c0,0,0,0,0,0c0,0,0,0,0,0c0,0,0,0,0,0c0,0,0,0,0,0c0,0,0,0,0,0c0,0,0,0,0,0c0,0,0,0,0,0c0,0,0,0,0,0
		c0,0,0,0,0,0c0,0,0,0,0,0c0,0,0,0,0,0c0,0,0,0,0,0c0,0,0,0,0,0c0,0,0,0,0,0c0,0,0,0,0,0c0,0,0,0,0,0c0,0,0,0,0,0c0,0,0,0,0,0
		c0,0,0,0,0,0c0,0,0,0,0,0c0,0,0,0,0,0c0,0,0,0,0,0c0,0,0,0,0,0c0,0,0,0,0,0c0,0,0,0,0,0c0,0,0,0,0,0c0,0,0,0,0,0c0,0,0,0,0,0
		c0,0,0,0,0,0c0,0,0,0,0,0c0,0,0,0,0,0c0,0,0,0,0,0c0,0,0,0,0,0c0,0,0,0,0,0c0,0,0,0,0,0c0,0,0,0,0,0c0,0,0,0,0,0c0,0,0,0,0,0
		c0,0,0,0,0,0c0,0,0,0,0,0c0,0,0,0,0,0c0,0,0,0,0,0c0,0,0,0,0,0c0,0,0,0,0,0c0,0,0,0,0,0c0,0,0,0,0,0l0,0c0,0,0,0,0,0l0,0
		c-0.1,0-0.2,0-0.3,0l0.6,5.2c0.2,0,0.4,0,0.6-0.1L29.7,4.3L29.7,4.3L29.7,4.3z M24.9,5.2c-0.1,0-0.2,0.1-0.3,0.1c0,0,0,0,0,0
		c0,0,0,0,0,0l0,0c0,0,0,0,0,0c-0.1,0-0.2,0.1-0.3,0.1l1.4,5c0.2-0.1,0.4-0.1,0.5-0.1L24.9,5.2L24.9,5.2z M20.4,6.8
		c-0.1,0-0.2,0.1-0.3,0.1l0,0c0,0,0,0,0,0c0,0,0,0,0,0c0,0,0,0,0,0c0,0,0,0,0,0c0,0,0,0,0,0c0,0,0,0,0,0c0,0,0,0,0,0c0,0,0,0,0,0
		c0,0,0,0,0,0C20,7,19.8,7,19.7,7.1l2.3,4.7c0.2-0.1,0.3-0.2,0.5-0.2L20.4,6.8L20.4,6.8z M16.2,9.2c-0.1,0-0.1,0.1-0.2,0.1
		c0,0,0,0,0,0c0,0,0,0,0,0c0,0,0,0,0,0c0,0,0,0,0,0c0,0,0,0,0,0c0,0,0,0,0,0c0,0,0,0,0,0l0,0c0,0,0,0,0,0c0,0,0,0,0,0
		c-0.1,0.1-0.2,0.1-0.3,0.2l3.1,4.2c0.2-0.1,0.3-0.2,0.5-0.3L16.2,9.2L16.2,9.2z M12.5,12.2c-0.1,0.1-0.2,0.2-0.2,0.2l0,0
		c0,0,0,0,0,0c0,0,0,0,0,0c0,0,0,0,0,0c0,0,0,0,0,0l0,0c0,0,0,0,0,0c0,0,0,0,0,0c0,0,0,0,0,0l0,0c0,0,0,0,0,0c0,0,0,0,0,0
		c0,0,0,0,0,0v0c0,0,0,0,0,0l0,0c0,0,0,0,0,0c0,0,0,0,0,0c0,0,0,0,0,0c0,0,0,0,0,0c0,0-0.1,0.1-0.1,0.1l3.7,3.6
		c0.1-0.1,0.3-0.3,0.4-0.4L12.5,12.2L12.5,12.2z M9.3,15.9c-0.1,0.1-0.2,0.2-0.3,0.4c0,0,0,0,0,0c0,0,0,0,0,0c0,0,0,0,0,0
		c0,0,0,0,0,0c0,0,0,0,0,0c0,0,0,0,0,0c0,0,0,0,0,0c0,0,0,0,0,0c0,0.1-0.1,0.1-0.1,0.2l4.3,2.9c0.1-0.2,0.2-0.3,0.3-0.5L9.3,15.9
		L9.3,15.9z M6.9,20.1c0,0,0,0.1-0.1,0.1l0,0c0,0,0,0,0,0l0,0c0,0,0,0,0,0c0,0,0,0,0,0c0,0,0,0,0,0c0,0,0,0,0,0c0,0,0,0,0,0
		c0,0,0,0,0,0c0,0,0,0,0,0c0,0,0,0,0,0c0,0,0,0,0,0c0,0,0,0,0,0c0,0,0,0,0,0c0,0,0,0,0,0c0,0,0,0,0,0c0,0,0,0,0,0c0,0,0,0,0,0
		c0,0,0,0,0,0c0,0,0,0,0,0c0,0,0,0,0,0c0,0,0,0,0,0l0,0c0,0,0,0,0,0l0,0c-0.1,0.1-0.1,0.3-0.2,0.4l4.8,2.1c0.1-0.2,0.2-0.3,0.2-0.5
		L6.9,20.1L6.9,20.1z M5.2,24.6C5.1,24.8,5.1,25,5,25.2l5,1.3c0-0.2,0.1-0.4,0.1-0.5L5.2,24.6L5.2,24.6z M4.3,29.3
		c0,0.1,0,0.2,0,0.3l0,0c0,0,0,0,0,0v0c0,0,0,0,0,0c0,0,0,0,0,0c0,0,0,0,0,0c0,0,0,0,0,0c0,0,0,0,0,0c0,0,0,0,0,0c0,0,0,0,0,0
		c0,0,0,0,0,0c0,0,0,0,0,0c0,0,0,0,0,0c0,0,0,0,0,0c0,0,0,0,0,0c0,0,0,0,0,0c0,0.1,0,0.2,0,0.3l5.2,0.4c0-0.2,0-0.4,0-0.6L4.3,29.3
		L4.3,29.3z M4.3,34.1C4.3,34.2,4.3,34.2,4.3,34.1c0,0.1,0,0.1,0,0.1c0,0,0,0,0,0c0,0,0,0,0,0c0,0,0,0,0,0c0,0,0,0,0,0c0,0,0,0,0,0
		c0,0,0,0,0,0c0,0,0,0,0,0c0,0,0,0,0,0c0,0,0,0,0,0c0,0,0,0,0,0c0,0,0,0,0,0c0,0,0,0,0,0c0,0,0,0,0,0v0c0,0,0,0,0,0c0,0,0,0,0,0
		c0,0,0,0,0,0l0,0c0,0,0,0,0,0c0,0,0,0,0,0c0,0,0,0,0,0c0,0,0,0,0,0c0,0,0,0,0,0c0,0,0,0,0,0c0,0,0,0,0,0c0,0,0,0,0,0c0,0,0,0,0,0
		c0,0,0,0,0,0c0,0,0,0,0,0v0c0,0,0,0,0,0l0,0c0,0,0,0,0,0v0c0,0,0,0,0,0c0,0,0,0,0,0c0,0,0,0,0,0c0,0,0,0,0,0c0,0,0,0,0,0
		c0,0,0,0,0,0c0,0,0,0,0,0v0c0,0.1,0,0.1,0,0.2l5.2-0.5c0-0.1,0-0.3,0-0.4c0,0,0-0.1,0-0.1L4.3,34.1L4.3,34.1z M10.1,37.6l-5,1.3
		c0,0,0,0,0,0c0,0,0,0,0,0c0,0,0,0,0,0c0,0.1,0.1,0.2,0.1,0.3c0,0,0,0,0,0c0,0,0,0,0,0c0,0,0,0,0,0c0,0,0,0,0,0c0,0,0,0,0,0
		c0,0,0,0,0,0c0,0,0,0,0,0l0,0c0,0.1,0,0.2,0.1,0.3l5-1.4C10.2,38,10.1,37.8,10.1,37.6L10.1,37.6z M11.4,41.3l-4.7,2.1
		c0,0,0,0.1,0,0.1c0,0,0,0,0,0c0,0,0,0,0,0c0,0,0,0,0,0c0,0,0,0,0,0c0.1,0.1,0.1,0.2,0.2,0.3c0,0,0,0,0,0c0,0,0,0,0,0c0,0,0,0,0,0
		c0,0,0,0,0,0c0,0,0,0,0,0c0,0,0,0,0,0c0,0,0,0.1,0.1,0.1l4.7-2.3C11.5,41.6,11.5,41.5,11.4,41.3L11.4,41.3z M13.3,44.7L9,47.6
		c0,0.1,0.1,0.1,0.1,0.2c0,0,0,0,0,0c0,0,0,0,0,0c0,0,0,0,0,0c0,0,0,0,0,0c0,0,0,0,0,0c0,0,0,0,0,0c0,0,0,0,0,0c0,0,0,0,0,0
		c0,0,0,0,0,0c0,0,0,0,0,0c0,0,0,0,0,0c0,0,0,0,0,0c0,0,0,0,0,0l0,0c0,0,0,0.1,0.1,0.1l0,0c0,0,0,0,0,0c0,0,0,0,0,0c0,0,0,0,0,0l0,0
		c0,0,0,0,0,0l0,0c0,0,0,0,0,0l0,0c0,0,0,0,0,0c0,0,0,0,0,0c0,0,0,0,0,0c0,0,0,0,0,0c0,0,0,0,0,0c0,0,0,0,0,0c0,0,0,0,0,0
		c0,0,0,0,0,0c0,0,0,0,0,0c0,0,0.1,0.1,0.1,0.1l4.2-3C13.5,45,13.4,44.8,13.3,44.7L13.3,44.7z M15.8,47.7l-3.7,3.6c0,0,0,0,0,0
		c0,0,0,0,0,0c0,0,0,0,0,0c0,0,0,0,0,0c0,0,0,0,0,0c0,0,0,0,0,0c0,0,0,0,0,0c0,0,0,0,0,0c0,0,0,0,0,0c0,0,0,0,0,0c0,0,0,0,0,0
		c0,0,0,0,0,0c0,0,0,0,0,0c0,0,0,0,0,0c0,0,0,0,0,0c0,0,0,0,0,0c0,0,0,0,0,0c0,0,0,0,0,0c0,0,0,0,0,0c0,0,0,0,0,0c0,0,0,0,0,0
		c0,0,0,0,0,0c0,0,0,0,0,0c0,0,0,0,0,0c0,0,0,0,0,0c0,0,0,0,0,0c0,0,0,0,0,0c0,0,0,0,0,0c0,0,0,0,0,0l0,0c0,0,0,0,0,0l0,0
		c0.1,0.1,0.3,0.3,0.4,0.4l3.6-3.7C16.1,48,15.9,47.9,15.8,47.7L15.8,47.7z M18.8,50.3l-3,4.2c0.2,0.1,0.4,0.3,0.6,0.4l2.9-4.3
		C19.1,50.5,18.9,50.4,18.8,50.3L18.8,50.3z M22.1,52.3L19.8,57c0.2,0.1,0.4,0.2,0.6,0.3l2.2-4.7C22.5,52.5,22.3,52.4,22.1,52.3
		L22.1,52.3z M25.8,53.7l-1.4,5c0.1,0,0.1,0,0.2,0.1c0,0,0,0,0,0c0,0,0,0,0,0c0,0,0,0,0,0c0,0,0,0,0,0c0,0,0,0,0,0c0,0,0,0,0,0
		c0,0,0,0,0,0c0,0,0,0,0,0c0,0,0,0,0,0c0,0,0,0,0,0c0.1,0,0.3,0.1,0.4,0.1c0,0,0,0,0,0c0,0,0,0,0,0l0,0c0,0,0,0,0,0c0,0,0,0,0,0v0
		c0,0,0,0,0,0l1.3-5C26.1,53.8,26,53.7,25.8,53.7L25.8,53.7z M29.6,54.4l-0.5,5.2c0.1,0,0.3,0,0.4,0l0,0c0,0,0,0,0,0
		c0.1,0,0.2,0,0.2,0l0.4-5.2C30,54.5,29.8,54.4,29.6,54.4L29.6,54.4z M34.1,54.4c-0.1,0-0.2,0-0.3,0c-0.1,0-0.2,0-0.3,0l0.4,5.2
		c0.1,0,0.2,0,0.3,0c0,0,0,0,0,0c0,0,0,0,0,0c0,0,0,0,0,0c0,0,0,0,0,0c0,0,0,0,0,0c0,0,0,0,0,0c0,0,0,0,0,0c0,0,0,0,0,0c0,0,0,0,0,0
		c0,0,0,0,0,0c0,0,0,0,0,0l0,0c0,0,0,0,0,0c0,0,0,0,0,0c0,0,0,0,0,0c0,0,0,0,0,0c0,0,0,0,0,0c0,0,0,0,0,0c0,0,0,0,0,0c0,0,0,0,0,0
		c0,0,0,0,0,0c0,0,0,0,0,0c0,0,0,0,0,0c0,0,0,0,0,0c0,0,0,0,0,0c0,0,0,0,0,0c0,0,0,0,0,0l0,0c0,0,0,0,0,0h0c0.1,0,0.2,0,0.3,0
		L34.1,54.4L34.1,54.4z M38,53.7c-0.2,0-0.4,0.1-0.5,0.1l1.3,5.1c0.2-0.1,0.4-0.1,0.7-0.2c0,0,0,0,0,0c0,0,0,0,0,0c0,0,0,0,0,0
		c0,0,0,0,0,0L38,53.7L38,53.7z M41.6,52.4c-0.2,0.1-0.3,0.2-0.5,0.2l2.1,4.8c0.1,0,0.1-0.1,0.2-0.1c0,0,0,0,0,0c0,0,0,0,0,0
		c0,0,0,0,0,0c0,0,0,0,0,0c0,0,0,0,0,0c0,0,0,0,0,0c0.1-0.1,0.3-0.1,0.4-0.2L41.6,52.4L41.6,52.4z M45,50.4
		c-0.2,0.1-0.3,0.2-0.5,0.3l2.9,4.3c0,0,0,0,0,0c0,0,0,0,0,0c0,0,0,0,0,0c0,0,0,0,0,0c0,0,0,0,0,0c0,0,0,0,0,0c0,0,0,0,0,0
		c0,0,0,0,0,0c0,0,0,0,0,0c0,0,0,0,0,0c0,0,0,0,0,0c0,0,0,0,0,0c0,0,0,0,0,0c0,0,0,0,0,0c0,0,0,0,0,0c0,0,0,0,0,0c0,0,0,0,0,0
		c0,0,0,0,0,0l0,0c0,0,0,0,0,0c0,0,0,0,0,0c0.2-0.1,0.3-0.2,0.5-0.3L45,50.4L45,50.4z M48,47.8c-0.1,0.1-0.3,0.3-0.4,0.4l3.6,3.7
		c0.1-0.1,0.1-0.1,0.2-0.2c0,0,0,0,0,0c0,0,0,0,0,0c0.1-0.1,0.2-0.2,0.3-0.3L48,47.8L48,47.8z M50.5,44.8c-0.1,0.2-0.2,0.3-0.3,0.5
		l4.2,3.1c0,0,0,0,0,0c0,0,0,0,0,0c0,0,0,0,0,0c0,0,0,0,0,0c0.1-0.2,0.2-0.3,0.3-0.5c0,0,0,0,0,0c0,0,0,0,0,0c0,0,0,0,0,0
		c0,0,0,0,0,0c0,0,0,0,0,0l0,0c0,0,0,0,0-0.1L50.5,44.8L50.5,44.8z M52.4,41.4c-0.1,0.2-0.2,0.3-0.2,0.5l4.7,2.3c0,0,0-0.1,0.1-0.1
		l0,0c0,0,0,0,0,0l0,0c0,0,0,0,0,0c0,0,0,0,0,0c0,0,0,0,0,0c0,0,0,0,0,0c0,0,0,0,0,0c0-0.1,0.1-0.1,0.1-0.2v0c0,0,0,0,0,0
		c0,0,0,0,0,0c0,0,0,0,0,0c0,0,0,0,0,0c0,0,0,0,0,0c0-0.1,0.1-0.1,0.1-0.2L52.4,41.4L52.4,41.4z M53.7,37.7c0,0.2-0.1,0.4-0.2,0.5
		l5,1.5c0-0.1,0-0.2,0.1-0.3l0,0c0-0.1,0.1-0.3,0.1-0.4L53.7,37.7L53.7,37.7z M54.4,33.9c0,0.2,0,0.4-0.1,0.6l5.2,0.6
		c0-0.2,0-0.4,0.1-0.5c0,0,0,0,0,0c0,0,0,0,0,0c0,0,0,0,0,0c0,0,0,0,0,0c0,0,0-0.1,0-0.1L54.4,33.9L54.4,33.9z M59.6,29.5L54.4,30
		c0,0.1,0,0.1,0,0.2c0,0.1,0,0.3,0,0.4l5.2-0.3c0-0.1,0-0.2,0-0.3v0c0,0,0,0,0,0v0c0,0,0,0,0,0v0c0,0,0,0,0,0c0,0,0,0,0,0
		c0,0,0,0,0,0c0,0,0,0,0,0c0,0,0,0,0,0c0,0,0,0,0,0c0,0,0,0,0,0c0,0,0,0,0,0c0,0,0,0,0,0c0,0,0,0,0,0c0,0,0,0,0,0c0,0,0,0,0,0
		c0,0,0,0,0,0c0,0,0,0,0,0c0,0,0,0,0,0c0,0,0,0,0,0v0c0,0,0,0,0,0c0,0,0,0,0,0c0,0,0,0,0,0c0,0,0,0,0,0c0,0,0,0,0,0l0,0c0,0,0,0,0,0
		c0,0,0,0,0,0c0,0,0,0,0,0c0,0,0,0,0,0c0,0,0,0,0,0c0,0,0,0,0,0c0,0,0,0,0,0C59.6,29.6,59.6,29.6,59.6,29.5L59.6,29.5
		C59.6,29.6,59.6,29.6,59.6,29.5C59.6,29.6,59.6,29.6,59.6,29.5C59.6,29.6,59.6,29.6,59.6,29.5C59.6,29.5,59.6,29.5,59.6,29.5
		L59.6,29.5z M58.7,24.8l-5,1.4c0,0.2,0.1,0.4,0.1,0.5l5.1-1.2c0,0,0,0,0,0c0,0,0,0,0,0c0,0,0,0,0,0c0,0,0,0,0,0c0,0,0,0,0,0
		c0,0,0,0,0,0l0,0c0-0.1-0.1-0.3-0.1-0.4c0,0,0,0,0,0c0,0,0,0,0,0c0,0,0,0,0,0l0,0C58.8,24.9,58.7,24.8,58.7,24.8L58.7,24.8z
		 M57.1,20.2l-4.7,2.2c0.1,0.2,0.2,0.3,0.2,0.5l4.8-2.1c0-0.1-0.1-0.2-0.1-0.3v0c0,0,0,0,0,0l0,0c0,0,0,0,0,0c0,0,0,0,0,0
		c0,0,0,0,0,0c0,0,0,0,0,0c0,0,0,0,0,0c0,0,0,0,0,0c0,0,0,0,0,0c0,0,0,0,0,0c0,0,0,0,0,0c0,0,0,0,0,0c0,0,0,0,0,0
		C57.2,20.4,57.1,20.3,57.1,20.2L57.1,20.2z M54.7,16.1l-4.3,3c0.1,0.2,0.2,0.3,0.3,0.5l4.3-2.9c0-0.1-0.1-0.1-0.1-0.2c0,0,0,0,0,0
		c0,0,0,0,0,0c0,0,0,0,0,0c0,0,0,0,0,0c0,0,0,0,0,0c0,0,0,0,0,0c0,0,0,0,0,0l0,0C54.8,16.3,54.7,16.2,54.7,16.1L54.7,16.1z
		 M51.5,12.4l-3.7,3.7c0.1,0.1,0.3,0.3,0.4,0.4l3.8-3.6c-0.1-0.1-0.1-0.1-0.2-0.2c0,0,0,0,0,0c0,0,0,0,0,0c0,0,0,0,0,0c0,0,0,0,0,0
		c0,0,0,0,0,0c0,0,0,0,0,0c0,0,0,0,0,0c0,0,0,0,0,0c0,0,0,0,0,0c0,0,0,0,0,0C51.8,12.6,51.7,12.5,51.5,12.4L51.5,12.4
		C51.6,12.4,51.6,12.4,51.5,12.4C51.6,12.4,51.6,12.4,51.5,12.4L51.5,12.4z M47.9,9.3l-3,4.3c0.2,0.1,0.3,0.2,0.5,0.3l3.1-4.2
		c0,0,0,0,0,0c0,0,0,0,0,0c0,0,0,0,0,0c0,0,0,0,0,0c0,0,0,0,0,0c0,0,0,0,0,0c0,0,0,0,0,0c0,0,0,0,0,0c0,0,0,0,0,0c0,0,0,0,0,0
		c0,0,0,0,0,0c0,0,0,0,0,0c0,0,0,0,0,0c0,0,0,0,0,0c0,0,0,0,0,0c0,0,0,0,0,0c0,0,0,0,0,0c0,0-0.1-0.1-0.1-0.1l0,0c0,0,0,0,0,0l0,0
		c0,0,0,0,0,0c0,0,0,0,0,0c0,0,0,0,0,0c0,0,0,0,0,0c0,0,0,0,0,0l0,0c0,0,0,0,0,0l0,0c0,0,0,0,0,0c0,0,0,0,0,0c0,0,0,0,0,0
		c0,0,0,0,0,0c0,0,0,0,0,0c0,0,0,0,0,0c0,0,0,0,0,0c0,0,0,0,0,0c0,0,0,0,0,0c0,0,0,0,0,0c0,0,0,0,0,0c0,0,0,0,0,0c0,0,0,0,0,0
		c0,0,0,0,0,0c0,0,0,0,0,0c0,0,0,0,0,0c0,0,0,0,0,0c0,0,0,0,0,0c0,0,0,0,0,0c0,0,0,0,0,0c0,0,0,0,0,0c0,0,0,0,0,0c0,0,0,0,0,0
		c0,0,0,0,0,0c0,0,0,0,0,0c0,0,0,0,0,0c0,0,0,0,0,0c0,0,0,0,0,0c0,0,0,0,0,0c0,0,0,0,0,0c0,0,0,0,0,0c0,0,0,0,0,0c0,0,0,0,0,0
		c0,0,0,0,0,0c0,0,0,0,0,0l0,0c0,0,0,0,0,0l0,0C47.9,9.3,47.9,9.3,47.9,9.3L47.9,9.3z M43.7,6.9l-2.2,4.7c0.2,0.1,0.3,0.2,0.5,0.2
		l2.3-4.7c-0.1,0-0.2-0.1-0.3-0.1c0,0,0,0,0,0c0,0,0,0,0,0c0,0,0,0,0,0c0,0,0,0,0,0c0,0,0,0,0,0c0,0,0,0,0,0c0,0,0,0,0,0
		c0,0,0,0,0,0c0,0,0,0,0,0c0,0,0,0,0,0c0,0,0,0,0,0c0,0,0,0,0,0c0,0,0,0,0,0c0,0,0,0,0,0c0,0,0,0,0,0c0,0,0,0,0,0c0,0,0,0,0,0
		c0,0,0,0,0,0c0,0,0,0,0,0c0,0,0,0,0,0c0,0,0,0,0,0c0,0,0,0,0,0c0,0,0,0,0,0c0,0,0,0,0,0c0,0,0,0,0,0c0,0,0,0,0,0h0
		C43.8,6.9,43.8,6.9,43.7,6.9L43.7,6.9z M39.2,5.2l-1.4,5c0.2,0,0.4,0.1,0.5,0.2l1.5-5c-0.1,0-0.1,0-0.2-0.1c0,0,0,0,0,0
		c0,0,0,0,0,0c0,0,0,0,0,0c0,0,0,0,0,0c0,0,0,0,0,0c0,0,0,0,0,0c0,0,0,0,0,0c0,0,0,0,0,0C39.5,5.3,39.4,5.3,39.2,5.2L39.2,5.2
		C39.2,5.2,39.2,5.2,39.2,5.2C39.2,5.2,39.2,5.2,39.2,5.2C39.2,5.2,39.2,5.2,39.2,5.2C39.2,5.2,39.2,5.2,39.2,5.2
		C39.2,5.2,39.2,5.2,39.2,5.2C39.2,5.2,39.2,5.2,39.2,5.2L39.2,5.2C39.2,5.2,39.2,5.2,39.2,5.2L39.2,5.2z M34.4,4.4L34,9.5
		c0.2,0,0.4,0,0.6,0.1l0.6-5.2C34.9,4.4,34.6,4.4,34.4,4.4L34.4,4.4z"/>
	<path d="M32,2.1c4,0,8,0.8,11.7,2.4c3.6,1.5,6.8,3.7,9.5,6.4c2.8,2.8,4.9,6,6.4,9.5C61.2,24,61.9,28,61.9,32s-0.8,8-2.4,11.7
		c-1.5,3.6-3.7,6.8-6.4,9.5c-2.8,2.8-6,4.9-9.5,6.4C40,61.2,36,61.9,32,61.9c-4,0-8-0.8-11.7-2.4c-3.6-1.5-6.8-3.7-9.5-6.4
		c-2.8-2.8-4.9-6-6.4-9.5C2.8,40,2.1,36,2.1,32s0.8-8,2.4-11.7c1.5-3.6,3.7-6.8,6.4-9.5c2.8-2.8,6-4.9,9.5-6.4C24,2.8,28,2.1,32,2.1
		 M32,0C14.3,0,0,14.3,0,32c0,17.7,14.3,32,32,32c17.7,0,32-14.3,32-32C64,14.3,49.7,0,32,0L32,0z"/>
</g>
</svg>
