<?xml version="1.0" encoding="utf-8"?>
<!-- Generator: Adobe Illustrator 18.1.1, SVG Export Plug-In . SVG Version: 6.00 Build 0)  -->
<!DOCTYPE svg PUBLIC "-//W3C//DTD SVG 1.1//EN" "http://www.w3.org/Graphics/SVG/1.1/DTD/svg11.dtd">
<svg version="1.1" id="Layer_1" xmlns="http://www.w3.org/2000/svg" xmlns:xlink="http://www.w3.org/1999/xlink" x="0px" y="0px"
	 viewBox="0 0 64 64" enable-background="new 0 0 64 64" xml:space="preserve">
<g>
	<path fill-rule="evenodd" clip-rule="evenodd" fill="#010202" d="M19.7,46.9c-2.2,2.3-2.8,5.1-1.6,5.8c1.1,0.6,3.7-0.1,5.6-2.1
		c0.6-0.7,1.1-1.4,1.5-2.2c0.1-0.2,0.1-0.3,0.2-0.5c0.1-0.2,0.1-0.3,0.2-0.5c0.5-1.5,0.5-3.1,0.1-4.8c-0.1,0.1-0.2,0.1-0.3,0.2l0,0
		C25.4,42.8,22,44.4,19.7,46.9z"/>
	<path fill-rule="evenodd" clip-rule="evenodd" fill="#010202" d="M32,0C14.3,0,0,14.3,0,32c0,17.7,14.3,32,32,32
		c17.7,0,32-14.3,32-32C64,14.3,49.7,0,32,0z M42.4,28.4c-5.5,2.1-10.1,1.8-12,1.2c-2.1-0.7-3.4-2.1-3.7-2.9c-0.1-0.3-0.3-0.8,0-1
		c0.2-0.1,0.3-0.1,0.8,0.5c0.5,0.6,2.6,2.1,6.5,1.6c10.3-1.1,16.4-9.1,14.5-13.4c-1.4-3-9.3-4.4-19.1,0.6c-12.1,6-12.7,11-12.8,12.8
		c-0.3,5.2,6.4,7.9,10,11.7c0.1,0.1,0.2,0.2,0.2,0.3c1.1-0.4,2.6-0.6,5-0.7c5.8-0.1,9.1,3.7,9,7.2c-0.1,2.7-2.6,3.8-3.1,3.9
		c-0.3,0.1-0.5,0.1-0.6-0.2c0-0.2,0.1-0.3,0.5-0.5c0.4-0.2,1.6-1,1.8-2.5c0.2-1.5-0.9-5-6.5-5.6c-2-0.2-3.6-0.1-4.9,0.3
		c1,2.1,1.2,6.5-1.1,9.8c-2.3,3.5-6.6,5.6-10.8,4.4c-1.4-0.4-3.4-3.2-1.6-7.1c1.7-3.7,8.8-7.3,9.8-7.8v0
		c-3.3-2.9-11.4-6.7-12.5-12.6c-0.3-1.7,0.5-5.7,5.4-10.3c4.1-3.9,9.9-6.8,15.2-8.7c8.9-3.2,18.3-1.3,19.8,4.4
		C53.5,19.3,48.6,26,42.4,28.4z"/>
</g>
</svg>
