<?xml version="1.0" encoding="utf-8"?>
<!-- Generator: Adobe Illustrator 18.1.1, SVG Export Plug-In . SVG Version: 6.00 Build 0)  -->
<!DOCTYPE svg PUBLIC "-//W3C//DTD SVG 1.1//EN" "http://www.w3.org/Graphics/SVG/1.1/DTD/svg11.dtd">
<svg version="1.1" id="Layer_1" xmlns="http://www.w3.org/2000/svg" xmlns:xlink="http://www.w3.org/1999/xlink" x="0px" y="0px"
	 viewBox="0 0 64 64" enable-background="new 0 0 64 64" xml:space="preserve">
<g>
	<path d="M49.8,42.7c-2.4,0-4.7,0.8-6.5,2.2L24.7,33.7c0.1-0.6,0.2-1.2,0.2-1.7c0-0.6-0.1-1.2-0.2-1.7l18.6-11.1
		c1.8,1.4,4,2.2,6.5,2.2c5.9,0,10.7-4.8,10.7-10.7C60.4,4.8,55.7,0,49.8,0c-5.9,0-10.7,4.8-10.7,10.7c0,0.6,0.1,1.2,0.2,1.7
		L20.7,23.5c-1.8-1.4-4-2.2-6.5-2.2C8.3,21.3,3.6,26.1,3.6,32s4.8,10.7,10.7,10.7c2.4,0,4.7-0.8,6.5-2.2l18.6,11.1
		c-0.1,0.6-0.2,1.1-0.2,1.7c0,5.9,4.8,10.7,10.7,10.7c5.9,0,10.7-4.8,10.7-10.7C60.4,47.4,55.7,42.7,49.8,42.7z"/>
</g>
</svg>
