<?xml version="1.0" encoding="utf-8"?>
<!-- Generator: Adobe Illustrator 18.1.1, SVG Export Plug-In . SVG Version: 6.00 Build 0)  -->
<!DOCTYPE svg PUBLIC "-//W3C//DTD SVG 1.1//EN" "http://www.w3.org/Graphics/SVG/1.1/DTD/svg11.dtd">
<svg version="1.1" id="Layer_1" xmlns="http://www.w3.org/2000/svg" xmlns:xlink="http://www.w3.org/1999/xlink" x="0px" y="0px"
	 viewBox="0 0 64 64" enable-background="new 0 0 64 64" xml:space="preserve">
<g id="skype">
	<g>
		<path d="M59.3,36.3c0.2-1.4,0.4-2.8,0.4-4.3c0-15.8-12.8-28.5-28.5-28.5c-1.5,0-2.9,0.1-4.3,0.4C24,1.5,20.3,0,16.3,0
			C7.3,0,0,7.3,0,16.3c0,3.7,1.2,7,3.3,9.8c-0.4,1.9-0.7,4-0.7,6c0,15.8,12.8,28.5,28.5,28.5c2,0,4-0.2,5.9-0.6
			c2.9,2.5,6.6,4,10.7,4c9,0,16.3-7.3,16.3-16.3C64,43.3,62.2,39.3,59.3,36.3z M44.5,44.5c-1.1,1.6-2.8,2.8-4.9,3.8
			c-2.2,0.9-4.7,1.4-7.7,1.4c-3.6,0-6.5-0.6-8.8-1.9c-1.6-0.9-3-2.1-4-3.6c-1-1.5-1.5-2.9-1.5-4.3c0-0.8,0.3-1.5,0.9-2.1
			c0.6-0.6,1.4-0.9,2.4-0.9c0.8,0,1.4,0.2,2,0.7c0.5,0.4,1,1.1,1.4,2c0.5,1.1,1,1.9,1.5,2.6c0.5,0.7,1.3,1.3,2.2,1.8
			c1,0.5,2.2,0.7,3.8,0.7c2.2,0,3.9-0.5,5.3-1.4c1.4-0.9,2-2.1,2-3.5c0-1.1-0.4-2-1.1-2.7c-0.7-0.7-1.7-1.2-2.8-1.6
			c-1.2-0.4-2.7-0.7-4.6-1.2c-2.6-0.6-4.8-1.2-6.5-2c-1.7-0.8-3.1-1.8-4.2-3.1c-1-1.3-1.5-2.9-1.5-4.8c0-1.8,0.5-3.4,1.6-4.9
			c1.1-1.4,2.6-2.5,4.7-3.3c2.1-0.8,4.5-1.1,7.2-1.1c2.2,0,4.1,0.2,5.7,0.8c1.6,0.5,3,1.2,4,2c1.1,0.8,1.8,1.7,2.3,2.6
			c0.5,0.9,0.7,1.8,0.7,2.7c0,0.8-0.3,1.5-0.9,2.2c-0.6,0.6-1.4,1-2.3,1c-0.8,0-1.5-0.2-1.9-0.6c-0.4-0.4-0.9-1-1.4-1.9
			c-0.7-1.2-1.4-2.2-2.4-2.9c-0.9-0.7-2.4-1.1-4.4-1.1c-1.9,0-3.4,0.4-4.6,1.1c-1.2,0.8-1.7,1.7-1.7,2.7c0,0.7,0.2,1.2,0.6,1.7
			c0.4,0.5,0.9,0.9,1.6,1.2c0.7,0.3,1.4,0.6,2.1,0.8c0.7,0.2,1.9,0.5,3.5,0.9c2,0.4,3.9,0.9,5.5,1.4c1.6,0.5,3,1.2,4.2,1.9
			c1.2,0.8,2.1,1.7,2.7,2.9c0.6,1.2,1,2.6,1,4.2C46.1,41.1,45.6,42.9,44.5,44.5z"/>
	</g>
</g>
</svg>
