<?xml version="1.0" encoding="utf-8"?>
<!-- Generator: Adobe Illustrator 18.1.1, SVG Export Plug-In . SVG Version: 6.00 Build 0)  -->
<!DOCTYPE svg PUBLIC "-//W3C//DTD SVG 1.1//EN" "http://www.w3.org/Graphics/SVG/1.1/DTD/svg11.dtd">
<svg version="1.1" id="Layer_1" xmlns="http://www.w3.org/2000/svg" xmlns:xlink="http://www.w3.org/1999/xlink" x="0px" y="0px"
	 viewBox="0 0 64 64" enable-background="new 0 0 64 64" xml:space="preserve">
<g>
	<path d="M61,30.5c-0.2,0.2-0.5,0.3-0.7,0.5V6.2c0-3.4-2.6-6.2-5.8-6.2H9.6C6.4,0,3.8,2.8,3.8,6.2V31c-0.3-0.2-0.5-0.3-0.8-0.5
		c-1.9-1.3-3.2,0.5-2,2.2c2.3,2.8,6.6,6.3,13.3,9c-7,24,17.2,27.8,16.8,15.5c0,0.2,0-7,0-12.1c0.6,0.1,1.2,0.3,1.7,0.4
		c0,5.1,0,11.9,0,11.7c-0.4,12.3,23.9,8.5,16.8-15.5c6.7-2.7,11-6.2,13.3-9C64.1,31,62.9,29.1,61,30.5z M37.1,36.6
		c-3-0.1-4.1,1.1-4.2,3.1c-0.7-0.5-1.4-1.1-2.2-1.8c-0.1-0.1-0.2-0.2-0.4-0.3c-0.6-0.7-1.7-1.1-3.4-1c-4,0.1-11.2,0.9-19.7-3.5V9
		c0-4.4,1.1-5.7,5.1-5.7H52c3.8,0,5.1,1.6,5.1,5.7v23.8C48.5,37.5,41.1,36.7,37.1,36.6z"/>
	<path d="M41.4,19.2c-4.3,0-7.7,3.2-7.7,7.2c0,4,3.5,7.2,7.7,7.2c4.3,0,7.7-3.2,7.7-7.2C49.1,22.4,45.7,19.2,41.4,19.2z"/>
	<ellipse cx="23.5" cy="26.4" rx="7.7" ry="7.2"/>
</g>
</svg>
