<?xml version="1.0" encoding="utf-8"?>
<!-- Generator: Adobe Illustrator 18.1.1, SVG Export Plug-In . SVG Version: 6.00 Build 0)  -->
<!DOCTYPE svg PUBLIC "-//W3C//DTD SVG 1.1//EN" "http://www.w3.org/Graphics/SVG/1.1/DTD/svg11.dtd">
<svg version="1.1" id="Layer_1" xmlns="http://www.w3.org/2000/svg" xmlns:xlink="http://www.w3.org/1999/xlink" x="0px" y="0px"
	 viewBox="0 0 64 64" enable-background="new 0 0 64 64" xml:space="preserve">
<g>
	<g>
		<path d="M3.1,32.5c-0.1,0-0.2,0.1-0.3,0.3l-0.6,5.7l0.6,5.6c0,0.1,0.1,0.3,0.3,0.3c0.1,0,0.2-0.1,0.3-0.3l0.7-5.6l-0.7-5.7
			C3.3,32.6,3.2,32.5,3.1,32.5z"/>
		<path d="M0.7,34.7c-0.1,0-0.2,0.1-0.3,0.3L0,38.5L0.5,42c0,0.1,0.1,0.2,0.3,0.2C0.9,42.3,1,42.2,1,42l0.6-3.5L1,35
			C1,34.8,0.9,34.7,0.7,34.7z"/>
		<path d="M5.6,31.4c-0.2,0-0.3,0.1-0.3,0.3l-0.6,6.8l0.6,6.6c0,0.2,0.2,0.3,0.3,0.3c0.2,0,0.3-0.1,0.3-0.3l0.7-6.6l-0.7-6.8
			C5.9,31.5,5.8,31.4,5.6,31.4z"/>
		<path d="M8.1,31.2c-0.2,0-0.4,0.2-0.4,0.4l-0.6,7l0.6,6.8c0,0.2,0.2,0.4,0.4,0.4c0.2,0,0.4-0.2,0.4-0.4l0.6-6.8l-0.6-7
			C8.5,31.3,8.3,31.2,8.1,31.2z"/>
		<polygon points="11.1,45.4 11.1,45.4 11.1,45.4 		"/>
		<path d="M11.1,32c0-0.2-0.2-0.4-0.4-0.4c-0.2,0-0.4,0.2-0.4,0.4l-0.5,6.5l0.5,6.8c0,0.2,0.2,0.4,0.4,0.4c0.2,0,0.4-0.2,0.4-0.4
			l0.6-6.8L11.1,32z"/>
		<path d="M13.3,27.5c-0.3,0-0.5,0.2-0.5,0.5l-0.5,10.6l0.5,6.8c0,0.3,0.2,0.5,0.5,0.5c0.3,0,0.5-0.2,0.5-0.5v0l0.6-6.8L13.8,28
			C13.7,27.7,13.5,27.5,13.3,27.5z"/>
		<path d="M15.8,25c-0.3,0-0.5,0.2-0.5,0.5c0,0-0.5,13-0.5,13l0.5,6.8c0,0.3,0.2,0.5,0.5,0.5c0.3,0,0.5-0.2,0.5-0.5v0l0.5-6.8
			l-0.5-13C16.4,25.3,16.1,25,15.8,25z"/>
		<path d="M18.5,23.9c-0.3,0-0.6,0.3-0.6,0.6c0,0-0.4,14.1-0.4,14.1l0.4,6.7c0,0.3,0.3,0.6,0.6,0.6c0.3,0,0.6-0.3,0.6-0.6v0l0.5-6.7
			l-0.5-14.1C19.1,24.1,18.8,23.9,18.5,23.9z"/>
		<path d="M21.8,24c0-0.4-0.3-0.6-0.6-0.6c-0.4,0-0.6,0.3-0.6,0.6l-0.4,14.6l0.4,6.7c0,0.4,0.3,0.6,0.6,0.6c0.4,0,0.6-0.3,0.6-0.6
			l0.5-6.7L21.8,24z"/>
		<polygon points="21.8,45.2 21.8,45.2 21.8,45.2 		"/>
		<path d="M23.8,23.7c-0.4,0-0.7,0.3-0.7,0.7l-0.4,14.2l0.4,6.6c0,0.4,0.3,0.7,0.7,0.7c0.4,0,0.7-0.3,0.7-0.7v0l0.4-6.6l-0.4-14.2
			C24.5,24,24.2,23.7,23.8,23.7z"/>
		<path d="M26.5,24.1c-0.4,0-0.8,0.3-0.8,0.8l-0.3,13.7l0.3,6.6c0,0.4,0.3,0.7,0.8,0.7c0.4,0,0.7-0.3,0.8-0.8v0l0.4-6.6l-0.4-13.7
			C27.2,24.5,26.9,24.1,26.5,24.1z"/>
		<path d="M29.6,21.6c-0.1-0.1-0.3-0.1-0.4-0.1c-0.2,0-0.3,0-0.4,0.1c-0.2,0.1-0.4,0.4-0.4,0.7l0,0.2L28,38.5c0,0,0.3,6.5,0.3,6.5
			c0,0,0,0,0,0c0,0.2,0.1,0.4,0.2,0.5c0.2,0.2,0.4,0.3,0.6,0.3c0.2,0,0.4-0.1,0.6-0.2c0.1-0.1,0.2-0.3,0.2-0.6l0-0.6l0.3-5.9
			L30,22.3C30,22,29.8,21.8,29.6,21.6z"/>
		<polygon points="30,45.1 30,45.1 30,45.1 30,45.1 30,45.1 30,45.1 30,45.1 		"/>
		<path d="M32.3,20.1c-0.1-0.1-0.3-0.1-0.4-0.1c-0.2,0-0.4,0.1-0.5,0.2c-0.2,0.2-0.3,0.4-0.3,0.7l0,0.1l-0.4,17.6l0.2,3.3L31,45
			c0,0.5,0.4,0.9,0.9,0.9c0.5,0,0.9-0.4,0.9-0.9v0l0,0l0.4-6.4l0,0l-0.4-17.7C32.7,20.5,32.5,20.2,32.3,20.1z"/>
		<path d="M56.1,30.2c-1.1,0-2.1,0.2-3,0.6c-0.6-7.1-6.6-12.7-13.8-12.7c-1.8,0-3.5,0.3-5,0.9c-0.6,0.2-0.8,0.5-0.8,0.9v25
			c0,0.5,0.4,0.9,0.8,0.9c0,0,21.8,0,21.8,0c4.3,0,7.9-3.5,7.9-7.8C64,33.7,60.5,30.2,56.1,30.2z"/>
	</g>
</g>
</svg>
