<?xml version="1.0" encoding="utf-8"?>
<!-- Generator: Adobe Illustrator 18.1.1, SVG Export Plug-In . SVG Version: 6.00 Build 0)  -->
<!DOCTYPE svg PUBLIC "-//W3C//DTD SVG 1.1//EN" "http://www.w3.org/Graphics/SVG/1.1/DTD/svg11.dtd">
<svg version="1.1" id="Layer_1" xmlns="http://www.w3.org/2000/svg" xmlns:xlink="http://www.w3.org/1999/xlink" x="0px" y="0px"
	 viewBox="0 0 64 64" enable-background="new 0 0 64 64" xml:space="preserve">
<g id="Layer_1_1_">
	<path d="M32,0C14.3,0,0,14.3,0,32c0,17.7,14.3,32,32,32s32-14.3,32-32C64,14.3,49.7,0,32,0z M44.3,47.2c-0.5,0-0.9-0.2-1.4-0.5
		c-4.6-2.8-10.4-4.3-16.6-4.3c-3.4,0-6.9,0.4-10.1,1.1c-0.5,0.1-1.2,0.3-1.6,0.3c-1.2,0-2-1-2-2c0-1.3,0.8-2,1.7-2.2
		c4-0.9,7.9-1.4,12-1.4c7,0,13.2,1.6,18.6,4.8c0.8,0.5,1.3,0.9,1.3,2.1C46.3,46.4,45.4,47.2,44.3,47.2z M47.8,38.7
		c-0.7,0-1.1-0.3-1.6-0.6C41,35.1,33.8,33,25.9,33c-4.1,0-7.5,0.6-10.4,1.3c-0.6,0.2-1,0.4-1.6,0.4c-1.4,0-2.5-1.1-2.5-2.5
		c0-1.4,0.7-2.3,2-2.7c3.6-1,7.3-1.8,12.6-1.8c8.4,0,16.5,2.1,22.8,5.9c1.1,0.6,1.5,1.4,1.5,2.5C50.3,37.6,49.2,38.7,47.8,38.7z
		 M51.8,28.9c-0.7,0-1-0.2-1.6-0.5C44.3,24.9,35.3,23,26.7,23c-4.3,0-8.7,0.4-12.8,1.5c-0.5,0.1-1.1,0.3-1.6,0.3c-1.7,0-3-1.4-3-3.1
		c0-1.7,1.1-2.7,2.2-3.1c4.6-1.3,9.7-2,15.2-2c9.4,0,19.3,1.9,26.5,6.2c1,0.6,1.6,1.4,1.6,2.9C54.8,27.6,53.4,28.9,51.8,28.9z"/>
</g>
</svg>
