<?xml version="1.0" encoding="utf-8"?>
<!-- Generator: Adobe Illustrator 18.1.1, SVG Export Plug-In . SVG Version: 6.00 Build 0)  -->
<!DOCTYPE svg PUBLIC "-//W3C//DTD SVG 1.1//EN" "http://www.w3.org/Graphics/SVG/1.1/DTD/svg11.dtd">
<svg version="1.1" id="Layer_1" xmlns="http://www.w3.org/2000/svg" xmlns:xlink="http://www.w3.org/1999/xlink" x="0px" y="0px"
	 viewBox="0 0 64 64" enable-background="new 0 0 64 64" xml:space="preserve">
<g>
	<rect x="6.2" y="28" width="51.6" height="10.6"/>
	<path d="M6.2,41.5v2.8c0,2.4,0.8,4.4,2.4,6c1.6,1.7,3.5,2.5,5.8,2.5h22V64l10.8-11.2h2.4c2.2,0,4.2-0.8,5.8-2.5
		c1.6-1.7,2.4-3.7,2.4-6v-2.8H6.2z"/>
	<rect x="6.2" y="14.3" width="51.6" height="10.6"/>
	<path d="M57.8,8.5c0-2.3-0.8-4.3-2.4-6C53.8,0.8,51.9,0,49.6,0H14.4c-2.2,0-4.2,0.8-5.8,2.5C7,4.1,6.2,6.1,6.2,8.5v2.8h51.6V8.5z"
		/>
</g>
</svg>
