<?xml version="1.0" encoding="utf-8"?>
<!-- Generator: Adobe Illustrator 18.1.1, SVG Export Plug-In . SVG Version: 6.00 Build 0)  -->
<!DOCTYPE svg PUBLIC "-//W3C//DTD SVG 1.1//EN" "http://www.w3.org/Graphics/SVG/1.1/DTD/svg11.dtd">
<svg version="1.1" id="Layer_1" xmlns="http://www.w3.org/2000/svg" xmlns:xlink="http://www.w3.org/1999/xlink" x="0px" y="0px"
	 viewBox="0 0 64 64" enable-background="new 0 0 64 64" xml:space="preserve">
<path d="M44.3,37.7c1.4,0,2.9,0,4.3,0c0,8.8,0,17.5,0,26.3c-13.9,0-27.8,0-41.7,0c0-8.8,0-17.5,0-26.3c1.4,0,2.8,0,4.3,0
	c0,7.3,0,14.7,0,22c11.1,0,22.1,0,33.2,0C44.3,52.4,44.3,45.1,44.3,37.7z M32.1,8.3c4.8,7,9.5,13.9,14.2,20.9c1.5-1,3-2,4.5-3
	c-4.8-7-9.5-13.9-14.2-20.9C35.1,6.3,33.6,7.3,32.1,8.3z M45.5,29.9c-7.3-4.3-14.5-8.6-21.8-12.8c-0.9,1.6-1.8,3.1-2.7,4.7
	c7.3,4.3,14.5,8.5,21.8,12.8C43.7,33,44.6,31.5,45.5,29.9z M52.8,0c-1.8,0.3-3.5,0.6-5.3,0.9c1.4,8.3,2.9,16.6,4.3,24.9
	c1.8-0.3,3.6-0.6,5.3-0.9C55.7,16.6,54.2,8.3,52.8,0z M42.3,36.1c-8.1-2.2-16.3-4.4-24.4-6.6c-0.5,1.7-0.9,3.5-1.4,5.2
	c8.1,2.2,16.3,4.4,24.4,6.6C41.4,39.6,41.8,37.8,42.3,36.1z M40,50.1c-8.4,0-16.8,0-25.2,0c0,1.8,0,3.6,0,5.4c8.4,0,16.8,0,25.2,0
	C40,53.6,40,51.9,40,50.1z M40.6,43.1c-8.4-0.8-16.8-1.5-25.2-2.3c-0.2,1.8-0.3,3.6-0.5,5.4c8.4,0.8,16.8,1.5,25.2,2.3
	C40.3,46.7,40.5,44.9,40.6,43.1z"/>
</svg>
