<?xml version="1.0" encoding="utf-8"?>
<!-- Generator: Adobe Illustrator 18.1.1, SVG Export Plug-In . SVG Version: 6.00 Build 0)  -->
<!DOCTYPE svg PUBLIC "-//W3C//DTD SVG 1.1//EN" "http://www.w3.org/Graphics/SVG/1.1/DTD/svg11.dtd">
<svg version="1.1" id="Layer_1" xmlns="http://www.w3.org/2000/svg" xmlns:xlink="http://www.w3.org/1999/xlink" x="0px" y="0px"
	 viewBox="0 0 64 64" enable-background="new 0 0 64 64" xml:space="preserve">
<path d="M44,17.7c0,3.3,2.7,6,6,6c3.3,0,6-2.7,6-6c0-3.3-2.7-6-6-6C46.7,11.7,44,14.4,44,17.7z M59.9,7.8c-5.5-5.5-14.3-5.5-19.8,0
	c-2.2,2.2-3.5,5-4,7.9l0,0L23.3,35.1c-1.7,0.1-3.4,0.5-5,1.3l-9.9-7.7c-2.3-1.8-5.6-1.4-7.4,0.9c-1.8,2.3-1.4,5.6,0.9,7.4l9.7,7.6
	c-1.1,4.2,0,8.8,3.3,12c4.9,4.9,12.9,4.9,17.9,0c3-3,4.2-7.2,3.5-11.1L52,31.5l0,0c2.9-0.4,5.7-1.7,7.9-4
	C65.4,22.1,65.4,13.3,59.9,7.8z M24,56.1c-4.6,0-8.4-3.8-8.4-8.4c0,0,0-0.1,0-0.1l4.2,3.3c1,0.8,2.1,1.1,3.2,1.1
	c1.6,0,3.1-0.7,4.1-2c1.8-2.3,1.4-5.6-0.9-7.4l-4-3.1c0.6-0.1,1.1-0.2,1.7-0.2c4.6,0,8.4,3.8,8.4,8.4S28.6,56.1,24,56.1z M50,27.7
	c-5.5,0-10-4.5-10-10c0-5.5,4.5-10,10-10s10,4.5,10,10C60,23.2,55.5,27.7,50,27.7z"/>
</svg>
