<?xml version="1.0" encoding="utf-8"?>
<!-- Generator: Adobe Illustrator 18.1.1, SVG Export Plug-In . SVG Version: 6.00 Build 0)  -->
<!DOCTYPE svg PUBLIC "-//W3C//DTD SVG 1.1//EN" "http://www.w3.org/Graphics/SVG/1.1/DTD/svg11.dtd">
<svg version="1.1" id="Layer_1" xmlns="http://www.w3.org/2000/svg" xmlns:xlink="http://www.w3.org/1999/xlink" x="0px" y="0px"
	 viewBox="0 0 64 64" enable-background="new 0 0 64 64" xml:space="preserve">
<path d="M35.4,25.8l4.4,2.1l6.6-2.1V22c0-7.9-6.4-14.3-14.3-14.3S17.7,14.1,17.7,22V42c0,1.9-1.5,3.4-3.4,3.4S11,43.9,11,42v-8.4H0
	V42c0,7.9,6.4,14.3,14.3,14.3S28.6,49.9,28.6,42V22c0-1.9,1.5-3.4,3.4-3.4c1.9,0,3.4,1.5,3.4,3.4V25.8z M53,33.6V42
	c0,1.9-1.5,3.4-3.4,3.4s-3.4-1.5-3.4-3.4v-8.6l-6.6,2.1l-4.4-2.1V42c0,7.9,6.4,14.3,14.3,14.3C57.6,56.3,64,49.9,64,42v-8.4H53z"/>
</svg>
