<?xml version="1.0" encoding="utf-8"?>
<!-- Generator: Adobe Illustrator 18.1.1, SVG Export Plug-In . SVG Version: 6.00 Build 0)  -->
<!DOCTYPE svg PUBLIC "-//W3C//DTD SVG 1.1//EN" "http://www.w3.org/Graphics/SVG/1.1/DTD/svg11.dtd">
<svg version="1.1" id="Layer_1" xmlns="http://www.w3.org/2000/svg" xmlns:xlink="http://www.w3.org/1999/xlink" x="0px" y="0px"
	 viewBox="0 0 64 64" enable-background="new 0 0 64 64" xml:space="preserve">
<path d="M63.2,0.8C62.7,0.3,62.1,0,61.3,0H2.7C1.9,0,1.3,0.3,0.8,0.8C0.3,1.3,0,1.9,0,2.7v58.7c0,0.7,0.3,1.3,0.8,1.9
	C1.3,63.7,1.9,64,2.7,64h58.7c0.7,0,1.3-0.3,1.9-0.8c0.5-0.5,0.8-1.2,0.8-1.9V2.7C64,1.9,63.7,1.3,63.2,0.8z M29.3,50.7
	c0,0.4-0.1,0.7-0.4,1c-0.2,0.2-0.6,0.4-1,0.4H8c-0.4,0-0.7-0.1-1-0.4c-0.2-0.2-0.4-0.6-0.4-1V8c0-0.4,0.1-0.7,0.4-1s0.6-0.4,1-0.4
	h20c0.4,0,0.7,0.1,1,0.4s0.4,0.6,0.4,1V50.7z M57.3,34.7c0,0.4-0.1,0.7-0.4,1c-0.2,0.2-0.6,0.4-1,0.4H36c-0.4,0-0.7-0.1-1-0.4
	s-0.4-0.6-0.4-1V8c0-0.4,0.1-0.7,0.4-1s0.6-0.4,1-0.4h20c0.4,0,0.7,0.1,1,0.4c0.2,0.2,0.4,0.6,0.4,1V34.7z"/>
</svg>
