<?xml version="1.0" encoding="utf-8"?>
<!-- Generator: Adobe Illustrator 18.1.1, SVG Export Plug-In . SVG Version: 6.00 Build 0)  -->
<!DOCTYPE svg PUBLIC "-//W3C//DTD SVG 1.1//EN" "http://www.w3.org/Graphics/SVG/1.1/DTD/svg11.dtd">
<svg version="1.1" id="Layer_1" xmlns="http://www.w3.org/2000/svg" xmlns:xlink="http://www.w3.org/1999/xlink" x="0px" y="0px"
	 viewBox="0 0 64 64" enable-background="new 0 0 64 64" xml:space="preserve">
<g>
	<path d="M39.2,13.6c1.8,0.3,3.5,0.7,5.3,1.2c3,0.9,5.9,2.2,8.5,3.9c0.2,0.1,0.4,0.2,0.7,0.2c3.1,0,6.3,0,9.4,0c0.3,0,0.5,0,0.8,0
		c0,0.1,0,0.1,0,0.1c-0.1,0.2-0.3,0.4-0.4,0.7c-1.1,1.6-2,3.3-2.5,5.2c-0.1,0.2-0.1,0.4,0.1,0.6c2.8,4,3.7,8.4,2.5,13.2
		c-1,4.2-3.4,7.4-7.1,9.7c-2.6,1.6-5.5,2.4-8.5,2.4c-1.3,0-2.6-0.2-3.8-0.5c-3.1-0.8-5.7-2.3-7.9-4.6c-0.3-0.3-0.6-0.6-0.9-1
		c-1.1,1.7-2.3,3.4-3.4,5.1c-1.2-1.7-2.3-3.4-3.4-5c-0.1,0-0.1,0-0.1,0.1c0,0,0,0-0.1,0.1c-2.6,3.1-5.9,5-9.9,5.6
		c-2.2,0.4-4.4,0.2-6.6-0.4c-3.1-0.8-5.7-2.5-7.8-4.9c-2.1-2.3-3.3-5.1-3.8-8.1c-0.6-2.9,0.1-5.7,0.3-6.3C1,29,1.8,27.2,3,25.6
		c0.1-0.1,0.1-0.3,0.1-0.5c-0.5-1.7-1.3-3.3-2.2-4.8c-0.2-0.4-0.5-0.7-0.8-1.1c0,0,0-0.1,0-0.1c0.1,0,0.1,0,0.2,0c3.2,0,6.4,0,9.7,0
		c0.1,0,0.3-0.1,0.4-0.1c2.3-1.5,4.7-2.6,7.2-3.5c1.8-0.6,3.7-1.1,5.6-1.5c1.8-0.4,3.7-0.6,5.6-0.7C33.2,12.8,36.8,13.3,39.2,13.6z
		 M35.2,34.9c0,7.1,5.7,12.8,12.8,12.8c7.1,0,12.8-5.6,12.8-12.8c0-7.4-6-12.9-13-12.8C40.7,22.3,35.2,27.9,35.2,34.9z M16,22.1
		c-6.9-0.1-12.9,5.7-12.7,13C3.4,41.9,9,47.7,16.2,47.6c7-0.1,12.6-5.8,12.6-12.7C28.8,27.8,23.1,22.1,16,22.1z M16.7,18.8
		C20.5,19,24,20.4,26.8,23c2.9,2.6,4.6,5.9,5.2,9.7c0.6-3.8,2.3-7,5.1-9.6c2.8-2.6,6.2-4,10-4.2c-4.5-2-9.3-2.9-14.2-3
		C27.3,15.8,21.8,16.6,16.7,18.8z"/>
	<path d="M47.9,26.8c4.4,0,7.9,3.5,7.9,7.9c0,4.4-3.5,7.8-7.6,7.9c-4.6,0.2-8.3-3.5-8.3-7.9C40,30.2,43.7,26.7,47.9,26.8z
		 M53.1,34.7c0-2.9-2.3-5.2-5.1-5.2c-2.9,0-5.2,2.3-5.2,5.1c0,2.8,2.3,5.2,5.2,5.2C50.8,39.9,53.1,37.6,53.1,34.7z"/>
	<path d="M15.9,26.8c4.4,0,7.9,3.5,7.9,7.9c0,4.4-3.5,7.7-7.5,7.9c-4.6,0.2-8.3-3.5-8.3-7.9C7.9,30.2,11.6,26.7,15.9,26.8z M21,34.7
		c0-2.9-2.3-5.2-5.2-5.1c-2.8,0-5.1,2.4-5.1,5.2c0,2.8,2.3,5.2,5.2,5.2C18.7,39.9,21,37.6,21,34.7z"/>
	<path d="M47.9,32.1c1.5,0,2.6,1.2,2.6,2.6c0,1.4-1.2,2.6-2.6,2.6c-1.5,0-2.6-1.2-2.6-2.6C45.3,33.3,46.5,32.1,47.9,32.1z"/>
	<path d="M15.8,32.1c1.5,0,2.7,1.2,2.7,2.6c0,1.5-1.2,2.6-2.7,2.7c-1.5,0-2.7-1.2-2.7-2.7C13.2,33.2,14.3,32.1,15.8,32.1z"/>
</g>
</svg>
