<?xml version="1.0" encoding="utf-8"?>
<!-- Generator: Adobe Illustrator 18.1.1, SVG Export Plug-In . SVG Version: 6.00 Build 0)  -->
<!DOCTYPE svg PUBLIC "-//W3C//DTD SVG 1.1//EN" "http://www.w3.org/Graphics/SVG/1.1/DTD/svg11.dtd">
<svg version="1.1" id="Layer_1" xmlns="http://www.w3.org/2000/svg" xmlns:xlink="http://www.w3.org/1999/xlink" x="0px" y="0px"
	 viewBox="0 0 64 64" enable-background="new 0 0 64 64" xml:space="preserve">
<path d="M42.9,53.5c-5.5,0-7.9-4.3-7.9-7.6c0-1.5,0-10.2,0-20h14V15.9H35C35,7.5,35,0,35,0s-5.7,0-10.1,0C24.9,13.9,13,16.4,13,16.4
	v9.5H21c0,0,0,15.7,0,23.6C21,57.4,28.3,64,37.2,64c8.9,0,13.8-3.5,13.8-3.5V50C51,50,48.3,53.5,42.9,53.5z"/>
</svg>
