<?xml version="1.0" encoding="utf-8"?>
<!-- Generator: Adobe Illustrator 18.1.1, SVG Export Plug-In . SVG Version: 6.00 Build 0)  -->
<!DOCTYPE svg PUBLIC "-//W3C//DTD SVG 1.1//EN" "http://www.w3.org/Graphics/SVG/1.1/DTD/svg11.dtd">
<svg version="1.1" id="Layer_1" xmlns="http://www.w3.org/2000/svg" xmlns:xlink="http://www.w3.org/1999/xlink" x="0px" y="0px"
	 viewBox="0 0 64 64" enable-background="new 0 0 64 64" xml:space="preserve">
<g id="twitter">
	<g>
		<path d="M64,12.2c-1.1,0.6-4.3,1.8-7.3,2.1c1.9-1,4.8-4.5,5.5-7.2c-1.9,1.2-6.1,2.9-8.2,2.9c0,0,0,0,0,0C51.5,7.6,48.2,6,44.4,6
			c-7.3,0-13.2,5.9-13.2,13.2c0,1,0.1,2,0.3,2.9h0c-9.9-0.3-21.5-5.2-28-13.7c-4,6.9-0.5,14.6,4,17.4C6,26,3.1,25.7,1.8,24.4
			C1.7,29,3.9,35.1,12,37.3c-1.6,0.8-4.3,0.6-5.5,0.4c0.4,3.9,5.9,9,11.8,9c-2.1,2.4-9.3,6.9-18.3,5.5C6.1,55.9,13.2,58,20.7,58
			c21.3,0,37.8-17.3,37-38.6c0,0,0-0.1,0-0.1c0-0.1,0-0.1,0-0.2c0-0.1,0-0.1,0-0.2C59.5,17.7,62.1,15.3,64,12.2z"/>
	</g>
</g>
</svg>
