<?xml version="1.0" encoding="utf-8"?>
<!-- Generator: Adobe Illustrator 18.1.1, SVG Export Plug-In . SVG Version: 6.00 Build 0)  -->
<!DOCTYPE svg PUBLIC "-//W3C//DTD SVG 1.1//EN" "http://www.w3.org/Graphics/SVG/1.1/DTD/svg11.dtd">
<svg version="1.1" id="Layer_1" xmlns="http://www.w3.org/2000/svg" xmlns:xlink="http://www.w3.org/1999/xlink" x="0px" y="0px"
	 viewBox="0 0 64 64" enable-background="new 0 0 64 64" xml:space="preserve">
<path fill="#010202" d="M7.1,26.1c-3.3,0-5.9,2.6-5.9,5.9c0,3.3,2.6,5.9,5.9,5.9c3.3,0,5.9-2.6,5.9-5.9C13,28.7,10.3,26.1,7.1,26.1z
	 M49.3,53c-2.8,1.6-3.8,5.2-2.2,8.1c1.6,2.8,5.2,3.8,8.1,2.2c2.8-1.6,3.8-5.2,2.2-8.1C55.8,52.3,52.1,51.3,49.3,53z M19.9,32
	c0-5.8,2.9-11,7.3-14.1l-4.3-7.2c-5.2,3.5-9,8.7-10.6,14.9c1.9,1.5,3.1,3.8,3.1,6.4c0,2.6-1.2,4.9-3.1,6.4
	c1.6,6.2,5.4,11.5,10.6,14.9l4.3-7.2C22.8,43,19.9,37.8,19.9,32z M37.2,14.7c9,0,16.4,6.9,17.2,15.7l8.4-0.1
	c-0.4-6.5-3.3-12.4-7.6-16.7c-2.2,0.8-4.8,0.7-7.1-0.6c-2.2-1.3-3.7-3.5-4-5.9c-2.2-0.6-4.5-0.9-6.9-0.9c-4.1,0-8,1-11.4,2.7
	l4.1,7.4C32.1,15.3,34.6,14.7,37.2,14.7z M37.2,49.3c-2.6,0-5.1-0.6-7.3-1.6L25.8,55c3.4,1.7,7.3,2.7,11.4,2.7
	c2.4,0,4.7-0.3,6.9-0.9c0.4-2.4,1.8-4.6,4-5.9c2.2-1.3,4.8-1.4,7.1-0.6c4.4-4.3,7.2-10.1,7.6-16.7l-8.4-0.1
	C53.6,42.4,46.2,49.3,37.2,49.3z M49.3,11c2.8,1.6,6.4,0.7,8.1-2.2C59,6,58,2.4,55.2,0.8c-2.8-1.6-6.4-0.7-8.1,2.2
	C45.5,5.8,46.5,9.4,49.3,11z"/>
</svg>
