<?xml version="1.0" encoding="utf-8"?>
<!-- Generator: Adobe Illustrator 18.1.1, SVG Export Plug-In . SVG Version: 6.00 Build 0)  -->
<!DOCTYPE svg PUBLIC "-//W3C//DTD SVG 1.1//EN" "http://www.w3.org/Graphics/SVG/1.1/DTD/svg11.dtd">
<svg version="1.1" id="Layer_1" xmlns="http://www.w3.org/2000/svg" xmlns:xlink="http://www.w3.org/1999/xlink" x="0px" y="0px"
	 viewBox="0 0 64 64" enable-background="new 0 0 64 64" xml:space="preserve">
<g>
	<path d="M48.1,32.2c0-0.1-0.1-0.2-0.1-0.3c-0.6,0.3-1.1,0.6-1.7,0.9c-0.6,0.3-1.1,0.5-1.7,0.7c-0.6,0.2-1.2,0.4-1.8,0.5
		c0,0.1,0,0.1,0,0.1c0,0.1,0.1,0.2,0.1,0.2c0.8,2.1,1.2,4.3,1.2,6.6c0,1.9-0.2,3.7-0.8,5.5c-0.8,2.7-2.2,5.1-4.1,7.2
		c-2.9,3-6.4,4.6-10.6,5c-0.4,0-0.8,0-1.2,0c0-0.1,0-0.1,0-0.1c0.2-0.2,0.4-0.3,0.6-0.5c4.3-3.3,7.7-7.3,10.1-12.1
		c2-4,3-8.3,3.1-12.8c0-2.2-0.1-4.4-0.5-6.5c-0.4-2.5-1.1-4.8-2-7.2c0-0.1-0.1-0.2-0.2-0.4c-0.1-0.4-0.1-0.5-0.1-0.6
		c0-0.1,0-0.2,0-0.2c-0.2-2-0.6-4-1.1-6C36.6,9.6,35.5,7,34,4.7c-1-1.6-2.2-3.1-3.7-4.3C30.1,0.2,30,0.1,29.8,0c0,0.1,0,0.1,0,0.2
		c0.1,0.2,0.2,0.4,0.3,0.6c2.5,4.4,4.8,8.9,6.7,13.6c0.5,1.3,1,2.6,1.5,3.9l0.1,0.3c0,0.1,0,0.2,0.1,0.6c0,0.7,0.1,1.4,0.1,2
		c0.1,3.5,0,7.1-0.4,10.6c-0.2,1.6-0.4,3.3-0.6,4.9c-0.3,2-0.8,4-1.4,6c-0.7,2.4-1.6,4.8-2.8,7c-1.1,2-2.4,3.8-4,5.4
		c-1.5,1.4-3.2,2.6-5.1,3.4c-0.2,0.1-0.4,0.1-0.6,0.1c-2.6-0.5-5-1.6-7.1-3.2c-1.8-1.4-3.2-3.2-4.3-5.2c-1.2-2.2-1.9-4.5-2.1-6.9
		c-0.1-1.4-0.1-2.9,0.1-4.3c0.2-1.8,0.7-3.4,1.4-5.1c1.1-2.4,2.6-4.4,4.6-6.2c1.5-1.4,3.2-2.4,5.1-3.1c1.2-0.5,2.5-0.8,3.8-0.9
		c1.1-0.1,2.3-0.1,3.5-0.1c1.5,0.1,2.9,0.4,4.3,1c0.1,0,0.2,0.1,0.4,0.1c0.1-1,0.3-1.9,0.6-2.8c0.3-0.9,0.7-1.7,1.1-2.6
		c-0.2-0.2-0.5-0.2-0.7-0.3c-1.9-0.6-3.8-0.9-5.7-1c-2.1-0.1-4.2,0-6.2,0.4c-2.5,0.5-4.8,1.4-6.9,2.7c-2,1.3-3.8,2.9-5.3,4.7
		c-3.4,4-5.3,8.7-5.5,14c-0.1,1.5,0,3,0.2,4.6c0.3,2.1,0.8,4.2,1.7,6.2c1.4,3.2,3.4,5.9,5.9,8.3c1.9,1.7,4,3.1,6.4,4
		c2.2,0.9,4.6,1.3,6.9,1.4c2.2,0.1,4.4,0,6.6-0.5c2.9-0.6,5.6-1.8,8-3.6c1.9-1.4,3.5-3.1,4.9-4.9c2.8-3.7,4.3-7.9,4.5-12.5
		c0.1-1.9,0-3.8-0.3-5.6C49.1,35.2,48.7,33.7,48.1,32.2z"/>
	<path d="M58.9,7.2c-0.5-1.8-1.2-3.5-2.1-5.1c-0.1-0.2-0.3-0.5-0.5-0.7c-0.1,0.2-0.2,0.4-0.3,0.6c-0.6,1.2-1.4,2.3-2.4,3.3
		c-1.5,1.5-3.2,2.5-5.3,3c-0.2,0-0.4,0.1-0.5,0.1c-1.5,0.4-3,1-4.3,1.8c-0.9,0.5-1.7,1.2-2.4,2.1c-1.2,1.6-1.8,3.4-1.7,5.4
		c0.1,1.6,0.5,3.2,1.3,4.6c0,0.1,0.1,0.1,0.2,0.2c6.5-1.6,11.3-5.3,14.7-11.2c0,0.2,0,0.3,0,0.4c-0.1,0.5-0.3,1-0.5,1.5
		c-0.5,1-1.2,1.9-1.9,2.8c-1.3,1.5-2.8,2.8-4.4,4c-1.9,1.4-3.9,2.8-6,4c-0.2,0.1-0.3,0.1-0.4,0.3c0.3,0.3,0.5,0.5,0.8,0.7
		c1.1,0.9,2.2,1.6,3.5,2c1.2,0.4,2.5,0.5,3.8,0.3c1.6-0.3,2.9-1,4.1-2c1.2-1,2.1-2.2,2.9-3.5c0.4-0.8,0.9-1.5,1.2-2.4
		c0.6-1.7,1-3.5,1.1-5.4C59.7,11.7,59.5,9.4,58.9,7.2z"/>
</g>
</svg>
