<?xml version="1.0" encoding="utf-8"?>
<!-- Generator: Adobe Illustrator 18.1.1, SVG Export Plug-In . SVG Version: 6.00 Build 0)  -->
<!DOCTYPE svg PUBLIC "-//W3C//DTD SVG 1.1//EN" "http://www.w3.org/Graphics/SVG/1.1/DTD/svg11.dtd">
<svg version="1.1" id="Layer_1" xmlns="http://www.w3.org/2000/svg" xmlns:xlink="http://www.w3.org/1999/xlink" x="0px" y="0px"
	 viewBox="0 0 64 64" enable-background="new 0 0 64 64" xml:space="preserve">
<g id="vimeo">
	<g>
		<path d="M53.9,4c-8.1,0-14.5,5.3-17.3,15.2c3-1.4,8.4-2.2,8.9,2.8c0.4,5-7.1,17.8-10.4,17.8c-3.3,0-5.7-14.5-6.6-21.1
			C27.7,12,26.1,4.7,19.9,4.7C13.6,4.7,5.6,14.5,0,18.9l2.9,4c0,0,4.2-3.3,5.6-3c3.8,1,7,16.4,8.7,22.3C18.9,48.1,20.9,60,29.1,60
			C42.2,60,64,27.4,64,16.7C64,9.7,62,4,53.9,4z"/>
	</g>
</g>
</svg>
