<?xml version="1.0" encoding="utf-8"?>
<!-- Generator: Adobe Illustrator 18.1.1, SVG Export Plug-In . SVG Version: 6.00 Build 0)  -->
<!DOCTYPE svg PUBLIC "-//W3C//DTD SVG 1.1//EN" "http://www.w3.org/Graphics/SVG/1.1/DTD/svg11.dtd">
<svg version="1.1" id="Layer_1" xmlns="http://www.w3.org/2000/svg" xmlns:xlink="http://www.w3.org/1999/xlink" x="0px" y="0px"
	 viewBox="0 0 64 64" enable-background="new 0 0 64 64" xml:space="preserve">
<g>
	<path d="M60.6,31.6c-1.1,0.3-2.3,0.5-3.5,0.6c-5.8,0.5-10.8-1.2-14-6.3c-1.9-3.1-2.5-6.6-2.3-10.2c0.1-1.4,0.4-2.8,1.1-4.1
		c0.7-1.2,1.7-1.9,3.1-2c2-0.1,3.5,1.2,4,3.7c0.7,3.2,0.2,6.3-0.6,9.3c-0.1,0.3-0.3,1-0.3,1s0.4,0.5,0.7,0.8
		c2.1,2.1,4.7,2.6,7.6,2.4c0.4,0,1.1-0.1,1.1-0.1s0.3-0.7,0.4-1c1.5-4.2,2.2-8.5,1.7-12.9c-0.6-6.3-4-11.8-12.1-12.7
		c-7.2-0.7-13.2,2.6-15.7,9.5c-1.4,4-1.5,8-0.8,12.1c1.2,6.8,4.4,12.4,10.6,16c0.6,0.4,0.6,0.6,0.3,1.2c-2.5,4.8-5.5,9.2-9.1,13.2
		c-1.6,1.7-1.5,1.7-3-0.2c-7.4-9.3-11.4-20.1-13.7-31.6c-0.6-3.2-1.1-6.3-1.5-9.5l-0.1-1.1l-11,0l0.1,0.6c1.4,9.9,3.5,19.7,7.2,29
		c2.7,6.9,6.2,13.3,11.2,18.9c1.6,1.8,3.4,3.4,5.5,4.7c2.4,1.5,4.7,1.4,7-0.2c0.7-0.5,1.3-1,1.9-1.5c6.3-5.7,11.5-12.4,15.4-20.1
		c0.3-0.6,0.6-0.9,1.3-0.9c1.6,0,3.2-0.2,4.8-0.5c0.9-0.2,1.9-0.3,2.8-0.6V31.6z"/>
</g>
</svg>
