<?xml version="1.0" encoding="utf-8"?>
<!-- Generator: Adobe Illustrator 18.1.1, SVG Export Plug-In . SVG Version: 6.00 Build 0)  -->
<!DOCTYPE svg PUBLIC "-//W3C//DTD SVG 1.1//EN" "http://www.w3.org/Graphics/SVG/1.1/DTD/svg11.dtd">
<svg version="1.1" id="Layer_1" xmlns="http://www.w3.org/2000/svg" xmlns:xlink="http://www.w3.org/1999/xlink" x="0px" y="0px"
	 viewBox="0 0 64 64" enable-background="new 0 0 64 64" xml:space="preserve">
<path fill-rule="evenodd" clip-rule="evenodd" d="M31.3,50.1h3.8c0,0,1.1,0,1.7-0.8c0.5-0.6,0.5-1.7,0.5-1.7s-0.1-5.1,2.3-5.9
	c2.3-0.7,5.3,5,8.6,7.2c2.1,1.4,4.3,1.2,4.3,1.2s7.9,0,8.5,0c0.6,0,4.3-0.5,2.4-3.9c-0.2-0.3-1.2-2.6-6.4-7.4
	c-5.4-5-4.6-4.2,1.8-12.8c3.9-5.2,5.4-8.4,5-9.8c-0.3-1.1-3.4-0.9-3.4-0.9h-9.6c0,0-0.7-0.1-1.2,0.2c-0.5,0.3-0.8,1-0.8,1
	s-1.5,4.1-3.6,7.5c-4.3,7.3-6,7.7-6.7,7.2c-1.6-1.1-1.2-4.2-1.2-6.5c0-7.1,1.1-10-2.1-10.8c-1-0.3-1.8-0.4-4.5-0.4
	c-3.4,0-6.3,0-8,0.8c-1.1,0.5-1.9,1.7-1.4,1.8c0.6,0.1,2.1,0.4,2.8,1.4c1,1.3,1,4.4,1,4.4s0.6,8.3-1.3,9.3c-1.3,0.7-3.1-0.7-6.9-7.3
	c-2-3.4-3.4-7.1-3.4-7.1s-0.3-0.7-0.8-1.1c-0.8-0.6-1.5-0.6-1.5-0.6H2.1c0,0-1.4-0.1-1.9,0.7c-0.4,0.7,0,1.6,0,1.6
	s7.2,16.8,15.3,25.2C22.9,50.7,31.3,50.1,31.3,50.1L31.3,50.1z"/>
</svg>
