<?xml version="1.0" encoding="utf-8"?>
<!-- Generator: Adobe Illustrator 18.1.1, SVG Export Plug-In . SVG Version: 6.00 Build 0)  -->
<!DOCTYPE svg PUBLIC "-//W3C//DTD SVG 1.1//EN" "http://www.w3.org/Graphics/SVG/1.1/DTD/svg11.dtd">
<svg version="1.1" id="Layer_1" xmlns="http://www.w3.org/2000/svg" xmlns:xlink="http://www.w3.org/1999/xlink" x="0px" y="0px"
	 viewBox="0 0 64 64" enable-background="new 0 0 64 64" xml:space="preserve">
<g>
	<path d="M64,43.4c0-9.4-8.9-17-20-17c-11,0-20,7.6-20,17c0,9.4,8.9,17,20,17c3.5,0,6.7-0.8,9.6-2.1l7.9,3.4l-0.9-8.8
		C62.7,50.2,64,46.9,64,43.4z M37.3,38.8c-1.6,0-2.8-1.3-2.8-2.8c0-1.6,1.3-2.8,2.8-2.8c1.6,0,2.8,1.3,2.8,2.8
		C40.1,37.6,38.9,38.8,37.3,38.8z M50.8,38.8c-1.6,0-2.8-1.3-2.8-2.8c0-1.6,1.3-2.8,2.8-2.8c1.6,0,2.8,1.3,2.8,2.8
		C53.6,37.6,52.3,38.8,50.8,38.8z"/>
	<path d="M44,24.2c3.1,0,6,0.6,8.7,1.5c0-0.4,0.1-0.7,0.1-1.1C52.8,12.3,41,2.3,26.4,2.3C11.8,2.3,0,12.3,0,24.7
		c0,4.7,1.7,9,4.5,12.6L3.3,48.9l10.4-4.5c2.6,1.2,5.4,2,8.4,2.4c-0.2-1.1-0.4-2.2-0.4-3.4C21.8,32.8,31.8,24.2,44,24.2z M35.3,11.1
		c2.1,0,3.8,1.7,3.8,3.8c0,2.1-1.7,3.8-3.8,3.8c-2.1,0-3.8-1.7-3.8-3.8C31.5,12.8,33.2,11.1,35.3,11.1z M17.5,18.6
		c-2.1,0-3.7-1.7-3.7-3.8c0-2.1,1.7-3.8,3.7-3.8c2.1,0,3.8,1.7,3.8,3.8C21.3,16.9,19.6,18.6,17.5,18.6z"/>
</g>
</svg>
