<?xml version="1.0" encoding="utf-8"?>
<!-- Generator: Adobe Illustrator 18.1.1, SVG Export Plug-In . SVG Version: 6.00 Build 0)  -->
<!DOCTYPE svg PUBLIC "-//W3C//DTD SVG 1.1//EN" "http://www.w3.org/Graphics/SVG/1.1/DTD/svg11.dtd">
<svg version="1.1" id="Layer_1" xmlns="http://www.w3.org/2000/svg" xmlns:xlink="http://www.w3.org/1999/xlink" x="0px" y="0px"
	 viewBox="0 0 64 64" enable-background="new 0 0 64 64" xml:space="preserve">
<g>
	<path d="M48.1,31c-0.9-0.3-1.5-0.5-1-1.6c1-2.6,1.1-4.8,0-6.4c-2.1-3-7.8-2.8-14.3-0.1c0,0-2,0.9-1.5-0.7c1-3.2,0.9-5.9-0.7-7.5
		c-3.5-3.5-12.9,0.1-21,8.2c-6,6-9.5,12.4-9.5,18c0,10.6,13.6,17,26.9,17c17.4,0,29-10.1,29-18.1C55.8,34.9,51.7,32.2,48.1,31z
		 M26.9,54.1c-10.6,1-19.7-3.7-20.4-10.7c-0.7-7,7.3-13.4,17.9-14.5c10.6-1,19.7,3.7,20.4,10.7C45.5,46.6,37.5,53.1,26.9,54.1z"/>
	<path d="M59.6,11.7L59.6,11.7C55.4,7,49.2,5.2,43.5,6.5h0c-1.3,0.3-2.2,1.6-1.9,2.9c0.3,1.3,1.6,2.2,2.9,1.9
		C48.6,10.4,53,11.6,56,15c3,3.3,3.8,7.8,2.5,11.8v0c-0.4,1.3,0.3,2.7,1.6,3.1c1.3,0.4,2.7-0.3,3.1-1.6c0,0,0,0,0,0
		C65,22.7,63.8,16.3,59.6,11.7z"/>
	<path d="M45.3,15c-1.1,0.2-1.9,1.4-1.6,2.5c0.2,1.1,1.4,1.9,2.5,1.6v0c1.4-0.3,2.8,0.1,3.8,1.2c1,1.1,1.3,2.6,0.8,3.9h0
		c-0.4,1.1,0.2,2.3,1.4,2.7c1.1,0.4,2.3-0.2,2.7-1.4c0.9-2.7,0.3-5.8-1.7-8.1C51.1,15.2,48.1,14.4,45.3,15z"/>
	<polygon points="53.2,17.5 53.2,17.5 53.2,17.5 	"/>
	<path d="M27.9,34.3c-5-1.3-10.7,1.2-12.9,5.6c-2.2,4.5-0.1,9.6,5,11.2c5.3,1.7,11.5-0.9,13.7-5.8C35.8,40.6,33.2,35.6,27.9,34.3z
		 M24.1,45.9c-1,1.6-3.2,2.4-4.9,1.6c-1.6-0.7-2.1-2.6-1.1-4.2c1-1.6,3.1-2.3,4.8-1.6C24.6,42.3,25.1,44.2,24.1,45.9z M27.5,41.5
		c-0.4,0.6-1.2,0.9-1.8,0.7c-0.6-0.3-0.8-1-0.5-1.6c0.4-0.6,1.2-0.9,1.8-0.7C27.6,40.2,27.8,40.9,27.5,41.5z"/>
</g>
</svg>
