<?xml version="1.0" encoding="utf-8"?>
<!-- Generator: Adobe Illustrator 18.1.1, SVG Export Plug-In . SVG Version: 6.00 Build 0)  -->
<!DOCTYPE svg PUBLIC "-//W3C//DTD SVG 1.1//EN" "http://www.w3.org/Graphics/SVG/1.1/DTD/svg11.dtd">
<svg version="1.1" id="Layer_1" xmlns="http://www.w3.org/2000/svg" xmlns:xlink="http://www.w3.org/1999/xlink" x="0px" y="0px"
	 viewBox="0 0 64 64" enable-background="new 0 0 64 64" xml:space="preserve">
<path d="M35.6,11.2c0,0.2,0,0.3,0.1,0.4c0.1,0.1,0.2,0.1,0.3,0.1l0.4,0c1.4,0.1,2,0.5,2.1,0.7c0.3,0.4,0.5,0.9-0.3,2.8l-4.7,10.3
	L29.3,16c-1.4-3-1.7-4.1,0.9-4.3l0,0c0.4,0,0.3-0.2,0.3-0.5V9.9c0,0,0-0.1-0.2-0.1s-10.9,0-11.1,0c-0.1,0-0.1,0.1-0.1,0.1v1.3
	c0,0.3,0.3,0.4,0.8,0.5c2,0.3,1.9,0.5,3.9,4.7C24.2,17.1,25,19,25,19l4.4,9.5c0,0,0.5,1.2,1.3,3.1l-6.4,14.1c-0.1,0.2-0.3,0-0.4-0.1
	c0,0-9.9-23.1-12.8-30.8c-0.3-0.8-0.4-1.4-0.4-1.8c0-0.8,0.6-1.2,1.9-1.3l2-0.1c0.4,0,1.1-0.2,1.1-0.5V10c0,0,0-0.2-0.6-0.2
	c-0.6,0-14.2,0-14.7,0S0,10.1,0,10.1v1.2c0,0.2,0.3,0.4,0.9,0.5c1.5,0.1,2.5,0.4,3,0.8c0.5,0.4,1,1.6,1.7,3.3
	c3.6,9.5,11.3,26.6,15.1,36.3c1.1,2.6,2.4,3.1,4.1-0.1c1.7-3.4,5.1-11.1,7.6-16.7c2.3,5.6,5.5,13.3,7,16.7c1.2,2.8,2.6,3,4,0.1
	C47,43.1,57.8,16,57.8,16c0.5-1.3,1.1-2.4,2-3.1c0.8-0.7,2.1-1.2,3.8-1.2c0.4,0,0.5-0.2,0.5-0.5V9.9c0,0,0-0.2-0.2-0.2
	c-0.2,0-9.8,0-13.1,0c0,0-0.9,0-0.9,0.3c0,0.2,0,1.2,0,1.2c0,0.1,0.2,0.2,0.6,0.4c0.2,0.1,0.4,0.2,0.6,0.2l1.2,0.1
	c1.4,0.1,1.8,0.4,2.3,0.9c0.5,0.5,0.6,1.4,0.2,2.6L42.9,45.8c-0.1,0.2-0.3,0.1-0.4-0.1l-7.4-16.7c0.1-0.3,0.2-0.4,0.2-0.4L41.3,16
	c0.7-1.3,1.4-2.5,1.7-3c0.6-1,0.9-1.2,2.7-1.3c0.4,0,0.5-0.2,0.5-0.5V9.9c0,0,0-0.1-0.1-0.1c-0.1,0-7.2,0-10.5,0"/>
</svg>
