<?xml version="1.0" encoding="utf-8"?>
<!-- Generator: Adobe Illustrator 18.1.1, SVG Export Plug-In . SVG Version: 6.00 Build 0)  -->
<!DOCTYPE svg PUBLIC "-//W3C//DTD SVG 1.1//EN" "http://www.w3.org/Graphics/SVG/1.1/DTD/svg11.dtd">
<svg version="1.1" id="Layer_1" xmlns="http://www.w3.org/2000/svg" xmlns:xlink="http://www.w3.org/1999/xlink" x="0px" y="0px"
	 viewBox="0 0 64 64" enable-background="new 0 0 64 64" xml:space="preserve">
<path d="M32,0C14.4,0,0,14.4,0,32s14.4,32,32,32c17.6,0,32-14.4,32-32C64,14.4,49.6,0,32,0z M3.7,32c0-4.1,0.9-8,2.5-11.5l13.5,37
	C10.2,52.9,3.7,43.2,3.7,32z M32,60.3c-2.8,0-5.5-0.4-8-1.2l8.5-24.7l8.7,23.9c0.1,0.1,0.1,0.3,0.2,0.4C38.5,59.8,35.3,60.3,32,60.3
	z M35.9,18.7c1.7-0.1,3.2-0.3,3.2-0.3c1.5-0.2,1.3-2.4-0.2-2.3c0,0-4.6,0.4-7.6,0.4c-2.8,0-7.5-0.4-7.5-0.4
	c-1.5-0.1-1.7,2.2-0.2,2.3c0,0,1.4,0.2,3,0.3l4.4,12.1L25,49.4L14.6,18.7c1.7-0.1,3.2-0.3,3.2-0.3c1.5-0.2,1.3-2.4-0.2-2.3
	c0,0-4.6,0.4-7.6,0.4c-0.5,0-1.2,0-1.8,0C13.4,8.7,22.1,3.7,32,3.7c7.4,0,14.1,2.8,19.1,7.4c-0.1,0-0.2,0-0.4,0
	c-2.8,0-4.8,2.4-4.8,5c0,2.3,1.3,4.3,2.8,6.6c1.1,1.9,2.3,4.3,2.3,7.8c0,2.4-0.9,5.2-2.2,9.2l-2.8,9.4L35.9,18.7z M46.2,56.5l8.7-25
	c1.6-4,2.2-7.3,2.2-10.1c0-1-0.1-2-0.2-2.9c2.2,4,3.5,8.7,3.5,13.6C60.3,42.4,54.7,51.6,46.2,56.5z"/>
</svg>
