<?xml version="1.0" encoding="utf-8"?>
<!-- Generator: Adobe Illustrator 18.1.1, SVG Export Plug-In . SVG Version: 6.00 Build 0)  -->
<!DOCTYPE svg PUBLIC "-//W3C//DTD SVG 1.1//EN" "http://www.w3.org/Graphics/SVG/1.1/DTD/svg11.dtd">
<svg version="1.1" id="Layer_1" xmlns="http://www.w3.org/2000/svg" xmlns:xlink="http://www.w3.org/1999/xlink" x="0px" y="0px"
	 viewBox="0 0 64 64" enable-background="new 0 0 64 64" xml:space="preserve">
<path d="M0,32c0,12.7,7.4,23.6,18,28.8L2.8,19C1,23,0,27.4,0,32z M53.6,30.4c0-4-1.4-6.7-2.6-8.8c-1.6-2.6-3.1-4.9-3.1-7.5
	c0-2.9,2.2-5.7,5.4-5.7c0.1,0,0.3,0,0.4,0C47.9,3.2,40.3,0,32,0C20.8,0,11,5.7,5.3,14.4c0.8,0,1.5,0,2.1,0c3.3,0,8.5-0.4,8.5-0.4
	c1.7-0.1,1.9,2.4,0.2,2.6c0,0-1.7,0.2-3.7,0.3L24,51.7l7-21l-5-13.7c-1.7-0.1-3.4-0.3-3.4-0.3c-1.7-0.1-1.5-2.7,0.2-2.6
	c0,0,5.3,0.4,8.4,0.4c3.4,0,8.5-0.4,8.5-0.4c1.7-0.1,1.9,2.4,0.2,2.6c0,0-1.7,0.2-3.7,0.3L48,51.4l3.2-10.7
	C52.8,36.6,53.6,33.1,53.6,30.4z M32.6,34.8L23,62.7c2.9,0.8,5.9,1.3,9,1.3c3.7,0,7.3-0.6,10.6-1.8c-0.1-0.1-0.2-0.3-0.2-0.4
	L32.6,34.8z M60.1,16.6c0.1,1,0.2,2.1,0.2,3.3c0,3.2-0.6,6.9-2.4,11.5l-9.8,28.3C57.6,54.1,64,43.8,64,32
	C64,26.4,62.6,21.2,60.1,16.6z"/>
</svg>
