<?xml version="1.0" encoding="utf-8"?>
<!-- Generator: Adobe Illustrator 18.1.1, SVG Export Plug-In . SVG Version: 6.00 Build 0)  -->
<!DOCTYPE svg PUBLIC "-//W3C//DTD SVG 1.1//EN" "http://www.w3.org/Graphics/SVG/1.1/DTD/svg11.dtd">
<svg version="1.1" id="Layer_1" xmlns="http://www.w3.org/2000/svg" xmlns:xlink="http://www.w3.org/1999/xlink" x="0px" y="0px"
	 viewBox="0 0 64 64" enable-background="new 0 0 64 64" xml:space="preserve">
<g>
	<path d="M21.5,14.4c-0.5-0.8-1.2-1.7-2.6-1.7H9.7c-0.6,0-1,0.2-1.3,0.6c-0.2,0.4-0.2,0.9,0.1,1.4l6.2,10.8c0,0,0,0,0,0.1L5,42.8
		c-0.3,0.5-0.2,1,0,1.4c0.2,0.4,0.6,0.6,1.2,0.6h9.2c1.4,0,2-0.9,2.5-1.8c0,0,9.6-17,10-17.6C27.8,25.4,21.5,14.4,21.5,14.4z"/>
	<path d="M59,2c0.3-0.5,0.3-1,0-1.4C58.8,0.2,58.4,0,57.8,0h-9.3c-1.4,0-2,0.9-2.5,1.8c0,0-19.9,35.3-20.5,36.4
		c0,0.1,13.1,24.1,13.1,24.1c0.5,0.8,1.2,1.8,2.6,1.8h9.2c0.6,0,1-0.2,1.2-0.6c0.2-0.4,0.2-0.9,0-1.4l-13-23.8c0,0,0,0,0-0.1L59,2z"
		/>
</g>
</svg>
