<?xml version="1.0" encoding="utf-8"?>
<!-- Generator: Adobe Illustrator 18.1.1, SVG Export Plug-In . SVG Version: 6.00 Build 0)  -->
<!DOCTYPE svg PUBLIC "-//W3C//DTD SVG 1.1//EN" "http://www.w3.org/Graphics/SVG/1.1/DTD/svg11.dtd">
<svg version="1.1" id="Layer_1" xmlns="http://www.w3.org/2000/svg" xmlns:xlink="http://www.w3.org/1999/xlink" x="0px" y="0px"
	 viewBox="0 0 64 64" enable-background="new 0 0 64 64" xml:space="preserve">
<g>
	<path d="M47.8,1.8C47.8,1.8,47.8,1.8,47.8,1.8L47.8,1.8h-8C37.5,6,29.2,19.6,23.9,28.3C18.5,19.4,12.1,9.1,8,1.8H0
		c6.5,9.8,17,28.5,20.5,34.7l0,25.6h6.6l0.1-25.6C33.8,24.8,44.8,5.8,47.8,1.8z"/>
	<path d="M64,6.1c0-2.1-1.3-3.3-3.3-3.7l0,0v0c0,0-0.5-0.1-0.8-0.1c-1.9,0-3.8,1.1-3.8,4c-1.1,14.4-2.3,28.8-4.3,42.5l0,0
		c0,0,0,0,0,0v0l0,0l3,0.5l0,0c2.2-13.9,7.4-34.8,8.8-40.7C63.7,7.8,64,6.8,64,6.1z"/>
	<path d="M51.5,54.6c-2.5,0-3.7,1.9-3.7,4c0,2.4,1.9,3.7,4.3,3.7c1.7,0,3.6-1.1,3.6-3.9C55.7,56,53.9,54.6,51.5,54.6z"/>
</g>
</svg>
