<?xml version="1.0" encoding="utf-8"?>
<!-- Generator: Adobe Illustrator 18.1.1, SVG Export Plug-In . SVG Version: 6.00 Build 0)  -->
<!DOCTYPE svg PUBLIC "-//W3C//DTD SVG 1.1//EN" "http://www.w3.org/Graphics/SVG/1.1/DTD/svg11.dtd">
<svg version="1.1" id="Layer_1" xmlns="http://www.w3.org/2000/svg" xmlns:xlink="http://www.w3.org/1999/xlink" x="0px" y="0px"
	 viewBox="0 0 64 64" enable-background="new 0 0 64 64" xml:space="preserve">
<path d="M27,11.8H0v3.4h8.5c3.3,2.7,17.5,20,18,21.7c0.2,1.5,0.5,10.7-0.1,11.4c-0.7,1.1-8.4,0.5-9.8,0.6l0,3.4
	c2.5,0.1,9.9,0,12.4,0c4.9,0,13.6-0.1,14.8,0l0.2-3.2l-10-0.1c-0.2-1.4-0.4-10.5-0.2-11.5c0.9-2.9,16.5-14.9,17.8-15.2
	c1.3-0.3,2.3-0.3,2.3-0.3h3.8l0.8-1.1c0.8-1.1,1.7-2,1.7-2l0.2-0.3h-25l1,3.4h6.8L31.6,32.4c-2.3-3.4-7.8-11.3-11.7-17.2H27V11.8z
	 M54.6,44.4l4.3,0.3l5-18.5c-0.8,0-8.5-0.7-9.5-0.9L54.6,44.4z M53.9,47.3l0,4.5l2.2,0.2l2.4,0.2l0.7-4.4l-2.5-0.1L53.9,47.3z"/>
</svg>
