<?xml version="1.0" encoding="utf-8"?>
<!-- Generator: Adobe Illustrator 18.1.1, SVG Export Plug-In . SVG Version: 6.00 Build 0)  -->
<!DOCTYPE svg PUBLIC "-//W3C//DTD SVG 1.1//EN" "http://www.w3.org/Graphics/SVG/1.1/DTD/svg11.dtd">
<svg version="1.1" id="Layer_1" xmlns="http://www.w3.org/2000/svg" xmlns:xlink="http://www.w3.org/1999/xlink" x="0px" y="0px"
	 viewBox="0 0 64 64" enable-background="new 0 0 64 64" xml:space="preserve">
<g id="yelp">
	<g>
		<path d="M28.9,28.3c1.8,0.1,3.2-1.1,3.2-3.3c0-2.2,0.8-22.8-0.9-24.3c-1.7-1.5-8.4-0.1-10.3,0.5c-3.9,1.3-8.3,3.3-8.4,5
			C12.4,7.9,27.1,28.1,28.9,28.3z M49.3,15.8c-1.5,0-13.2,14-11.2,16.6c1.2,1.6,2.6,1.4,5.9,0.8c3.3-0.6,13.9-2.6,14.1-5.3
			C58.3,25.2,51.9,15.8,49.3,15.8z M26.4,36.4c0-1.8-5.6-4.3-5.6-4.3s-10.2-4.4-12.1-4.2c-1.9,0.2-2.6,5-2.8,8.6
			c-0.4,9.9,4.4,7.3,4.4,7.3s10.1-3.2,12.1-4C24.4,39.1,26.4,38.2,26.4,36.4z M31.5,43.4c-2.3-0.2-5,4-6.4,5.6
			c-1.4,1.6-7,7.3-7.1,8.9c0,1.5,3,3.2,7.1,4.7c4.1,1.5,8.8,2.6,9-0.7c0.2-3.3,0-12.5,0-13.6C34.1,47.3,34.2,43.7,31.5,43.4z
			 M54.7,44.4c-2.2-0.8-14-6.1-16.1-3.8c-1.3,1.4-0.5,3.8,0.9,6c1.4,2.2,6.4,9.9,6.4,9.9s0.9,2,2.5,2c1.6,0,4.7-2.9,6.3-5.1
			c1.6-2.2,3.2-4.8,3.2-6.3C57.9,45.6,56.9,45.1,54.7,44.4z"/>
	</g>
</g>
</svg>
