<?xml version="1.0" encoding="utf-8"?>
<!-- Generator: Adobe Illustrator 18.1.1, SVG Export Plug-In . SVG Version: 6.00 Build 0)  -->
<!DOCTYPE svg PUBLIC "-//W3C//DTD SVG 1.1//EN" "http://www.w3.org/Graphics/SVG/1.1/DTD/svg11.dtd">
<svg version="1.1" id="Layer_1" xmlns="http://www.w3.org/2000/svg" xmlns:xlink="http://www.w3.org/1999/xlink" x="0px" y="0px"
	 viewBox="0 0 64 64" enable-background="new 0 0 64 64" xml:space="preserve">
<g>
	<path d="M38.1,8.4v12.8c0,1.1,0.1,1.9,0.3,2.4c0.3,0.8,0.9,1.2,1.9,1.2c1.1,0,2.2-0.7,3.3-2v1.8h3V8.4h-3v12.4
		c-0.7,0.9-1.3,1.4-1.9,1.4c-0.4,0-0.6-0.2-0.7-0.7c0,0,0-0.4,0-1.1V8.4H38.1z"/>
	<path d="M31.3,24.9c1.5,0,2.6-0.6,3.4-1.7c0.6-0.8,0.9-2.1,0.9-3.8v-5.7c0-1.7-0.3-3-0.9-3.8c-0.8-1.1-2-1.7-3.4-1.7
		c-1.5,0-2.6,0.6-3.4,1.7C27.3,10.7,27,12,27,13.7v5.7c0,1.7,0.3,3,0.9,3.8C28.7,24.3,29.9,24.9,31.3,24.9z M29.9,13.1
		c0-1.5,0.5-2.2,1.4-2.2c0.9,0,1.4,0.7,1.4,2.2v6.8c0,1.5-0.5,2.3-1.4,2.3c-0.9,0-1.4-0.8-1.4-2.3V13.1z"/>
	<path d="M23,24.7v-8.8l3.9-13h-3.3l-2.2,8.5l-2.3-8.5h-3.4C16.3,4.7,17,6.7,17.8,9c1,3,1.7,5.3,2,6.9v8.8H23L23,24.7z"/>
	<path d="M53.4,29.8c-1-0.9-2.1-1.4-3.3-1.5c-4-0.4-10-0.7-18-0.7c-8,0-14,0.2-18,0.7c-1.3,0.2-2.4,0.7-3.3,1.5
		c-1,0.9-1.6,1.9-1.9,3.2c-0.6,2.5-0.8,6.3-0.8,11.4c0,5.2,0.3,8.9,0.8,11.4c0.3,1.3,0.9,2.3,1.9,3.2c1,0.9,2.1,1.4,3.3,1.5
		c4,0.5,10,0.7,18,0.7c8,0,14.1-0.2,18-0.7c1.3-0.1,2.4-0.6,3.3-1.5c1-0.9,1.6-1.9,1.9-3.2c0.6-2.5,0.8-6.3,0.8-11.4
		c0-5.2-0.3-8.9-0.8-11.4C55,31.7,54.3,30.6,53.4,29.8z M21.7,36.3h-3.5v18.5h-3.3V36.3h-3.4v-3.1h10.1V36.3L21.7,36.3z M30.4,54.8
		h-2.9V53c-1.2,1.3-2.3,2-3.3,2c-1,0-1.6-0.4-1.9-1.2c-0.2-0.5-0.3-1.3-0.3-2.4V38.7H25v11.8c0,0.7,0,1.1,0,1.1
		c0.1,0.5,0.3,0.7,0.7,0.7c0.6,0,1.2-0.5,1.9-1.4V38.7h2.9L30.4,54.8L30.4,54.8z M41.5,49.9c0,1.6-0.1,2.7-0.3,3.2
		c-0.4,1.2-1.1,1.8-2.3,1.8c-1,0-2-0.6-3-1.8v1.6H33V33.2h2.9v7.1c0.9-1.2,1.9-1.8,3-1.8c1.2,0,1.9,0.6,2.3,1.8
		c0.2,0.6,0.3,1.6,0.3,3.2V49.9z M52.5,47.3h-5.8v2.8c0,1.5,0.5,2.2,1.5,2.2c0.7,0,1.1-0.4,1.3-1.2c0-0.2,0.1-0.9,0.1-2h3v0.4
		c0,1.1,0,1.7-0.1,1.9c-0.1,0.6-0.3,1.2-0.7,1.8c-0.8,1.1-2,1.7-3.5,1.7c-1.5,0-2.7-0.6-3.5-1.7c-0.6-0.8-0.9-2.1-0.9-3.8v-5.6
		c0-1.7,0.3-3,0.9-3.8c0.8-1.1,2-1.7,3.5-1.7c1.5,0,2.6,0.6,3.4,1.7c0.6,0.8,0.9,2.1,0.9,3.8L52.5,47.3L52.5,47.3z"/>
	<path d="M48.1,41.1c-1,0-1.5,0.7-1.5,2.2v1.5h2.9v-1.5C49.6,41.9,49.1,41.1,48.1,41.1z"/>
	<path d="M37.3,41.1c-0.5,0-1,0.2-1.5,0.7v9.8c0.5,0.5,1,0.7,1.5,0.7c0.8,0,1.3-0.7,1.3-2.2v-6.9C38.6,41.9,38.2,41.1,37.3,41.1z"/>
</g>
</svg>
