<?xml version="1.0" encoding="utf-8"?>
<!-- Generator: Adobe Illustrator 18.1.1, SVG Export Plug-In . SVG Version: 6.00 Build 0)  -->
<!DOCTYPE svg PUBLIC "-//W3C//DTD SVG 1.1//EN" "http://www.w3.org/Graphics/SVG/1.1/DTD/svg11.dtd">
<svg version="1.1" id="Layer_1" xmlns="http://www.w3.org/2000/svg" xmlns:xlink="http://www.w3.org/1999/xlink" x="0px" y="0px"
	 viewBox="0 0 64 64" enable-background="new 0 0 64 64" xml:space="preserve">
<path id="Zerply" d="M9.7,50.6c0.7,0,1.3,0,2,0c4.9,0,9,0.1,13.6,2.5c3.5,1.8,6.3,4.6,9.7,6.6c3.2,1.9,6.9,3.9,10.6,4.3
	c7.5,0.9,10.6-8.2,9.3-14.2c-3.4,2.7-8.1,2.6-12.4,1.5c-4-1.3-10.5-5.5-10.5-5.5v0c-2.9-1.8-6.3-3.3-9.7-3.1c0-1.5,0-1.6,1-2.7
	c1.3-1.5,2.6-3,3.9-4.5c4-4.7,8.1-9.4,12.1-14.1c3.4-4,6.9-8,10.3-12C50,9,51.2,8,51.2,7.5c0.2-1.8,0.4-3.6,0.6-5.4
	c0.1-1.3-1.2-1-1.2-1l0,0c-5.6,1.1-11.3,1.7-17,1.5c-3.2-0.1-6.5-0.4-9.5-1.6c-0.1,0-0.7-0.4-1.3-0.7c-0.9-0.4-1.4-0.2-1.7,0.1
	c-0.2,0.3-0.5,0.6-0.7,0.9c-1.5,2-2.9,4.4-3.1,7c-0.1,0.6-0.1,1.8,0.2,2.5l0,0c0,0,0,0.1,0.1,0.2c0,0,0,0,0,0.1
	c0.7,1,4,3.9,16.8,1.4c-8.3,9.8-16.7,19.7-25,29.5c0,0,0,0,0,0c-0.5,0.5-0.5,1.4-0.5,1.4c0,1.7,0,3.5,0,5.2c0,0.1,0,0.4,0,0.9
	C9.1,50.4,9.4,50.5,9.7,50.6z"/>
</svg>
